<svg width="196" height="196" viewBox="0 0 196 196" fill="none" xmlns="http://www.w3.org/2000/svg">
<path opacity="0.1" d="M98 0.5C151.848 0.500004 195.5 44.1523 195.5 98C195.5 151.848 151.848 195.5 98 195.5C44.1522 195.5 0.500041 151.848 0.5 98C0.5 44.1523 44.1522 0.5 98 0.5Z" stroke="url(#paint0_linear_39_12698)"/>
<path opacity="0.2" d="M98 15.5C143.563 15.5 180.5 52.4366 180.5 98C180.5 143.564 143.563 180.5 98 180.5C52.4365 180.5 15.5 143.564 15.5 98C15.5 52.4366 52.4365 15.5 98 15.5Z" fill="url(#paint1_linear_39_12698)" stroke="url(#paint2_linear_39_12698)"/>
<path opacity="0.5" d="M98 40C130.034 40 156 65.9659 156 98C156 130.034 130.034 156 98 156C65.9659 156 40 130.034 40 98C40 65.9659 65.9659 40 98 40Z" fill="url(#paint3_linear_39_12698)"/>
<path d="M103.242 84.0251C104.332 82.7786 106.228 82.6509 107.475 83.7409C108.721 84.8317 108.849 86.7275 107.759 87.9743L86.7593 111.974C86.2126 112.599 85.4299 112.969 84.6001 112.997C83.7704 113.024 82.9665 112.708 82.3794 112.121L73.3794 103.121C72.2078 101.949 72.2079 100.05 73.3794 98.8787C74.551 97.7072 76.45 97.7072 77.6216 98.8787L84.354 105.611L103.242 84.0251Z" fill="#6CF9D8"/>
<path d="M118.242 84.0251C119.332 82.7786 121.228 82.6509 122.475 83.7409C123.721 84.8317 123.849 86.7275 122.759 87.9743L101.759 111.974C100.668 113.221 98.7728 113.348 97.526 112.258C96.2792 111.168 96.1517 109.272 97.2416 108.025L118.242 84.0251Z" fill="#6CF9D8"/>
<defs>
<linearGradient id="paint0_linear_39_12698" x1="98" y1="-0.321311" x2="98" y2="195.679" gradientUnits="userSpaceOnUse">
<stop offset="0.245902" stop-color="#6CF9D8"/>
<stop offset="1" stop-color="#6CF9D8" stop-opacity="0.5"/>
</linearGradient>
<linearGradient id="paint1_linear_39_12698" x1="98" y1="14.7279" x2="98" y2="180.728" gradientUnits="userSpaceOnUse">
<stop offset="0.245902" stop-color="#6CF9D8" stop-opacity="0.2"/>
<stop offset="1" stop-color="#6CF9D8" stop-opacity="0.05"/>
</linearGradient>
<linearGradient id="paint2_linear_39_12698" x1="98" y1="14.7279" x2="98" y2="180.728" gradientUnits="userSpaceOnUse">
<stop offset="0.245902" stop-color="#6CF9D8"/>
<stop offset="1" stop-color="#6CF9D8" stop-opacity="0.5"/>
</linearGradient>
<linearGradient id="paint3_linear_39_12698" x1="98" y1="39.8098" x2="98" y2="155.81" gradientUnits="userSpaceOnUse">
<stop offset="0.245902" stop-color="#6CF9D8" stop-opacity="0.2"/>
<stop offset="1" stop-color="#6CF9D8" stop-opacity="0.05"/>
</linearGradient>
</defs>
</svg>
