<svg width="414" height="240" viewBox="0 0 414 240" fill="none" xmlns="http://www.w3.org/2000/svg">
<g opacity="0.2" filter="url(#filter0_f_2007_14137)">
<path fill-rule="evenodd" clip-rule="evenodd" d="M206.333 160C279.235 160 338.333 142.092 338.333 120C338.333 97.9086 279.235 80 206.333 80C133.432 80 74.3334 97.9086 74.3334 120C74.3334 142.092 133.432 160 206.333 160Z" fill="url(#paint0_linear_2007_14137)" fill-opacity="0.2"/>
<path fill-rule="evenodd" clip-rule="evenodd" d="M206.333 160C279.235 160 338.333 142.092 338.333 120C338.333 97.9086 279.235 80 206.333 80C133.432 80 74.3334 97.9086 74.3334 120C74.3334 142.092 133.432 160 206.333 160Z" fill="#6CF9D8" style="mix-blend-mode:overlay"/>
</g>
<path fill-rule="evenodd" clip-rule="evenodd" d="M88.5955 106.858C89.0744 106.698 89.5923 106.698 90.0712 106.858L99.7379 110.08C100.691 110.398 101.333 111.289 101.333 112.294V119.883C101.333 123.532 99.7554 126.226 97.5216 128.346C95.3256 130.429 92.4539 131.996 89.8082 133.423C89.5118 133.583 89.155 133.583 88.8586 133.423C86.2128 131.996 83.3411 130.429 81.1451 128.346C78.9114 126.226 77.3334 123.532 77.3334 119.883V112.294C77.3334 111.29 77.976 110.398 78.9288 110.08L88.5955 106.858ZM93.7071 117.374C94.0976 116.983 94.0976 116.35 93.7071 115.96C93.3166 115.569 92.6835 115.569 92.293 115.96L88 120.252L86.3738 118.626C85.9833 118.236 85.3501 118.236 84.9596 118.626C84.5691 119.017 84.5691 119.65 84.9596 120.04L87.293 122.374C87.4804 122.561 87.7348 122.667 88 122.667C88.2652 122.667 88.5196 122.561 88.7071 122.374L93.7071 117.374Z" fill="#6CF9D8"/>
<path d="M126.437 113.812C126.437 113.892 126.405 113.964 126.341 114.028C126.293 114.076 126.229 114.1 126.149 114.1H117.989C117.909 114.1 117.869 114.14 117.869 114.22V118.708C117.869 118.788 117.909 118.828 117.989 118.828H123.485C123.565 118.828 123.629 118.86 123.677 118.924C123.741 118.972 123.773 119.036 123.773 119.116V120.94C123.773 121.02 123.741 121.092 123.677 121.156C123.629 121.204 123.565 121.228 123.485 121.228H117.989C117.909 121.228 117.869 121.268 117.869 121.348V128.212C117.869 128.292 117.837 128.364 117.773 128.428C117.725 128.476 117.661 128.5 117.581 128.5H115.373C115.293 128.5 115.221 128.476 115.157 128.428C115.109 128.364 115.085 128.292 115.085 128.212V111.988C115.085 111.908 115.109 111.844 115.157 111.796C115.221 111.732 115.293 111.7 115.373 111.7H126.149C126.229 111.7 126.293 111.732 126.341 111.796C126.405 111.844 126.437 111.908 126.437 111.988V113.812ZM131.994 116.044C133.002 116.044 133.89 116.22 134.658 116.572C135.426 116.924 136.018 117.412 136.434 118.036C136.85 118.644 137.058 119.34 137.058 120.124V128.212C137.058 128.292 137.026 128.364 136.962 128.428C136.914 128.476 136.85 128.5 136.77 128.5H134.562C134.482 128.5 134.41 128.476 134.346 128.428C134.298 128.364 134.274 128.292 134.274 128.212V127.444C134.274 127.396 134.258 127.372 134.226 127.372C134.194 127.356 134.162 127.364 134.13 127.396C133.346 128.26 132.21 128.692 130.722 128.692C129.522 128.692 128.53 128.388 127.746 127.78C126.978 127.172 126.594 126.268 126.594 125.068C126.594 123.82 127.026 122.852 127.89 122.164C128.77 121.46 130.002 121.108 131.586 121.108H134.154C134.234 121.108 134.274 121.068 134.274 120.988V120.412C134.274 119.788 134.09 119.308 133.722 118.972C133.354 118.62 132.802 118.444 132.066 118.444C131.458 118.444 130.962 118.556 130.578 118.78C130.21 118.988 129.978 119.284 129.882 119.668C129.834 119.86 129.722 119.94 129.546 119.908L127.218 119.62C127.138 119.604 127.066 119.58 127.002 119.548C126.954 119.5 126.938 119.444 126.954 119.38C127.082 118.404 127.602 117.604 128.514 116.98C129.442 116.356 130.602 116.044 131.994 116.044ZM131.418 126.484C132.202 126.484 132.874 126.276 133.434 125.86C133.994 125.444 134.274 124.916 134.274 124.276V123.148C134.274 123.068 134.234 123.028 134.154 123.028H132.138C131.29 123.028 130.618 123.188 130.122 123.508C129.642 123.828 129.402 124.284 129.402 124.876C129.402 125.388 129.586 125.788 129.954 126.076C130.338 126.348 130.826 126.484 131.418 126.484ZM144.413 128.644C143.405 128.644 142.517 128.5 141.749 128.212C140.997 127.908 140.413 127.5 139.997 126.988C139.581 126.46 139.373 125.876 139.373 125.236V125.02C139.373 124.94 139.397 124.876 139.445 124.828C139.509 124.764 139.581 124.732 139.661 124.732H141.773C141.853 124.732 141.917 124.764 141.965 124.828C142.029 124.876 142.061 124.94 142.061 125.02V125.068C142.061 125.468 142.277 125.82 142.709 126.124C143.157 126.412 143.717 126.556 144.389 126.556C145.029 126.556 145.549 126.428 145.949 126.172C146.349 125.9 146.549 125.564 146.549 125.164C146.549 124.796 146.381 124.524 146.045 124.348C145.725 124.156 145.197 123.956 144.461 123.748L143.549 123.46C142.733 123.22 142.045 122.964 141.485 122.692C140.925 122.42 140.453 122.052 140.069 121.588C139.685 121.108 139.493 120.5 139.493 119.764C139.493 118.644 139.933 117.756 140.813 117.1C141.693 116.428 142.853 116.092 144.293 116.092C145.269 116.092 146.125 116.252 146.861 116.572C147.597 116.876 148.165 117.308 148.565 117.868C148.965 118.412 149.165 119.036 149.165 119.74C149.165 119.82 149.133 119.892 149.069 119.956C149.021 120.004 148.957 120.028 148.877 120.028H146.837C146.757 120.028 146.685 120.004 146.621 119.956C146.573 119.892 146.549 119.82 146.549 119.74C146.549 119.324 146.341 118.98 145.925 118.708C145.525 118.42 144.973 118.276 144.269 118.276C143.645 118.276 143.133 118.396 142.733 118.636C142.349 118.86 142.157 119.18 142.157 119.596C142.157 119.98 142.341 120.276 142.709 120.484C143.093 120.676 143.725 120.892 144.605 121.132L145.133 121.276C145.981 121.532 146.693 121.796 147.269 122.068C147.845 122.324 148.333 122.692 148.733 123.172C149.133 123.636 149.333 124.244 149.333 124.996C149.333 126.132 148.885 127.028 147.989 127.684C147.093 128.324 145.901 128.644 144.413 128.644ZM158.169 118.204C158.169 118.284 158.137 118.356 158.073 118.42C158.025 118.468 157.961 118.492 157.881 118.492H155.433C155.353 118.492 155.313 118.532 155.313 118.612V124.396C155.313 125.004 155.441 125.444 155.697 125.716C155.969 125.988 156.393 126.124 156.969 126.124H157.689C157.769 126.124 157.833 126.156 157.881 126.22C157.945 126.268 157.977 126.332 157.977 126.412V128.212C157.977 128.388 157.881 128.492 157.689 128.524L156.441 128.548C155.177 128.548 154.233 128.332 153.609 127.9C152.985 127.468 152.665 126.652 152.649 125.452V118.612C152.649 118.532 152.609 118.492 152.529 118.492H151.161C151.081 118.492 151.009 118.468 150.945 118.42C150.897 118.356 150.873 118.284 150.873 118.204V116.524C150.873 116.444 150.897 116.38 150.945 116.332C151.009 116.268 151.081 116.236 151.161 116.236H152.529C152.609 116.236 152.649 116.196 152.649 116.116V113.308C152.649 113.228 152.673 113.164 152.721 113.116C152.785 113.052 152.857 113.02 152.937 113.02H155.025C155.105 113.02 155.169 113.052 155.217 113.116C155.281 113.164 155.313 113.228 155.313 113.308V116.116C155.313 116.196 155.353 116.236 155.433 116.236H157.881C157.961 116.236 158.025 116.268 158.073 116.332C158.137 116.38 158.169 116.444 158.169 116.524V118.204ZM179.126 128.14C179.174 128.204 179.198 128.268 179.198 128.332C179.198 128.444 179.118 128.5 178.958 128.5H176.486C176.342 128.5 176.222 128.444 176.126 128.332L175.046 127.132C174.998 127.084 174.942 127.084 174.878 127.132C173.406 128.172 171.79 128.692 170.03 128.692C168.558 128.692 167.342 128.348 166.382 127.66C165.438 126.956 164.966 125.932 164.966 124.588C164.966 123.5 165.262 122.58 165.854 121.828C166.462 121.076 167.278 120.38 168.302 119.74C168.398 119.676 168.406 119.62 168.326 119.572C167.478 118.548 166.918 117.756 166.646 117.196C166.374 116.636 166.238 116.052 166.238 115.444C166.238 114.708 166.43 114.044 166.814 113.452C167.198 112.844 167.734 112.372 168.422 112.036C169.126 111.684 169.926 111.508 170.822 111.508C171.75 111.508 172.574 111.684 173.294 112.036C174.014 112.372 174.574 112.852 174.974 113.476C175.39 114.1 175.598 114.82 175.598 115.636C175.598 116.612 175.31 117.468 174.734 118.204C174.158 118.94 173.382 119.612 172.406 120.22C172.326 120.268 172.318 120.324 172.382 120.388C173.118 121.252 174.014 122.268 175.07 123.436C175.118 123.5 175.174 123.5 175.238 123.436C175.622 123.02 176.118 122.38 176.726 121.516C176.822 121.34 176.95 121.308 177.11 121.42L178.742 122.356C178.934 122.468 178.966 122.596 178.838 122.74C178.166 123.764 177.502 124.644 176.846 125.38L176.822 125.428C176.822 125.492 176.854 125.556 176.918 125.62C177.494 126.292 178.054 126.932 178.598 127.54C178.71 127.684 178.806 127.804 178.886 127.9C178.982 127.996 179.062 128.076 179.126 128.14ZM170.894 114.052C170.334 114.052 169.878 114.204 169.526 114.508C169.19 114.812 169.022 115.212 169.022 115.708C169.022 115.98 169.118 116.284 169.31 116.62C169.502 116.956 169.91 117.5 170.534 118.252C170.582 118.316 170.638 118.324 170.702 118.276C171.39 117.844 171.91 117.428 172.262 117.028C172.63 116.612 172.814 116.164 172.814 115.684C172.814 115.188 172.638 114.796 172.286 114.508C171.934 114.204 171.47 114.052 170.894 114.052ZM170.054 126.34C171.046 126.34 172.094 125.98 173.198 125.26C173.262 125.196 173.262 125.14 173.198 125.092C173.118 125.012 173.038 124.924 172.958 124.828C172.878 124.732 172.798 124.636 172.718 124.54C172.51 124.3 172.166 123.908 171.686 123.364L171.134 122.74C170.878 122.468 170.566 122.116 170.198 121.684C170.166 121.636 170.11 121.628 170.03 121.66C169.31 122.124 168.758 122.58 168.374 123.028C167.99 123.476 167.798 123.98 167.798 124.54C167.798 125.084 167.998 125.524 168.398 125.86C168.814 126.18 169.366 126.34 170.054 126.34ZM192.462 128.692C191.214 128.692 190.126 128.492 189.198 128.092C188.27 127.692 187.55 127.132 187.038 126.412C186.542 125.692 186.294 124.844 186.294 123.868V123.268C186.294 123.188 186.318 123.124 186.366 123.076C186.43 123.012 186.502 122.98 186.582 122.98H188.718C188.798 122.98 188.862 123.012 188.91 123.076C188.974 123.124 189.006 123.188 189.006 123.268V123.724C189.006 124.46 189.334 125.076 189.99 125.572C190.646 126.052 191.542 126.292 192.678 126.292C193.654 126.292 194.39 126.084 194.886 125.668C195.382 125.252 195.63 124.716 195.63 124.06C195.63 123.612 195.494 123.236 195.222 122.932C194.95 122.612 194.558 122.324 194.046 122.068C193.55 121.812 192.798 121.492 191.79 121.108C190.654 120.692 189.734 120.3 189.03 119.932C188.326 119.564 187.734 119.068 187.254 118.444C186.79 117.804 186.558 117.012 186.558 116.068C186.558 114.66 187.07 113.548 188.094 112.732C189.118 111.916 190.486 111.508 192.198 111.508C193.398 111.508 194.454 111.716 195.366 112.132C196.294 112.548 197.014 113.132 197.527 113.884C198.039 114.62 198.295 115.476 198.295 116.452V116.86C198.295 116.94 198.263 117.012 198.199 117.076C198.15 117.124 198.086 117.148 198.006 117.148H195.846C195.766 117.148 195.694 117.124 195.63 117.076C195.582 117.012 195.558 116.94 195.558 116.86V116.596C195.558 115.844 195.246 115.212 194.622 114.7C194.014 114.172 193.166 113.908 192.078 113.908C191.198 113.908 190.51 114.092 190.014 114.46C189.534 114.828 189.294 115.348 189.294 116.02C189.294 116.5 189.422 116.892 189.678 117.196C189.934 117.5 190.318 117.78 190.83 118.036C191.342 118.276 192.134 118.588 193.206 118.972C194.342 119.404 195.246 119.796 195.918 120.148C196.606 120.5 197.19 120.996 197.67 121.636C198.167 122.26 198.415 123.044 198.415 123.988C198.415 125.428 197.878 126.572 196.806 127.42C195.75 128.268 194.302 128.692 192.462 128.692ZM211.298 120.988C211.362 121.388 211.394 121.836 211.394 122.332L211.37 123.076C211.37 123.268 211.274 123.364 211.082 123.364H203.57C203.49 123.364 203.45 123.404 203.45 123.484C203.498 124.012 203.57 124.372 203.666 124.564C204.05 125.716 204.986 126.3 206.474 126.316C207.562 126.316 208.426 125.868 209.066 124.972C209.13 124.876 209.21 124.828 209.306 124.828C209.37 124.828 209.426 124.852 209.474 124.9L210.962 126.124C211.106 126.236 211.13 126.364 211.034 126.508C210.538 127.212 209.874 127.756 209.042 128.14C208.226 128.524 207.314 128.716 206.306 128.716C205.058 128.716 203.994 128.436 203.114 127.876C202.25 127.316 201.618 126.532 201.218 125.524C200.85 124.66 200.666 123.46 200.666 121.924C200.666 120.996 200.762 120.244 200.954 119.668C201.274 118.548 201.874 117.668 202.754 117.028C203.65 116.372 204.722 116.044 205.97 116.044C209.122 116.044 210.898 117.692 211.298 120.988ZM205.97 118.444C205.378 118.444 204.882 118.596 204.482 118.9C204.098 119.188 203.826 119.596 203.666 120.124C203.57 120.396 203.506 120.748 203.474 121.18C203.442 121.26 203.474 121.3 203.57 121.3H208.442C208.522 121.3 208.562 121.26 208.562 121.18C208.53 120.78 208.482 120.476 208.418 120.268C208.274 119.692 207.986 119.244 207.554 118.924C207.138 118.604 206.61 118.444 205.97 118.444ZM219.051 128.692C217.819 128.692 216.755 128.38 215.859 127.756C214.963 127.116 214.339 126.26 213.987 125.188C213.731 124.468 213.603 123.508 213.603 122.308C213.603 121.156 213.731 120.212 213.987 119.476C214.323 118.42 214.939 117.588 215.835 116.98C216.747 116.356 217.819 116.044 219.051 116.044C220.299 116.044 221.387 116.356 222.315 116.98C223.243 117.604 223.859 118.388 224.163 119.332C224.243 119.588 224.299 119.844 224.331 120.1V120.148C224.331 120.308 224.243 120.404 224.067 120.436L221.907 120.748H221.859C221.715 120.748 221.619 120.668 221.571 120.508C221.571 120.428 221.563 120.364 221.547 120.316C221.515 120.188 221.483 120.076 221.451 119.98C221.307 119.532 221.019 119.164 220.587 118.876C220.155 118.588 219.643 118.444 219.051 118.444C218.443 118.444 217.923 118.604 217.491 118.924C217.075 119.228 216.795 119.652 216.651 120.196C216.491 120.708 216.411 121.42 216.411 122.332C216.411 123.212 216.483 123.924 216.627 124.468C216.787 125.028 217.075 125.476 217.491 125.812C217.907 126.132 218.427 126.292 219.051 126.292C219.659 126.292 220.179 126.14 220.611 125.836C221.059 125.516 221.347 125.092 221.475 124.564C221.491 124.532 221.499 124.492 221.499 124.444C221.515 124.428 221.523 124.404 221.523 124.372C221.571 124.18 221.683 124.1 221.859 124.132L224.019 124.468C224.099 124.484 224.163 124.524 224.211 124.588C224.275 124.636 224.299 124.708 224.283 124.804C224.235 125.06 224.195 125.244 224.163 125.356C223.859 126.38 223.243 127.196 222.315 127.804C221.387 128.396 220.299 128.692 219.051 128.692ZM233.937 116.524C233.937 116.444 233.961 116.38 234.009 116.332C234.073 116.268 234.145 116.236 234.225 116.236H236.409C236.489 116.236 236.553 116.268 236.601 116.332C236.665 116.38 236.697 116.444 236.697 116.524V128.212C236.697 128.292 236.665 128.364 236.601 128.428C236.553 128.476 236.489 128.5 236.409 128.5H234.225C234.145 128.5 234.073 128.476 234.009 128.428C233.961 128.364 233.937 128.292 233.937 128.212V127.444C233.937 127.396 233.921 127.364 233.889 127.348C233.857 127.332 233.825 127.348 233.793 127.396C233.137 128.244 232.153 128.668 230.841 128.668C229.625 128.668 228.601 128.316 227.769 127.612C226.953 126.908 226.545 125.908 226.545 124.612V116.524C226.545 116.444 226.569 116.38 226.617 116.332C226.681 116.268 226.753 116.236 226.833 116.236H229.041C229.121 116.236 229.185 116.268 229.233 116.332C229.297 116.38 229.329 116.444 229.329 116.524V123.82C229.329 124.572 229.521 125.172 229.905 125.62C230.305 126.068 230.857 126.292 231.561 126.292C232.281 126.292 232.857 126.068 233.289 125.62C233.721 125.172 233.937 124.572 233.937 123.82V116.524ZM245.385 116.092C245.897 116.092 246.345 116.196 246.729 116.404C246.857 116.468 246.905 116.588 246.873 116.764L246.465 118.924C246.449 119.116 246.337 119.172 246.129 119.092C245.889 119.012 245.609 118.972 245.289 118.972C245.081 118.972 244.921 118.98 244.809 118.996C244.137 119.028 243.577 119.268 243.129 119.716C242.681 120.148 242.457 120.716 242.457 121.42V128.212C242.457 128.292 242.425 128.364 242.361 128.428C242.313 128.476 242.249 128.5 242.169 128.5H239.961C239.881 128.5 239.809 128.476 239.745 128.428C239.697 128.364 239.673 128.292 239.673 128.212V116.524C239.673 116.444 239.697 116.38 239.745 116.332C239.809 116.268 239.881 116.236 239.961 116.236H242.169C242.249 116.236 242.313 116.268 242.361 116.332C242.425 116.38 242.457 116.444 242.457 116.524V117.604C242.457 117.668 242.465 117.708 242.481 117.724C242.513 117.724 242.545 117.7 242.577 117.652C243.249 116.612 244.185 116.092 245.385 116.092ZM258.806 120.988C258.87 121.388 258.902 121.836 258.902 122.332L258.878 123.076C258.878 123.268 258.782 123.364 258.59 123.364H251.078C250.998 123.364 250.958 123.404 250.958 123.484C251.006 124.012 251.078 124.372 251.174 124.564C251.558 125.716 252.494 126.3 253.982 126.316C255.07 126.316 255.934 125.868 256.574 124.972C256.638 124.876 256.718 124.828 256.814 124.828C256.878 124.828 256.934 124.852 256.982 124.9L258.47 126.124C258.614 126.236 258.638 126.364 258.542 126.508C258.046 127.212 257.382 127.756 256.55 128.14C255.734 128.524 254.822 128.716 253.814 128.716C252.566 128.716 251.502 128.436 250.622 127.876C249.758 127.316 249.126 126.532 248.726 125.524C248.358 124.66 248.174 123.46 248.174 121.924C248.174 120.996 248.27 120.244 248.462 119.668C248.782 118.548 249.382 117.668 250.262 117.028C251.158 116.372 252.23 116.044 253.478 116.044C256.63 116.044 258.406 117.692 258.806 120.988ZM253.478 118.444C252.886 118.444 252.39 118.596 251.99 118.9C251.606 119.188 251.334 119.596 251.174 120.124C251.078 120.396 251.014 120.748 250.982 121.18C250.95 121.26 250.982 121.3 251.078 121.3H255.95C256.03 121.3 256.07 121.26 256.07 121.18C256.038 120.78 255.99 120.476 255.926 120.268C255.782 119.692 255.494 119.244 255.062 118.924C254.646 118.604 254.118 118.444 253.478 118.444Z" fill="#6CF9D8"/>
<path d="M273.133 128.5C272.973 128.5 272.869 128.42 272.821 128.26L268.957 116.548C268.941 116.516 268.933 116.476 268.933 116.428C268.933 116.284 269.021 116.212 269.197 116.212H271.645C271.821 116.212 271.933 116.292 271.981 116.452L274.309 124.468C274.325 124.516 274.349 124.54 274.381 124.54C274.413 124.54 274.437 124.516 274.453 124.468L276.781 116.452C276.829 116.292 276.941 116.212 277.117 116.212L279.565 116.26C279.661 116.26 279.733 116.292 279.781 116.356C279.829 116.404 279.837 116.484 279.805 116.596L275.965 128.26C275.917 128.42 275.813 128.5 275.653 128.5H273.133ZM283.499 114.556C283.003 114.556 282.595 114.396 282.275 114.076C281.955 113.756 281.795 113.348 281.795 112.852C281.795 112.356 281.955 111.948 282.275 111.628C282.595 111.308 283.003 111.148 283.499 111.148C283.995 111.148 284.403 111.308 284.723 111.628C285.043 111.948 285.203 112.356 285.203 112.852C285.203 113.348 285.043 113.756 284.723 114.076C284.403 114.396 283.995 114.556 283.499 114.556ZM282.347 128.5C282.267 128.5 282.195 128.476 282.131 128.428C282.083 128.364 282.059 128.292 282.059 128.212V116.5C282.059 116.42 282.083 116.356 282.131 116.308C282.195 116.244 282.267 116.212 282.347 116.212H284.555C284.635 116.212 284.699 116.244 284.747 116.308C284.811 116.356 284.843 116.42 284.843 116.5V128.212C284.843 128.292 284.811 128.364 284.747 128.428C284.699 128.476 284.635 128.5 284.555 128.5H282.347ZM292.712 116.044C293.72 116.044 294.608 116.22 295.376 116.572C296.144 116.924 296.736 117.412 297.152 118.036C297.568 118.644 297.776 119.34 297.776 120.124V128.212C297.776 128.292 297.744 128.364 297.68 128.428C297.632 128.476 297.568 128.5 297.488 128.5H295.28C295.2 128.5 295.128 128.476 295.064 128.428C295.016 128.364 294.992 128.292 294.992 128.212V127.444C294.992 127.396 294.976 127.372 294.944 127.372C294.912 127.356 294.88 127.364 294.848 127.396C294.064 128.26 292.928 128.692 291.44 128.692C290.24 128.692 289.248 128.388 288.464 127.78C287.696 127.172 287.312 126.268 287.312 125.068C287.312 123.82 287.744 122.852 288.608 122.164C289.488 121.46 290.72 121.108 292.304 121.108H294.872C294.952 121.108 294.992 121.068 294.992 120.988V120.412C294.992 119.788 294.808 119.308 294.44 118.972C294.072 118.62 293.52 118.444 292.784 118.444C292.176 118.444 291.68 118.556 291.296 118.78C290.928 118.988 290.696 119.284 290.6 119.668C290.552 119.86 290.44 119.94 290.264 119.908L287.936 119.62C287.856 119.604 287.784 119.58 287.72 119.548C287.672 119.5 287.656 119.444 287.672 119.38C287.8 118.404 288.32 117.604 289.232 116.98C290.16 116.356 291.32 116.044 292.712 116.044ZM292.136 126.484C292.92 126.484 293.592 126.276 294.152 125.86C294.712 125.444 294.992 124.916 294.992 124.276V123.148C294.992 123.068 294.952 123.028 294.872 123.028H292.856C292.008 123.028 291.336 123.188 290.84 123.508C290.36 123.828 290.12 124.284 290.12 124.876C290.12 125.388 290.304 125.788 290.672 126.076C291.056 126.348 291.544 126.484 292.136 126.484Z" fill="#E0F3FF"/>
<rect x="307.333" y="104" width="32" height="32" rx="16" fill="#6CF9D8"/>
<path d="M320.332 121.439C320.493 121.815 320.726 122.167 321.033 122.474C321.274 122.714 321.542 122.91 321.828 123.061L315.751 129.14L314.191 127.58L320.332 121.439ZM332.476 127.493L330.916 129.052L324.922 123.058C325.206 122.907 325.472 122.713 325.711 122.474C326.02 122.165 326.253 121.81 326.414 121.432L332.476 127.493ZM332.383 112.507L326.298 118.59C326.147 118.305 325.951 118.036 325.711 117.796C325.404 117.489 325.052 117.256 324.676 117.095L330.824 110.948L332.383 112.507ZM322.074 117.092C321.696 117.253 321.342 117.488 321.033 117.796C320.794 118.035 320.599 118.301 320.448 118.584L314.283 112.42L315.843 110.861L322.074 117.092Z" fill="#2D2E33"/>
<defs>
<filter id="filter0_f_2007_14137" x="-5.66663" y="0" width="424" height="240" filterUnits="userSpaceOnUse" color-interpolation-filters="sRGB">
<feFlood flood-opacity="0" result="BackgroundImageFix"/>
<feBlend mode="normal" in="SourceGraphic" in2="BackgroundImageFix" result="shape"/>
<feGaussianBlur stdDeviation="40" result="effect1_foregroundBlur_2007_14137"/>
</filter>
<linearGradient id="paint0_linear_2007_14137" x1="206.333" y1="79.8689" x2="206.333" y2="159.869" gradientUnits="userSpaceOnUse">
<stop offset="0.245902" stop-color="#E0F3FF"/>
<stop offset="1" stop-color="#E0F3FF" stop-opacity="0.5"/>
</linearGradient>
</defs>
</svg>
