<svg width="1082" height="105" viewBox="0 0 1082 105" fill="none" xmlns="http://www.w3.org/2000/svg">
    <path d="M158.038 87.6298V4.12979C158.038 3.73197 157.88 3.35044 157.598 3.06913C157.317 2.78783 156.936 2.62979 156.538 2.62979H144.538C144.14 2.62979 143.758 2.78783 143.477 3.06913C143.196 3.35044 143.038 3.73197 143.038 4.12979V101.13C143.038 101.528 143.196 101.909 143.477 102.19C143.758 102.472 144.14 102.63 144.538 102.63H206.538C206.936 102.63 207.317 102.472 207.598 102.19C207.88 101.909 208.038 101.528 208.038 101.13V89.1298C208.038 88.732 207.88 88.3504 207.598 88.0691C207.317 87.7878 206.936 87.6298 206.538 87.6298H158.038Z" fill="#9DAAB3"/>
    <path d="M313 2.62979H241C240.172 2.62979 239.5 3.30136 239.5 4.12979V16.1298C239.5 16.9582 240.172 17.6298 241 17.6298H313C313.829 17.6298 314.5 16.9582 314.5 16.1298V4.12979C314.5 3.30136 313.829 2.62979 313 2.62979Z" fill="#9DAAB3"/>
    <path d="M313 87.6298H241C240.172 87.6298 239.5 88.3014 239.5 89.1298V101.13C239.5 101.958 240.172 102.63 241 102.63H313C313.829 102.63 314.5 101.958 314.5 101.13V89.1298C314.5 88.3014 313.829 87.6298 313 87.6298Z" fill="#9DAAB3"/>
    <path d="M313 45.0744H241C240.172 45.0744 239.5 45.7459 239.5 46.5744V58.5744C239.5 59.4028 240.172 60.0744 241 60.0744H313C313.829 60.0744 314.5 59.4028 314.5 58.5744V46.5744C314.5 45.7459 313.829 45.0744 313 45.0744Z" fill="#9DAAB3"/>
    <path d="M840.91 2.62979H768.91C768.081 2.62979 767.41 3.30136 767.41 4.12979V16.1298C767.41 16.9582 768.081 17.6298 768.91 17.6298H840.91C841.738 17.6298 842.41 16.9582 842.41 16.1298V4.12979C842.41 3.30136 841.738 2.62979 840.91 2.62979Z" fill="#9DAAB3"/>
    <path d="M840.91 87.6298H768.91C768.081 87.6298 767.41 88.3014 767.41 89.1298V101.13C767.41 101.958 768.081 102.63 768.91 102.63H840.91C841.738 102.63 842.41 101.958 842.41 101.13V89.1298C842.41 88.3014 841.738 87.6298 840.91 87.6298Z" fill="#9DAAB3"/>
    <path d="M840.91 45.0746H768.91C768.081 45.0746 767.41 45.7462 767.41 46.5746V58.5746C767.41 59.403 768.081 60.0746 768.91 60.0746H840.91C841.738 60.0746 842.41 59.403 842.41 58.5746V46.5746C842.41 45.7462 841.738 45.0746 840.91 45.0746Z" fill="#9DAAB3"/>
    <path d="M551.5 2.62979H539.5C538.672 2.62979 538 3.30136 538 4.12979V101.13C538 101.958 538.672 102.63 539.5 102.63H551.5C552.328 102.63 553 101.958 553 101.13V4.12979C553 3.30136 552.328 2.62979 551.5 2.62979Z" fill="#9DAAB3"/>
    <path d="M521.5 45.1449H483V4.12979C483 3.93281 482.961 3.73775 482.886 3.55575C482.81 3.37376 482.7 3.2084 482.561 3.06911C482.421 2.92982 482.256 2.81933 482.074 2.74395C481.892 2.66857 481.697 2.62978 481.5 2.62979H469.5C469.102 2.62985 468.721 2.78791 468.439 3.0692C468.158 3.35049 468 3.73198 468 4.12979V45.1449H454.5C454.102 45.145 453.721 45.303 453.439 45.5843C453.158 45.8656 453 46.2471 453 46.6449V58.6449C453 59.0427 453.158 59.4242 453.439 59.7055C453.721 59.9868 454.102 60.1449 454.5 60.1449H468V101.13C468 101.528 468.158 101.909 468.439 102.19C468.721 102.472 469.102 102.63 469.5 102.63H481.5C481.697 102.63 481.892 102.591 482.074 102.516C482.256 102.44 482.421 102.33 482.561 102.19C482.7 102.051 482.81 101.886 482.886 101.704C482.961 101.522 483 101.327 483 101.13V60.1449H521.5C521.697 60.1449 521.892 60.1061 522.074 60.0308C522.256 59.9554 522.421 59.8449 522.561 59.7056C522.7 59.5663 522.81 59.401 522.886 59.219C522.961 59.037 523 58.8419 523 58.6449V46.6449C523 46.4479 522.961 46.2529 522.886 46.0709C522.81 45.8889 522.7 45.7235 522.561 45.5842C522.421 45.445 522.256 45.3345 522.074 45.2591C521.892 45.1837 521.697 45.1449 521.5 45.1449Z" fill="#9DAAB3"/>
    <path d="M87.8613 60.0746H104.5C104.898 60.0746 105.279 59.9166 105.561 59.6353C105.842 59.354 106 58.9724 106 58.5746V46.5746C106 46.1768 105.842 45.7953 105.561 45.514C105.279 45.2326 104.898 45.0746 104.5 45.0746H81.1831L62.8135 3.81631C62.6562 3.46309 62.3999 3.16303 62.0757 2.95244C61.7514 2.74186 61.373 2.62979 60.9864 2.62979H46.0136C45.627 2.62979 45.2486 2.74187 44.9243 2.95245C44.6001 3.16303 44.3438 3.46309 44.1865 3.81631L25.8174 45.0746H2.5C2.10218 45.0746 1.72064 45.2326 1.43934 45.514C1.15804 45.7953 1 46.1768 1 46.5746V58.5746C1 58.9724 1.15804 59.354 1.43934 59.6353C1.72064 59.9166 2.10218 60.0746 2.5 60.0746H19.1387L1.13153 100.52C1.02984 100.748 0.986846 100.998 1.00646 101.247C1.02608 101.497 1.10769 101.737 1.24387 101.947C1.38004 102.156 1.56647 102.329 1.78619 102.448C2.00592 102.567 2.25198 102.63 2.502 102.63H15.8931C16.2797 102.63 16.6581 102.518 16.9824 102.307C17.3067 102.097 17.563 101.796 17.7202 101.443L53.5 21.0805L89.2798 101.443C89.437 101.796 89.6933 102.097 90.0176 102.307C90.3419 102.518 90.7203 102.63 91.1069 102.63H104.498C104.748 102.63 104.994 102.567 105.214 102.448C105.434 102.329 105.62 102.156 105.756 101.947C105.892 101.737 105.974 101.497 105.994 101.247C106.013 100.998 105.97 100.748 105.869 100.52L87.8613 60.0746Z" fill="#9DAAB3"/>
    <path d="M428.276 24.7672C425.501 18.2036 420.853 12.6033 414.913 8.66611C408.973 4.72894 402.005 2.62946 394.878 2.63L352.628 2.62976C352.231 2.62982 351.849 2.78788 351.568 3.06917C351.287 3.35046 351.128 3.73195 351.128 4.12976V16.1298C351.128 16.5276 351.286 16.9091 351.568 17.1904C351.849 17.4717 352.231 17.6297 352.628 17.6298H394.878C397.669 17.6289 400.433 18.1779 403.011 19.2455C405.59 20.3131 407.933 21.8783 409.906 23.8518C411.88 25.8252 413.445 28.1681 414.513 30.7467C415.58 33.3253 416.129 36.0889 416.128 38.8798C416.129 41.6706 415.58 44.4345 414.513 47.0131C413.445 49.5917 411.88 51.9346 409.906 53.908C407.933 55.8815 405.59 57.4467 403.012 58.5143C400.433 59.5819 397.669 60.1309 394.878 60.13L352.628 60.1298C352.231 60.1298 351.849 60.2879 351.568 60.5692C351.287 60.8505 351.128 61.232 351.128 61.6298V101.13C351.128 101.528 351.286 101.909 351.568 102.19C351.849 102.472 352.231 102.63 352.628 102.63H364.628C364.825 102.63 365.02 102.591 365.202 102.516C365.384 102.44 365.55 102.33 365.689 102.19C365.828 102.051 365.939 101.886 366.014 101.704C366.09 101.522 366.128 101.327 366.128 101.13V75.13L394.878 75.1298C399.639 75.1307 404.353 74.1938 408.752 72.3724C413.15 70.551 417.147 67.8809 420.513 64.5146C423.879 61.1483 426.549 57.1518 428.371 52.7533C430.192 48.3549 431.129 43.6407 431.128 38.88C431.133 34.0322 430.163 29.2327 428.276 24.7672Z" fill="#9DAAB3"/>
    <path d="M952.887 59.1532C956.933 53.1672 959.091 46.1054 959.082 38.8803C959.083 34.1196 958.147 29.4049 956.326 25.0064C954.504 20.608 951.834 16.6114 948.468 13.2451C945.101 9.87886 941.105 7.20879 936.706 5.38746C932.308 3.56613 927.594 2.62923 922.833 2.63028L880.583 2.62979C880.185 2.62989 879.804 2.78796 879.522 3.06925C879.241 3.35053 879.083 3.732 879.083 4.12979V16.1298C879.083 16.5276 879.241 16.9091 879.522 17.1904C879.804 17.4717 880.185 17.6298 880.583 17.6298H922.833C925.624 17.629 928.387 18.178 930.966 19.2456C933.544 20.3133 935.887 21.8785 937.861 23.8519C939.834 25.8253 941.399 28.1682 942.467 30.7468C943.535 33.3253 944.084 36.089 944.083 38.8798C944.084 41.6706 943.535 44.4348 942.467 47.0133C941.399 49.5918 939.834 51.9348 937.861 53.9082C935.887 55.8816 933.544 57.4468 930.966 58.5144C928.387 59.582 925.624 60.1311 922.833 60.1303L880.583 60.1298C880.185 60.1299 879.804 60.288 879.522 60.5692C879.241 60.8505 879.083 61.232 879.083 61.6298V101.13C879.083 101.528 879.241 101.909 879.522 102.19C879.804 102.472 880.185 102.63 880.583 102.63H892.583C892.78 102.63 892.975 102.591 893.157 102.516C893.339 102.44 893.504 102.33 893.644 102.191C893.783 102.051 893.893 101.886 893.969 101.704C894.044 101.522 894.083 101.327 894.083 101.13V75.1303L922.833 75.1298C925.343 75.13 927.846 74.87 930.302 74.3539L942.495 101.74C942.613 102.005 942.805 102.23 943.048 102.388C943.291 102.546 943.575 102.63 943.865 102.63H957.581C957.831 102.63 958.077 102.567 958.297 102.448C958.517 102.329 958.703 102.157 958.839 101.947C958.976 101.737 959.057 101.497 959.077 101.248C959.096 100.998 959.053 100.748 958.952 100.52L944.453 67.9547C947.739 65.5158 950.591 62.5403 952.887 59.1532Z" fill="#9DAAB3"/>
    <path d="M734.447 2.62979H662.447C662.05 2.62979 661.668 2.78783 661.387 3.06913C661.105 3.35044 660.947 3.73197 660.947 4.12979V16.1298C660.947 16.5276 661.105 16.9091 661.387 17.1905C661.668 17.4718 662.05 17.6298 662.447 17.6298H713.655L693.737 43.0467C693.586 43.2386 693.493 43.4689 693.467 43.7113C693.441 43.9538 693.484 44.1986 693.591 44.4178C693.698 44.637 693.864 44.8217 694.07 44.951C694.277 45.0803 694.516 45.1488 694.76 45.1488H709.896C710.351 45.1488 710.8 45.0453 711.209 44.8462C711.618 44.6471 711.976 44.3575 712.257 43.9994L735.309 14.584C735.722 14.0559 735.947 13.4043 735.947 12.7333V4.12979C735.947 3.73197 735.789 3.35044 735.508 3.06913C735.227 2.78783 734.845 2.62979 734.447 2.62979Z" fill="#9DAAB3"/>
    <path d="M734.447 87.6298H678.066L697.954 62.2508C698.104 62.0589 698.198 61.8286 698.224 61.5862C698.249 61.3438 698.206 61.099 698.1 60.8798C697.993 60.6606 697.827 60.4758 697.62 60.3466C697.413 60.2173 697.175 60.1488 696.931 60.1488H681.795C681.34 60.1488 680.891 60.2523 680.482 60.4515C680.073 60.6506 679.714 60.9403 679.433 61.2984L656.586 90.4539C656.172 90.982 655.947 91.6335 655.947 92.3044V101.13C655.947 101.528 656.105 101.909 656.387 102.19C656.668 102.472 657.05 102.63 657.447 102.63H734.447C734.845 102.63 735.227 102.472 735.508 102.19C735.789 101.909 735.947 101.528 735.947 101.13V89.1298C735.947 88.732 735.789 88.3504 735.508 88.0691C735.227 87.7878 734.845 87.6298 734.447 87.6298Z" fill="#9DAAB3"/>
    <path d="M1067.33 60.0379C1066.97 60.04 1066.63 60.1661 1066.36 60.3943C1066.09 60.6224 1065.91 60.9381 1065.85 61.2861C1065.43 63.6271 1064.8 65.9262 1063.97 68.1563C1061.74 74.3707 1057.64 79.7438 1052.24 83.54C1046.91 87.1673 1040.59 89.0728 1034.14 89C1029.79 89.0252 1025.49 88.1806 1021.47 86.5159C1015.61 84.0421 1010.66 79.7888 1007.34 74.3557C1004.9 70.344 1003.24 65.9102 1002.44 61.2848C1002.38 60.9374 1002.2 60.6222 1001.93 60.3943C1001.66 60.1664 1001.32 60.0402 1000.96 60.0378H988.792C988.578 60.0372 988.366 60.0825 988.17 60.1706C987.975 60.2587 987.801 60.3877 987.66 60.5488C987.518 60.7098 987.413 60.8993 987.351 61.1044C987.289 61.3095 987.272 61.5255 987.301 61.7378C987.863 65.7292 988.855 69.6482 990.259 73.4266C993.478 82.4579 999.436 90.2588 1007.3 95.7399C1015.17 101.221 1024.55 104.109 1034.14 104C1040.48 104.025 1046.76 102.782 1052.61 100.345C1061.35 96.6637 1068.71 90.3448 1073.68 82.272C1077.5 76.0059 1079.99 69.0146 1080.98 61.7394C1081.01 61.5269 1080.99 61.3108 1080.93 61.1055C1080.87 60.9003 1080.76 60.7106 1080.62 60.5494C1080.48 60.3882 1080.3 60.2591 1080.11 60.1709C1079.91 60.0827 1079.7 60.0373 1079.49 60.0379L1067.33 60.0379Z" fill="#9DAAB3"/>
    <path d="M1000.93 45.0379C1001.29 45.0357 1001.63 44.9093 1001.9 44.6806C1002.17 44.4519 1002.35 44.1356 1002.41 43.787C1002.83 41.4207 1003.47 39.0969 1004.3 36.8435C1006.53 30.6291 1010.63 25.2559 1016.03 21.4597C1021.37 17.8324 1027.69 15.9269 1034.14 15.9997C1038.48 15.9746 1042.79 16.8192 1046.8 18.4836C1052.67 20.9575 1057.61 25.2108 1060.94 30.6438C1063.39 34.6773 1065.05 39.1367 1065.85 43.7884C1065.91 44.1364 1066.09 44.4522 1066.36 44.6806C1066.63 44.909 1066.97 45.0354 1067.33 45.0378H1079.49C1079.71 45.0384 1079.92 44.9932 1080.11 44.9052C1080.31 44.8172 1080.48 44.6884 1080.63 44.5275C1080.77 44.3667 1080.87 44.1774 1080.93 43.9725C1081 43.7676 1081.01 43.5518 1080.98 43.3396C1080.42 39.3214 1079.43 35.3761 1078.02 31.573C1074.8 22.5417 1068.84 14.7409 1060.97 9.25982C1053.11 3.77876 1043.72 0.891082 1034.14 1.00001C1027.8 0.974927 1021.52 2.21761 1015.66 4.65501C1006.93 8.33597 999.564 14.6548 994.598 22.7275C990.758 29.0166 988.268 36.0353 987.286 43.3381C987.258 43.5505 987.275 43.7664 987.337 43.9715C987.399 44.1766 987.504 44.366 987.646 44.527C987.787 44.688 987.961 44.8169 988.156 44.905C988.352 44.9931 988.564 45.0384 988.778 45.0378L1000.93 45.0379Z" fill="#9DAAB3"/>
</svg>
    