<svg width="200" height="56" viewBox="0 0 200 56" fill="none" xmlns="http://www.w3.org/2000/svg">
<path d="M25.3906 20.7467V35.8913C25.3906 36.8196 25.9306 37.748 26.7073 38.2091L39.8435 45.7814C40.693 46.2425 41.7002 46.2425 42.5497 45.7814L55.6859 38.2091C56.5354 37.748 57.0026 36.8196 57.0026 35.8913V20.7467C57.0026 19.8184 56.4625 18.89 55.6859 18.4289L42.5436 10.8566C41.6941 10.3955 40.6869 10.3955 39.8375 10.8566L26.7012 18.4289C25.8518 18.89 25.3906 19.8184 25.3906 20.7467Z" fill="#9DAAB3"/>
<path d="M44.0955 31.255L42.2388 36.3578C42.16 36.5095 42.16 36.6673 42.2388 36.819L45.485 45.6291L49.1923 43.4629L44.7083 31.255C44.6355 30.9456 44.2472 30.9456 44.0955 31.255Z" fill="#2D2E33"/>
<path d="M47.8003 22.6027C47.7215 22.2932 47.3392 22.2932 47.1815 22.6027L45.3248 27.7055C45.2459 27.8572 45.2459 28.0149 45.3248 28.1666L50.5793 42.6195L54.2866 40.4534L47.8003 22.6027Z" fill="#2D2E33"/>
<path d="M41.153 11.3967C41.2318 11.3967 41.3047 11.3967 41.3835 11.4756L55.5998 19.6668C55.7515 19.7456 55.8304 19.8973 55.8304 20.1279V36.5103C55.8304 36.662 55.7515 36.8986 55.5998 36.9714L41.3835 45.1626C41.3047 45.2415 41.2318 45.2415 41.153 45.2415C41.0741 45.2415 41.0013 45.2415 40.9224 45.1626L26.7061 36.9714C26.5544 36.8925 26.4756 36.7408 26.4756 36.5103V20.1279C26.4756 19.9762 26.5544 19.7396 26.7061 19.6668L40.9224 11.4756C40.9952 11.3967 41.0741 11.3967 41.153 11.3967ZM41.153 9C40.613 9 40.1458 9.15169 39.6846 9.38832L25.4683 17.5795C24.54 18.1195 24 19.0479 24 20.1279V36.5103C24 37.5175 24.54 38.5186 25.4683 39.0586L39.6846 47.2498C40.1458 47.4804 40.613 47.6382 41.153 47.6382C41.693 47.6382 42.1602 47.4865 42.6213 47.2498L56.8376 39.0586C57.7659 38.5186 58.3059 37.5903 58.3059 36.5103V20.1279C58.3059 19.1207 57.7659 18.1195 56.8376 17.5795L42.6941 9.38832C42.233 9.15776 41.7658 9 41.2258 9H41.153Z" fill="#C5D5E0"/>
<path d="M31.8047 42.6142L33.1153 39.0586L35.7425 41.2247L33.273 43.5425L31.8047 42.6142Z" fill="#9DAAB3"/>
<path d="M39.993 18.9688H36.3585C36.1279 18.9688 35.8185 19.1204 35.7396 19.3571L28.0156 40.5268L31.7229 42.6929L40.2235 19.4299C40.3024 19.1993 40.1447 18.9688 39.9141 18.9688H39.993Z" fill="#2D2E33"/>
<path d="M46.2488 18.9688H42.6143C42.3837 18.9688 42.0743 19.1205 41.9954 19.3571L33.1914 43.4635L36.8987 45.6296L46.4793 19.3571C46.5582 19.1266 46.4005 18.896 46.1699 18.896L46.2488 18.9688Z" fill="#2D2E33"/>
<path d="M73.6126 23.3745C74.0009 23.3745 74.3103 23.4534 74.5409 23.6051C74.7715 23.7568 75.002 24.0662 75.2387 24.4545L79.9532 32.9552C80.032 33.0341 80.032 33.1069 79.9532 33.1857C79.9532 33.2646 79.8743 33.2646 79.7226 33.2646H77.9448C77.7931 33.2646 77.7142 33.1857 77.6354 33.1129L76.6221 31.2563H69.9781L68.9709 33.1129C68.892 33.2646 68.8192 33.2646 68.6615 33.2646H66.8048C66.6531 33.2646 66.5742 33.2646 66.5742 33.1857C66.5742 33.1069 66.5742 33.0341 66.5742 32.9552L71.2098 24.4545C71.4404 23.9934 71.671 23.7568 71.9076 23.6051C72.1442 23.4534 72.3687 23.3745 72.6782 23.3745H73.5276H73.6126ZM70.8276 29.6362H75.6937L73.4548 25.4617C73.3759 25.3829 73.3759 25.3829 73.3031 25.3829H73.2243C73.1454 25.3829 73.0726 25.3829 73.0726 25.4617L70.8276 29.6362Z" fill="#9DAAB3"/>
<path d="M90.2283 23.3745C91.3084 23.3745 92.085 23.6051 92.5461 24.1451C93.0073 24.6062 93.2439 25.3829 93.2439 26.3112V27.0818C93.2439 27.9312 93.0922 28.5501 92.7828 29.0113C92.4733 29.4724 91.9333 29.7818 91.1627 29.9396L93.5594 32.9552C93.6383 33.0341 93.6383 33.1069 93.6383 33.1857C93.6383 33.2646 93.5594 33.3374 93.4077 33.3374H91.5511C91.3994 33.3374 91.3205 33.3374 91.3205 33.2586C91.2416 33.2586 91.2416 33.1797 91.1688 33.1069L88.9299 30.1702H84.3731V33.028C84.3731 33.2586 84.2943 33.3374 84.0637 33.3374H82.5165C82.2859 33.3374 82.207 33.2586 82.207 33.028V23.8356C82.207 23.5262 82.3587 23.3745 82.6682 23.3745H90.3193H90.2283ZM84.3549 28.4713H89.7611C90.2223 28.4713 90.6106 28.3924 90.7683 28.1618C90.9989 27.9312 91.0778 27.6218 91.0778 27.2335V26.6146C91.0778 26.1534 90.9989 25.844 90.7683 25.6862C90.5378 25.4557 90.2283 25.3768 89.7611 25.3768H84.5066C84.3549 25.3768 84.3549 25.4557 84.3549 25.5285V28.4713Z" fill="#9DAAB3"/>
<path d="M105.138 23.3745C106.145 23.3745 106.837 23.6051 107.225 23.9934C107.613 24.3817 107.844 25.0006 107.844 25.7712V26.469C107.844 27.2395 107.534 27.8584 106.915 28.2468C107.534 28.6351 107.923 29.254 107.923 30.1034V30.9529C107.923 31.3412 107.844 31.6507 107.771 31.9601C107.698 32.2695 107.54 32.5001 107.383 32.7307C107.152 32.9612 106.922 33.119 106.612 33.1918C106.303 33.2707 105.914 33.3435 105.453 33.3435H97.0314C96.722 33.3435 96.5703 33.1918 96.5703 32.8824V23.8417C96.5703 23.5323 96.722 23.3806 97.0314 23.3806H105.223H105.138V23.3745ZM98.7243 27.4701H104.519C104.98 27.4701 105.289 27.3912 105.447 27.2395C105.605 27.0879 105.678 26.9301 105.678 26.6207V26.1595C105.678 25.8501 105.599 25.6195 105.447 25.5406C105.295 25.3889 104.986 25.3101 104.677 25.3101H98.882C98.7304 25.3101 98.7304 25.3889 98.7304 25.4617V27.4701H98.7243ZM98.7243 29.0173V31.1046C98.7243 31.2563 98.8032 31.2563 98.876 31.2563H104.67C105.059 31.2563 105.289 31.1774 105.441 31.0257C105.593 30.874 105.672 30.6374 105.672 30.4068V29.8668C105.672 29.5573 105.593 29.3268 105.441 29.169C105.289 29.0113 104.98 28.9385 104.434 28.9385H98.6454L98.7243 29.0173Z" fill="#9DAAB3"/>
<path d="M113.173 23.3745C113.404 23.3745 113.483 23.4534 113.483 23.684V32.9552C113.483 33.1857 113.404 33.2646 113.173 33.2646H111.626C111.395 33.2646 111.316 33.1857 111.316 32.9552V23.684C111.316 23.4534 111.395 23.3745 111.626 23.3745H113.173Z" fill="#9DAAB3"/>
<path d="M128.088 23.3745C128.318 23.3745 128.397 23.4534 128.397 23.684V25.0734C128.397 25.304 128.318 25.3829 128.088 25.3829H123.604V32.9552C123.604 33.1857 123.525 33.2646 123.295 33.2646H121.747C121.517 33.2646 121.438 33.1857 121.438 32.9552V25.3829H116.954C116.723 25.3829 116.645 25.304 116.645 25.0734V23.684C116.645 23.4534 116.723 23.3745 116.954 23.3745H128.003H128.088Z" fill="#9DAAB3"/>
<path d="M139.295 23.3745C140.375 23.3745 141.151 23.6051 141.613 24.1451C142.074 24.6062 142.31 25.3829 142.31 26.3112V27.0818C142.31 27.9312 142.159 28.5501 141.849 29.0113C141.54 29.4724 141 29.7818 140.229 29.9396L142.626 32.9552C142.705 33.0341 142.705 33.1069 142.705 33.1857C142.705 33.2646 142.626 33.3374 142.474 33.3374H140.617C140.466 33.3374 140.387 33.3374 140.387 33.2586C140.308 33.2586 140.308 33.1797 140.235 33.1069L137.996 30.1702H133.44V33.028C133.44 33.2586 133.361 33.3374 133.13 33.3374H131.583C131.352 33.3374 131.273 33.2586 131.273 33.028V23.8356C131.273 23.5262 131.425 23.3745 131.735 23.3745H139.386H139.295ZM133.421 28.4713H138.828C139.289 28.4713 139.677 28.3924 139.835 28.1618C140.065 27.9312 140.144 27.6218 140.144 27.2335V26.6146C140.144 26.1534 140.065 25.844 139.835 25.6862C139.604 25.4557 139.295 25.3768 138.828 25.3768H133.573C133.421 25.3768 133.421 25.4557 133.421 25.5285V28.4713Z" fill="#9DAAB3"/>
<path d="M147.254 23.3745C147.485 23.3745 147.564 23.4534 147.564 23.684V29.3268C147.564 29.7151 147.564 30.0245 147.643 30.2551C147.722 30.4857 147.794 30.7162 147.952 30.874C148.11 31.0318 148.262 31.1046 148.492 31.1834C148.723 31.2623 149.032 31.2623 149.421 31.2623H153.364C153.753 31.2623 154.062 31.2623 154.293 31.1834C154.523 31.1046 154.754 31.0318 154.833 30.874C154.985 30.7223 155.063 30.4857 155.142 30.2551C155.221 30.0245 155.221 29.7151 155.221 29.3268V23.684C155.221 23.4534 155.3 23.3745 155.531 23.3745H157.078C157.308 23.3745 157.387 23.4534 157.387 23.684V29.5573C157.387 30.2551 157.308 30.7951 157.157 31.2563C157.005 31.7174 156.768 32.1057 156.459 32.4152C156.149 32.7246 155.761 32.9552 155.221 33.0341C154.681 33.1857 154.141 33.2646 153.364 33.2646H149.269C148.571 33.2646 147.952 33.1857 147.412 33.0341C146.951 32.8824 146.484 32.6457 146.174 32.4152C145.865 32.1057 145.634 31.7174 145.477 31.2563C145.325 30.7951 145.246 30.1762 145.246 29.5573V23.684C145.246 23.4534 145.325 23.3745 145.556 23.3745H147.103H147.254Z" fill="#9DAAB3"/>
<path d="M163.48 23.3745C163.71 23.3745 163.868 23.3745 164.02 23.4534C164.171 23.4534 164.329 23.5323 164.408 23.6051C164.487 23.684 164.638 23.7568 164.717 23.9145C164.796 24.0662 164.869 24.224 165.027 24.4545L167.963 31.2563C168.042 31.3351 168.042 31.4079 168.194 31.4079H168.346C168.425 31.4079 168.497 31.3291 168.576 31.2563L171.513 24.4545C171.592 24.224 171.665 24.0662 171.822 23.9145C171.901 23.7628 171.974 23.684 172.132 23.6051C172.211 23.5262 172.362 23.4534 172.52 23.4534C172.678 23.4534 172.83 23.3745 173.06 23.3745H174.607C175.069 23.3745 175.457 23.4534 175.615 23.684C175.766 23.9145 175.845 24.3028 175.845 24.8429V32.9552C175.845 33.1857 175.766 33.2646 175.536 33.2646H174.067C173.837 33.2646 173.758 33.1857 173.758 32.9552V25.5406C173.758 25.4617 173.679 25.3889 173.679 25.3889H173.527C173.449 25.3889 173.376 25.4678 173.376 25.4678L170.518 31.8023C170.439 32.0329 170.287 32.2635 170.13 32.4212C169.972 32.579 169.899 32.7307 169.741 32.8824C169.59 32.9612 169.432 33.1129 169.28 33.1129C169.128 33.1918 168.892 33.1918 168.661 33.1918H167.963C167.733 33.1918 167.502 33.1918 167.345 33.1129C167.187 33.0341 167.035 32.9612 166.883 32.8824C166.732 32.8035 166.653 32.6518 166.495 32.4212C166.343 32.2695 166.265 32.0329 166.107 31.8023L163.249 25.4678C163.249 25.3889 163.17 25.3889 163.097 25.3889H162.946C162.867 25.3889 162.867 25.4678 162.867 25.5406V32.9612C162.867 33.1918 162.788 33.2707 162.557 33.2707H161.083C160.852 33.2707 160.773 33.1918 160.773 32.9612V24.8429C160.773 24.3028 160.852 23.9145 161.004 23.684C161.156 23.4534 161.544 23.3745 162.011 23.3745H163.558H163.48Z" fill="#9DAAB3"/>
</svg>
