<svg width="200" height="56" viewBox="0 0 200 56" fill="none" xmlns="http://www.w3.org/2000/svg">
<path d="M64.6484 17.6446C64.7833 17.6296 64.9032 17.6146 65.038 17.5996C67.4804 17.6146 69.9229 17.5996 72.3653 17.6595C73.7138 17.6895 75.0175 18.0341 76.1712 18.7834C79.0332 20.6564 78.8834 25.0767 75.9165 26.7849C75.497 27.0246 75.0474 27.2194 74.538 27.4742C74.7627 27.5491 74.9276 27.594 75.0774 27.639C77.4149 28.2683 78.6286 29.5719 78.8534 31.6248C79.0932 33.8724 78.0143 35.9252 76.0364 36.9741C74.9725 37.5435 73.8038 37.8432 72.605 37.8731C69.9678 37.9181 67.3306 37.8881 64.6484 37.8881V17.6446ZM67.3606 35.7154C68.9039 35.7154 70.4024 35.7304 71.8858 35.7005C72.4851 35.7005 73.0695 35.6105 73.6539 35.4607C74.9126 35.1161 75.7966 34.3519 76.0813 33.0333C76.3511 31.7896 76.2162 30.6208 75.2272 29.6918C74.508 29.0175 73.6239 28.7328 72.6799 28.7029C70.9568 28.6279 69.2336 28.6429 67.5254 28.6279C67.4804 28.6279 67.4355 28.6579 67.3606 28.7029V35.7154ZM67.3756 19.7423V26.6051C69.0388 26.6051 70.6571 26.71 72.2604 26.5751C74.2233 26.4253 75.3771 25.2265 75.467 23.3835C75.5419 21.8251 75.0474 20.5365 73.2943 20.057C71.3613 19.5326 69.3684 19.8322 67.3756 19.7423Z" fill="#9DAAB3"/>
<path d="M148.993 30.7105C149.038 32.2538 149.307 33.6474 150.311 34.7862C151.42 36.0448 152.903 36.3145 154.462 36.0298C155.346 35.865 156.185 35.4605 156.994 35.0559C157.878 34.6213 157.953 34.5914 158.552 35.3705C158.672 35.5204 158.777 35.6852 158.957 35.91C158.567 36.2396 158.223 36.6142 157.803 36.854C155.271 38.2625 152.664 38.5921 149.997 37.2585C148.109 36.3145 147.135 34.6513 146.745 32.6584C146.25 30.1111 146.445 27.6837 148.138 25.5559C150.596 22.4992 155.96 22.6041 158.058 25.7507C158.927 27.0543 159.182 28.5378 159.122 30.0811C159.107 30.5906 158.792 30.7105 158.343 30.7105C155.436 30.6955 152.544 30.7105 149.637 30.7105H148.993ZM156.859 29.1371C156.979 26.8296 155.526 25.2263 153.308 25.1813C150.671 25.1214 149.292 27.0094 149.157 29.1371H156.859Z" fill="#9DAAB3"/>
<path d="M112.328 29.8118C112.223 28.9127 112.223 27.9687 111.968 27.0997C111.564 25.6762 110.26 25.0319 108.582 25.4065C107.877 25.5563 107.218 25.9309 106.544 26.2306C106.274 26.3505 106.049 26.5602 105.78 26.7101C105.285 26.9798 104.866 26.8599 104.551 26.3804C104.041 25.6162 104.041 25.5863 104.761 25.0019C106.439 23.6533 108.372 23.1439 110.485 23.3686C112.672 23.5934 114.231 25.1667 114.575 27.4143C114.65 27.8788 114.68 28.3583 114.68 28.8378C114.695 31.6548 114.68 34.4569 114.68 37.2739V37.9931C114.051 37.9032 113.332 37.9782 112.957 37.6635C112.582 37.3488 112.552 36.6296 112.358 36.0452C112.073 36.27 111.788 36.5247 111.489 36.7495C109.661 38.128 107.638 38.5925 105.495 37.7234C103.097 36.7644 102.663 33.423 104.656 31.8047C105.944 30.7558 107.488 30.3512 109.076 30.1265C110.095 29.9467 111.129 29.9167 112.328 29.8118ZM112.238 31.4301C111.444 31.475 110.724 31.49 110.02 31.5799C108.881 31.7148 107.758 31.9246 106.784 32.5539C105.959 33.0783 105.675 33.8875 105.914 34.8315C106.139 35.7156 106.784 36.24 107.728 36.3299C109.466 36.4947 110.874 35.8504 112.058 34.6217C112.163 34.5318 112.223 34.3969 112.238 34.2621C112.238 33.3481 112.238 32.434 112.238 31.4301Z" fill="#9DAAB3"/>
<path d="M93.0135 37.8582C92.9835 37.8732 92.9685 37.8732 92.9385 37.8882C91.2753 37.9781 91.2753 37.9781 90.8707 36.3598C90.8408 36.2699 90.8258 36.165 90.7958 36.0002C90.4362 36.2849 90.1365 36.5546 89.8218 36.7794C87.9938 38.1129 86.0009 38.5775 83.8581 37.7084C81.4906 36.7494 81.0411 33.4679 83.019 31.8196C84.1279 30.8906 85.4764 30.456 86.87 30.2163C88.0987 30.0215 89.3423 29.9316 90.631 29.7967C90.6609 28.8827 90.6759 27.9237 90.3463 26.9947C89.9717 25.9458 89.1925 25.4513 88.1136 25.3465C87.0048 25.2416 85.9859 25.5413 85.0569 26.1406L84.8771 26.2605C83.4985 27.1446 83.2887 27.0996 82.5096 25.5862C83.6334 24.4774 84.952 23.7282 86.5253 23.4585C87.8439 23.2337 89.1625 23.1887 90.4062 23.7881C92.1893 24.6272 92.9835 26.1856 93.0434 28.0436C93.1333 31.2802 93.0734 34.5168 93.0734 37.7533C93.0584 37.7833 93.0284 37.8133 93.0135 37.8582ZM90.631 31.46C90.2714 31.46 89.9867 31.445 89.687 31.46C88.2335 31.5349 86.7801 31.6698 85.4465 32.359C84.4126 32.8985 84.023 33.7226 84.2477 34.7415C84.4875 35.7604 85.2067 36.2849 86.3755 36.3448C87.9938 36.4197 89.3124 35.7604 90.4062 34.6216C90.5261 34.5018 90.601 34.3369 90.616 34.1721C90.631 33.303 90.631 32.419 90.631 31.46Z" fill="#9DAAB3"/>
<path d="M120.897 25.5561C121.451 25.1065 121.916 24.702 122.41 24.3423C123.834 23.3234 125.407 23.1136 127.085 23.4882C128.973 23.9228 130.337 25.6759 130.397 27.9385C130.487 31.1751 130.442 34.4117 130.442 37.6483C130.427 37.7232 130.427 37.7981 130.397 37.873H127.954V37.2437C127.954 34.5765 127.954 31.8944 127.954 29.2272C127.954 28.7926 127.924 28.3431 127.879 27.9086C127.655 26.0805 126.231 25.0616 124.328 25.3613C123.054 25.5561 122.051 26.2453 121.196 27.1594C121.062 27.2942 121.032 27.5789 121.032 27.7887C121.017 30.9204 121.032 34.0521 121.032 37.1838V37.858H118.574V23.5632C119.099 23.5632 119.608 23.5482 120.103 23.5632C120.477 23.5782 120.657 23.8329 120.702 24.1775L120.897 25.5561Z" fill="#9DAAB3"/>
<path d="M144.858 35.9099C144.139 36.7939 143.15 37.4383 142.041 37.723C139.734 38.3673 137.546 38.2624 135.628 36.6441C134.37 35.5952 133.74 34.1867 133.456 32.5984C133.096 30.6355 133.216 28.7025 134.085 26.8894C135.164 24.6118 137.052 23.503 139.524 23.3382C141.487 23.2183 143.24 23.7278 144.664 25.1363C144.664 25.1962 144.679 25.2412 144.664 25.2562C143.765 26.5298 143.81 26.6796 142.431 25.8555C140.408 24.6718 136.902 24.9864 136.093 28.6576C135.763 30.126 135.763 31.5945 136.168 33.0329C137.007 35.9698 140.109 37.1236 142.611 35.3705C143.81 34.5313 143.87 34.4115 144.858 35.9099Z" fill="#9DAAB3"/>
<path d="M99.6651 37.8725H97.2227V17.0596H99.6651V37.8725Z" fill="#9DAAB3"/>
<path d="M162.429 23.5481C162.894 23.5481 163.313 23.5481 163.733 23.5481C164.317 23.5631 164.527 23.7429 164.572 24.3273C164.632 24.9716 164.662 25.6159 164.722 26.44C164.886 26.1703 164.976 26.0205 165.066 25.8706C165.8 24.6719 166.729 23.6829 168.183 23.3832C169.022 23.2184 169.861 23.2334 170.67 23.593C170.955 23.7129 171.075 23.8777 171 24.2074C170.91 24.597 170.865 25.0015 170.79 25.4061C170.67 26.0055 170.52 26.0654 169.921 25.9755C169.232 25.8706 168.513 25.7657 167.838 25.8556C166.22 26.0954 164.856 27.8036 164.856 29.4518V37.8579H162.414L162.429 23.5481Z" fill="#9DAAB3"/>
<path fill-rule="evenodd" clip-rule="evenodd" d="M48.6292 30.7554C53.529 31.4746 56.9604 33.1229 56.9604 35.0259C56.9604 37.6031 50.697 39.7009 42.9802 39.7009C35.2634 39.7009 29 37.6031 29 35.0259C29 33.1229 32.4164 31.4746 37.3312 30.7554C39.1892 31.115 41.0922 31.2948 42.9802 31.2948C44.8382 31.3098 46.6813 31.13 48.5094 30.7853L48.6292 30.7554Z" fill="#9DAAB3"/>
<path fill-rule="evenodd" clip-rule="evenodd" d="M46.5022 23.084C50.9525 23.5785 54.1441 24.972 54.1441 26.6352C54.1441 28.703 49.1394 30.3663 42.951 30.3663C36.7625 30.3663 31.7578 28.6881 31.7578 26.6352C31.7578 24.987 34.9644 23.5785 39.3997 23.084C40.5685 23.2638 41.7522 23.3687 42.936 23.3537C44.0748 23.3537 45.2286 23.2638 46.3674 23.099L46.5022 23.084Z" fill="#9DAAB3"/>
<path d="M42.9692 22.6041C47.6035 22.6041 51.3604 21.3496 51.3604 19.802C51.3604 18.2545 47.6035 17 42.9692 17C38.335 17 34.5781 18.2545 34.5781 19.802C34.5781 21.3496 38.335 22.6041 42.9692 22.6041Z" fill="#9DAAB3"/>
</svg>
