<svg width="200" height="56" viewBox="0 0 200 56" fill="none" xmlns="http://www.w3.org/2000/svg">
<path d="M79.8398 39.6284V17.2088H87.173C89.6048 17.2088 91.436 17.7128 92.6624 18.7208C93.8888 19.7246 94.502 21.2156 94.502 23.1938C94.502 24.2396 94.208 25.172 93.6074 25.9742C93.0152 26.7848 92.2046 27.4106 91.1756 27.8516C92.3894 28.1876 93.347 28.8344 94.0526 29.7794C94.7582 30.7328 95.1026 31.8626 95.1026 33.1688C95.1026 35.1806 94.4516 36.7598 93.1454 37.9064C91.8434 39.0572 90.0038 39.6284 87.6224 39.6284H79.8398ZM82.8008 29.1914V37.2008H87.677C89.0546 37.2008 90.1424 36.848 90.9362 36.1382C91.73 35.4284 92.129 34.4498 92.129 33.2108C92.129 30.5312 90.6632 29.1914 87.7232 29.1914H82.8008ZM82.8008 26.7638H87.2612C88.5548 26.7638 89.588 26.4362 90.3692 25.7894C91.142 25.1426 91.5326 24.269 91.5326 23.1602C91.5326 21.9254 91.1714 21.0308 90.4532 20.4722C89.735 19.9094 88.6388 19.6322 87.173 19.6322H82.8008V26.7638ZM111.848 33.7652H102.448L100.34 39.6326H97.2908L105.855 17.2088H108.442L117.018 39.6326H113.986L111.848 33.7652ZM103.347 31.3376H110.974L107.152 20.8586L103.347 31.3376ZM126.645 29.6366C124.112 28.9058 122.268 28.007 121.109 26.9444C119.954 25.8818 119.374 24.5672 119.374 23.009C119.374 21.245 120.084 19.7834 121.491 18.6242C122.907 17.4692 124.738 16.8896 126.993 16.8896C128.535 16.8896 129.912 17.1878 131.113 17.7842C132.323 18.3764 133.251 19.1996 133.915 20.2496C134.578 21.2954 134.91 22.442 134.91 23.681H131.941C131.941 22.3244 131.508 21.2576 130.647 20.4806C129.786 19.7078 128.564 19.3172 126.993 19.3172C125.536 19.3172 124.402 19.6364 123.587 20.279C122.768 20.9258 122.361 21.812 122.361 22.9544C122.361 23.87 122.743 24.647 123.524 25.277C124.297 25.907 125.616 26.4866 127.48 27.0116C129.341 27.5366 130.803 28.1162 131.853 28.7462C132.903 29.3762 133.684 30.1112 134.192 30.9596C134.7 31.7996 134.952 32.795 134.952 33.9332C134.952 35.7518 134.242 37.2092 132.827 38.3012C131.407 39.3932 129.517 39.9392 127.144 39.9392C125.603 39.9392 124.162 39.6452 122.831 39.0572C121.5 38.465 120.471 37.6544 119.744 36.6296C119.017 35.6048 118.66 34.4372 118.66 33.1352H121.63C121.63 34.4876 122.13 35.5544 123.133 36.3356C124.133 37.1168 125.469 37.5116 127.144 37.5116C128.707 37.5116 129.9 37.1924 130.731 36.554C131.567 35.9198 131.983 35.0504 131.983 33.9584C131.983 32.858 131.592 32.0096 130.828 31.409C130.068 30.8168 128.669 30.2204 126.645 29.6366ZM151.429 29.2838H141.714V37.2008H153V39.6284H138.757V17.2088H152.848V19.6364H141.714V26.8562H151.429V29.2838Z" fill="#9DAAB3"/>
<path d="M61.3686 41.838C68.7774 41.838 74.7876 35.832 74.7876 28.419C74.7876 21.0102 68.7816 15 61.3686 15C54.342 15 48.5712 20.4096 48 27.2892H65.7324V29.5446H48C48.5712 36.4284 54.342 41.838 61.3686 41.838Z" fill="#9DAAB3"/>
</svg>
