<svg width="200" height="56" viewBox="0 0 200 56" fill="none" xmlns="http://www.w3.org/2000/svg">
<path d="M166.703 21.846L161.514 18.027H142.318L141.069 21.846H151.195L145.758 38.3322H149.947L155.365 21.846H166.703Z" fill="#9DAAB3"/>
<path d="M95.066 18.027L89.8584 21.846H109.497L110.765 18.027H95.066Z" fill="#9DAAB3"/>
<path d="M89.8584 21.8461L84.4207 38.3322H88.6096L93.2407 24.2849L89.8584 21.8461Z" fill="#9DAAB3"/>
<path d="M110.765 18.027L105.097 35.2126L107.076 35.0614L98.9476 28.9925H92.9136L104.962 38.3322H108.248L114.147 20.4658L110.765 18.027Z" fill="#9DAAB3"/>
<path d="M59.8053 27.9905L64.7437 25.5894L66.4347 20.4658L63.0527 18.027H40.455L35.2283 21.846H61.7845L60.3818 26.1566H49.7362L48.6985 29.2761H59.3441L56.3656 38.3322L61.3425 35.8933L63.1296 30.4672L59.7861 28.0472L59.8053 27.9905Z" fill="#9DAAB3"/>
<path d="M42.7417 34.4375L45.8163 25.0223L42.3959 22.5077L37.2844 38.3322H56.3657L57.634 34.4375H42.7417Z" fill="#9DAAB3"/>
<path d="M72.8528 20.1256L69.4708 17.6867L63.9943 34.2674L63.5139 35.7231L67.1073 38.3322H82.2879L83.5751 34.4375H68.1257L72.8528 20.1256Z" fill="#9DAAB3"/>
<path d="M118.836 26.2512L119.508 24.266L116.146 21.8461L114.224 27.6313L117.568 30.0324V30.0513H132.556L131.115 34.4375H112.034L110.765 38.3322H129.827L134.823 35.8933L137.283 28.4443L134.189 26.2133L118.836 26.2512Z" fill="#9DAAB3"/>
<path d="M121.334 18.027L116.146 21.846H138.993L140.261 18.027H121.334Z" fill="#9DAAB3"/>
</svg>
