<svg width="200" height="56" viewBox="0 0 200 56" fill="none" xmlns="http://www.w3.org/2000/svg">
<path d="M63 19.9835V28.9668H64.1796H65.3593V28.4224V27.8779L66.3211 28.3679C67.1741 28.8216 67.4463 28.8761 69.0796 28.8761C70.7492 28.8761 70.967 28.8398 71.8563 28.3498C73.8888 27.2246 75.0503 25.2646 75.0685 22.9779C75.0685 21.7802 74.9777 21.4353 74.4696 20.3828C73.8163 19.0761 72.8907 18.1505 71.5477 17.4972C70.8763 17.1524 70.4044 17.0798 69.0796 17.0798C67.4644 17.0798 67.2648 17.1343 65.5044 18.0417C65.4137 18.078 65.3593 16.5172 65.3593 14.5572V11.0002H64.1796H63V19.9835ZM71.0577 19.8928C72.0014 20.4916 72.8 21.8709 72.8 22.9053C72.8 24.2483 71.947 25.6638 70.7674 26.2627C70.1685 26.5713 69.7692 26.6257 68.7892 26.5713C67.7548 26.5168 67.4463 26.4261 66.8655 25.9542C65.4681 24.8472 64.9963 22.9779 65.7041 21.4353C66.3392 20.0561 67.4644 19.3665 69.0978 19.3483C70.0052 19.3483 70.3318 19.4391 71.0577 19.8928Z" fill="#9DAAB3"/>
<path d="M76.6094 20.6731C76.6094 23.4135 76.682 24.5931 76.8816 25.2827C77.5349 27.4968 79.5494 28.9668 81.9449 28.9668C82.8342 28.9668 83.4875 28.8398 84.0319 28.6038C84.9938 28.1683 84.9575 28.1683 84.9575 28.6038C84.9575 28.9305 85.0845 28.9668 86.1371 28.9668H87.3167V25.1738C87.3167 21.5442 87.3349 21.3809 87.7341 20.782C88.3875 19.8202 89.2223 19.3483 90.3112 19.3483C91.5089 19.3483 92.3438 19.8746 92.9063 20.9816C93.2875 21.7257 93.3056 22.0161 93.3056 25.3735V28.9668H94.5034H95.7012L95.6286 25.0105C95.5741 21.1268 95.5741 21.0542 95.066 20.0379C93.6686 17.2068 90.8012 16.2813 87.6434 17.6242C87.3893 17.715 87.3167 17.6605 87.3167 17.3702C87.3167 17.0254 87.2079 16.9891 86.1553 16.9891H84.9756L84.9212 20.8728C84.8667 25.2101 84.8305 25.2827 83.4875 26.2083C82.9793 26.5713 82.689 26.6257 81.7816 26.5713C80.4749 26.4987 79.8579 26.0994 79.3316 25.0468C79.0049 24.3935 78.9686 23.9579 78.9686 20.655V16.9891H77.789H76.6094V20.6731Z" fill="#9DAAB3"/>
<path d="M100.984 17.3697C99.6957 17.8597 98.3346 19.1301 97.7176 20.4005C97.282 21.2897 97.2095 21.6527 97.2095 22.9775C97.2095 24.1753 97.3002 24.7197 97.6087 25.373C98.135 26.5164 99.3509 27.8049 100.476 28.3856C101.275 28.803 101.601 28.8756 103.108 28.8756C104.832 28.8756 104.995 28.8212 106.792 27.9138C107.009 27.8049 106.937 29.8375 106.646 31.6886C105.521 39.093 100.131 44.973 92.8358 46.7878C90.5491 47.3503 86.6291 47.3503 84.3606 46.7878C77.6095 45.1181 72.5099 40.0548 70.7859 33.3763C70.6044 32.6141 70.441 31.8519 70.441 31.6523C70.441 31.3619 70.2777 31.3256 69.2433 31.3256H68.0273L68.1544 32.233C68.6625 36.0985 70.931 40.5267 73.9799 43.5574C77.9543 47.5318 82.9269 49.5644 88.5891 49.5463C92.0917 49.5281 94.7776 48.9292 97.7176 47.4592C100.512 46.0618 103.235 43.8115 105.122 41.3252C106.302 39.7645 107.899 36.5341 108.443 34.5922C109.133 32.1423 109.278 30.2186 109.278 23.3767V16.9886H108.098H106.919V17.5331C106.919 17.8234 106.882 18.0775 106.846 18.0775C106.81 18.0775 106.338 17.8597 105.812 17.5694C104.505 16.8979 102.382 16.8071 100.984 17.3697ZM105.176 19.8923C106.12 20.4912 106.919 21.8704 106.919 22.9049C106.919 24.2478 106.066 25.6634 104.886 26.2623C104.287 26.5708 103.888 26.6252 102.908 26.5708C101.874 26.5164 101.565 26.4256 100.984 25.9538C99.5869 24.8467 99.115 22.9775 99.8228 21.4349C100.458 20.0556 101.583 19.366 103.216 19.3479C104.124 19.3479 104.451 19.4386 105.176 19.8923Z" fill="#9DAAB3"/>
<path d="M114.613 17.3696C113.252 17.8778 112.127 18.9666 111.419 20.4003C110.893 21.4711 110.82 21.7614 110.838 23.0681C110.857 24.1207 110.947 24.7559 111.238 25.3729C111.746 26.5162 112.962 27.8048 114.087 28.3855C114.885 28.821 115.194 28.8755 116.809 28.8755C118.769 28.8755 119.422 28.6577 120.711 27.5688C121.328 27.0607 122.344 25.754 122.344 25.4818C122.344 25.4092 121.764 25.3366 121.056 25.3366C119.894 25.3366 119.713 25.3911 119.059 25.9174C118.406 26.4436 118.17 26.5162 117.027 26.5707C115.938 26.607 115.611 26.5525 114.994 26.2077C114.232 25.754 113.379 24.6288 113.198 23.8303L113.089 23.3403H117.989H122.889V22.814C122.889 22.5237 122.725 21.7433 122.508 21.0537C121.528 17.8959 117.789 16.1355 114.613 17.3696ZM118.642 19.8014C119.059 20.0555 119.586 20.5092 119.804 20.7996L120.185 21.344H116.791H113.397L113.851 20.7451C114.958 19.3115 117.099 18.894 118.642 19.8014Z" fill="#9DAAB3"/>
<path d="M128.225 17.3695C125.485 18.422 123.87 21.5617 124.596 24.4109C125.104 26.3891 126.447 27.9135 128.334 28.6213C129.731 29.1476 131.855 29.0387 133.143 28.3853C134.25 27.8046 135.956 26.0442 135.956 25.4817C135.956 25.3909 135.375 25.3365 134.668 25.3365C133.506 25.3365 133.325 25.3909 132.671 25.9172C131.347 26.9698 128.86 26.8065 127.753 25.5724C127.354 25.1368 126.701 23.6668 126.81 23.4854C126.864 23.4128 129.078 23.3402 131.728 23.3402H136.555L136.428 22.2876C136.174 20.128 134.613 18.1135 132.581 17.3695C131.292 16.8795 129.477 16.8795 128.225 17.3695ZM132.127 19.7106C132.508 19.892 133.053 20.3276 133.325 20.6543L133.833 21.2531L130.603 21.3076C128.824 21.3257 127.336 21.3076 127.281 21.2713C127.245 21.2169 127.372 20.9446 127.59 20.6543C128.461 19.4383 130.693 18.9665 132.127 19.7106Z" fill="#9DAAB3"/>
</svg>
