<svg width="200" height="56" viewBox="0 0 200 56" fill="none" xmlns="http://www.w3.org/2000/svg">
<path d="M55.0859 43.1444C54.9727 43.1444 54.8432 43.1444 54.7137 43.1283C52.9335 42.9835 51.3152 41.97 49.8748 40.1039C48.823 38.7365 48.2241 37.3369 48.0946 36.9991L44.3239 32.6233C44.0974 32.3499 43.7737 32.189 43.4177 32.1408L42.8028 32.0765C42.1554 31.996 41.5889 31.6259 41.2977 31.0629C38.9187 26.6712 33.1736 21.9093 30.8109 20.0754C30.5357 19.8663 30.4225 19.5124 30.5357 19.1745C30.649 18.8529 30.9565 18.6275 31.2964 18.6275C31.3773 18.6275 31.4582 18.6437 31.5229 18.6598C35.3098 19.7376 40.3752 24.242 42.123 26.1403C42.2363 26.269 42.3496 26.4138 42.479 26.5585C42.6571 26.7999 43.094 27.3468 43.2721 27.3468C44.0489 27.0251 45.036 26.5746 45.7157 26.2529C46.266 25.9955 46.8647 25.8668 47.4635 25.8668L55.3449 25.8347C55.9436 25.8347 56.51 25.5772 56.8984 25.1268C56.9146 25.1107 57.9827 23.8719 58.5329 22.5368C58.986 21.4428 58.6786 20.2685 58.6786 20.1076C58.63 19.7537 58.6138 19.0298 58.4521 18.515C58.2416 17.8232 57.9504 18.4345 57.6914 18.0646C57.5134 17.8232 56.4776 17.775 56.4615 16.8258C56.4453 15.8284 56.6071 15.185 58.9537 16.0697C60.7662 16.7615 60.7177 17.0511 60.8148 17.8071L60.7986 18.5472C60.8472 18.9011 61.1384 19.1745 61.4945 19.1745H61.5106C61.6725 19.1745 61.8344 19.1102 61.9315 18.9815C62.0447 18.8689 62.0933 18.708 62.0933 18.5472C62.0447 17.6462 62.0771 17.9198 62.2066 17.4855C62.4655 16.6328 64.0677 15.9089 64.9578 15.9089C65.071 15.9089 65.1681 15.925 65.249 15.9411C65.6698 16.0376 65.7993 16.2789 65.8478 16.4237C65.9773 16.8741 65.6213 17.2119 65.2005 17.6141C65.0386 17.775 64.5693 17.7589 64.5208 17.8715C64.4885 18.0967 64.5046 18.322 64.5208 19.0298C64.5369 19.1102 64.5693 19.2067 64.5855 19.255L65.7022 19.8502C66.1553 20.1398 66.6408 20.3167 67.1586 20.381C67.3367 20.3972 67.5309 20.4294 67.7251 20.4455C69.0521 20.6063 70.3144 20.7511 70.7028 21.4428C71.0912 22.1185 71.1721 22.8585 70.9618 23.5664C70.638 24.6281 69.6995 25.4324 68.9874 25.7863C68.3239 26.1242 67.45 26.4942 66.479 26.4942H66.4466L61.2355 26.9768L60.7338 28.9716C60.6853 29.1968 60.5235 29.3899 60.3293 29.4864L59.9247 29.6955L57.481 33.8782C57.4325 33.9425 57.3839 34.0069 57.3192 34.0712L51.8492 38.9135C52.3833 39.4121 54.2929 39.75 55.1182 40.6991C55.9436 41.6483 57.3354 42.3078 57.0927 42.8226C56.9308 43.273 55.798 43.1444 55.0859 43.1444Z" fill="#9DAAB3"/>
<path d="M55.8969 44.0936H55.8485C53.7931 43.9328 50.9449 42.2597 49.4884 40.3935C48.4203 39.0101 47.8215 37.5944 47.6758 37.2405L43.9537 32.9292C43.7756 32.704 43.5329 32.6397 43.3549 32.6074L42.7561 32.5431C41.9308 32.4466 41.2348 31.9639 40.8627 31.2723C38.4352 26.8 32.3178 21.8612 30.5053 20.4456C30.0684 20.1077 29.8903 19.5447 30.0684 19.0138C30.2464 18.483 30.7481 18.129 31.2821 18.129C31.3954 18.129 31.4925 18.1451 31.622 18.1773H31.6381C35.5383 19.2873 40.6199 23.7917 42.4648 25.8025C42.5295 25.867 42.5781 25.9313 42.6428 26.0117C42.7076 26.0761 42.7723 26.1565 42.8371 26.237L42.8693 26.2691C43.0312 26.4943 43.2093 26.6874 43.3225 26.8C44.0508 26.4943 44.9085 26.0922 45.5072 25.8186C46.1061 25.5291 46.7857 25.3843 47.4655 25.3843L55.3468 25.3521C55.7999 25.3521 56.2369 25.1591 56.5281 24.8052L56.5443 24.7891C56.9165 24.3869 57.9685 23.0999 58.0494 22.4725C58.1626 21.7003 58.0979 21.266 58.0332 20.7674C58.0009 20.5581 57.9847 20.349 57.9685 20.1077V20.0756C57.9685 19.8665 57.9847 19.7056 57.9847 19.5608C58.0009 19.2873 58.0171 19.046 57.9685 18.5634C57.9523 18.4669 57.5315 18.2578 57.3535 18.1612C56.868 17.9199 56.2531 17.6142 56.0103 16.9869C55.7837 16.4238 55.9131 15.7803 56.3339 15.3942C56.7386 15.0081 57.5639 14.7186 59.166 15.4586C59.2955 15.5229 59.4249 15.5712 59.5706 15.6355C60.2341 15.9251 60.9138 16.2147 61.2699 16.9386C61.4479 17.3086 61.4155 17.9842 61.3508 18.483C61.4317 18.483 61.5127 18.483 61.5935 18.483C61.5611 17.8073 61.5773 17.4212 61.7068 16.9869C62.0628 15.8125 64.0211 15.0886 64.9597 15.0886C65.0891 15.0886 65.1377 15.0886 65.2672 15.1207C65.8821 15.2655 66.222 15.6516 66.319 15.9412V15.9573C66.4809 16.5042 66.0278 17.0995 65.6232 17.6142C65.5099 17.7429 65.4129 17.8878 65.3643 17.9682C65.2995 18.113 65.1539 18.8046 65.0891 19.1264C65.251 19.3516 65.7041 19.7699 67.7756 19.979H67.8403C69.2807 20.156 70.6239 20.3169 71.1255 21.2178C71.5786 22.006 71.6758 22.8586 71.433 23.7113C71.0608 24.9339 70.0089 25.8348 69.2159 26.2209C68.5847 26.5426 67.5975 26.9769 66.4971 26.9769H66.4809L61.6421 27.4274L61.2051 29.0522C61.1242 29.4061 60.8815 29.7279 60.5416 29.8887L60.2665 30.0335L57.8552 34.1357C57.8066 34.2001 57.7419 34.2966 57.6447 34.3771L57.6286 34.3931L52.6118 38.8331C53.2268 39.2354 54.311 39.8627 55.2335 40.3935C56.0264 40.8601 56.787 41.2945 57.2887 41.6002C57.839 41.9379 58.0979 42.4367 58.0009 42.9031C57.8552 43.5306 57.1755 43.9167 55.9617 44.0614L55.8969 44.0936ZM31.2983 19.1103C31.1688 19.1103 31.0394 19.2068 30.9908 19.3355C30.9423 19.4643 30.9908 19.6091 31.1041 19.6895C33.483 21.5394 39.2767 26.3174 41.7204 30.8217C41.9308 31.24 42.3677 31.5296 42.8533 31.5778L43.452 31.6422C43.9537 31.7066 44.3906 31.9479 44.6819 32.3018L48.5013 36.7419L48.5335 36.8222C48.5497 36.8866 49.1323 38.3505 50.2489 39.7983C51.6245 41.5841 54.2948 42.9676 55.8647 43.1285C56.7547 43.0158 57.0137 42.7745 57.0298 42.7101C57.0298 42.694 56.9813 42.5654 56.7547 42.4206C56.2693 42.1149 55.5247 41.6805 54.7318 41.2301C53.0163 40.2328 51.8512 39.557 51.4952 39.2192L51.1068 38.8654L56.9651 33.6853C56.9975 33.6531 57.0298 33.621 57.0622 33.5726L59.5544 29.2934L60.0885 29.02C60.1694 28.9879 60.2341 28.9074 60.2503 28.827V28.8109L60.8329 26.4783L66.4647 25.9634C67.3548 25.9634 68.1478 25.6095 68.7466 25.3039C69.4262 24.966 70.2192 24.2421 70.4782 23.3734C70.6562 22.7782 70.5753 22.183 70.2678 21.636C70.0089 21.1695 68.779 21.0087 67.6946 20.8799H67.6461C65.2995 20.6547 64.6198 20.1238 64.2314 19.5768C64.2152 19.5608 64.199 19.5447 64.199 19.5286C64.0373 19.3356 64.0534 19.1586 64.2152 18.4186C64.3771 17.6626 64.458 17.5177 64.4904 17.4695C64.5713 17.3247 64.6845 17.1799 64.8302 16.9869C64.9759 16.8099 65.2995 16.3916 65.3481 16.1986C65.3157 16.1664 65.2186 16.086 65.0405 16.0377H65.0244C65.0082 16.0377 64.9759 16.0377 64.9435 16.0377C64.1666 16.0377 62.7911 16.6812 62.6293 17.2442C62.5321 17.5981 62.516 17.936 62.5645 18.8207V18.853C62.5645 19.0621 62.4512 19.2391 62.2571 19.3355C61.9334 19.4964 60.8167 19.5125 60.5093 19.2712C60.3474 19.1425 60.2826 18.9495 60.315 18.7725C60.4121 18.2094 60.4445 17.5338 60.3798 17.3729C60.1856 16.9708 59.7163 16.7777 59.166 16.5364C59.0203 16.4721 58.8748 16.4077 58.7453 16.3434C57.7581 15.8768 57.1916 15.9251 56.9975 16.1021C56.8518 16.2308 56.8518 16.4721 56.9165 16.649C57.0298 16.9225 57.4182 17.1156 57.7904 17.3086C58.2921 17.566 58.8748 17.8556 58.9394 18.483C58.988 19.046 58.9718 19.3355 58.9556 19.6252C58.9394 19.7699 58.9394 19.8986 58.9394 20.0595C58.9556 20.2686 58.9718 20.4617 59.0042 20.6547C59.0689 21.1695 59.1337 21.7164 59.0203 22.6173C58.8748 23.6469 57.483 25.2234 57.2725 25.4487C56.787 26.0117 56.0912 26.3174 55.3468 26.3174L47.4655 26.3495C46.9314 26.3495 46.3973 26.4622 45.928 26.6874C45.2483 27.0092 44.2611 27.4596 43.4682 27.7974L43.371 27.8296H43.274C43.1121 27.8296 42.8209 27.8296 42.1087 26.8643C42.044 26.7838 41.9794 26.7035 41.9146 26.6391C41.866 26.5747 41.8175 26.5265 41.7689 26.4622C40.0697 24.6121 35.069 20.172 31.4116 19.1264C31.3468 19.1103 31.3145 19.1103 31.2983 19.1103Z" fill="#2D2E33"/>
<mask id="mask0_1253_27145" style="mask-type:luminance" maskUnits="userSpaceOnUse" x="30" y="15" width="42" height="29">
<path d="M55.0859 43.1446C54.9727 43.1446 54.8432 43.1446 54.7137 43.1286C52.9335 42.9837 51.3152 41.9703 49.8748 40.1041C48.823 38.7367 48.2241 37.3372 48.0946 36.9993L44.3239 32.6237C44.0974 32.3501 43.7737 32.1894 43.4177 32.141L42.8028 32.0767C42.1554 31.9963 41.5889 31.6263 41.2977 31.0632C38.9187 26.6714 33.1736 21.9097 30.8109 20.0757C30.5357 19.8666 30.4225 19.5126 30.5357 19.1749C30.649 18.8531 30.9565 18.6279 31.2964 18.6279C31.3773 18.6279 31.4582 18.644 31.5229 18.66C35.3098 19.7379 40.3752 24.2423 42.123 26.1405C42.2363 26.2692 42.3496 26.414 42.479 26.5589C42.6571 26.8001 43.094 27.3471 43.2721 27.3471C44.0489 27.0253 45.036 26.5749 45.7157 26.2532C46.266 25.9958 46.8647 25.8671 47.4635 25.8671L55.3449 25.8349C55.9436 25.8349 56.51 25.5775 56.8984 25.127C56.9146 25.111 57.9827 23.8723 58.5329 22.537C58.986 21.4431 58.7919 20.2366 58.7919 20.0757C58.7433 19.7217 58.7757 18.9979 58.6624 18.7727C58.5815 18.5957 58.1769 18.7244 57.8532 18.4188C57.4487 18.0488 57.0279 18.3222 56.7689 17.9522C56.591 17.7109 56.5748 17.3891 56.7043 17.1157C56.8498 16.8422 57.125 16.6813 57.4163 16.6813C57.4649 16.6813 57.5134 16.6813 57.562 16.6974L59.1479 16.8261C59.1803 16.8261 59.1965 16.8261 59.2289 16.8422C59.9894 17.0353 60.5559 17.0353 60.6529 17.7914L60.7986 18.5313C60.8472 18.8852 61.1384 19.1588 61.4945 19.1588H61.5107C61.6725 19.1588 61.8344 19.0944 61.9315 18.9657C62.0447 18.8531 62.0933 18.6922 62.0933 18.5313C62.0447 17.6305 62.0771 17.9039 62.2066 17.4696C62.4655 16.617 64.0677 15.8931 64.9578 15.8931C65.071 15.8931 65.1681 15.9092 65.249 15.9252C65.6698 16.0218 65.7993 16.2631 65.8479 16.4078C65.9773 16.8583 65.6213 17.1961 65.2005 17.5983C65.0386 17.7591 64.7312 17.743 64.6826 17.8557C64.6502 18.0809 64.6664 18.3061 64.6826 19.014C64.6988 19.0944 64.7312 19.191 64.7473 19.2392L65.7022 19.8344C66.1553 20.124 66.6408 20.3009 67.1586 20.3653C67.3367 20.3814 67.5309 20.4135 67.7251 20.4296C69.0521 20.5905 70.3144 20.7353 70.7028 21.427C71.0912 22.1027 71.1721 22.8427 70.9618 23.5505C70.638 24.6123 69.6995 25.4167 68.9874 25.7706C68.3239 26.1083 67.45 26.4784 66.479 26.4784H66.4466L61.2355 26.961L60.7338 28.9558C60.6853 29.181 60.5235 29.374 60.3293 29.4706L59.9247 29.6797L57.481 33.8623C57.4325 33.9268 57.3839 33.9911 57.3192 34.0554L51.8492 38.8976C52.3833 39.3964 54.746 39.3803 55.5714 40.3293C56.3967 41.2785 56.6395 41.9381 56.3967 42.4528C56.2511 42.9355 55.798 43.1446 55.0859 43.1446Z" fill="white"/>
</mask>
<g mask="url(#mask0_1253_27145)">
<path d="M52.5915 31.3369L56.9125 33.7499L51.7824 38.3348L51.2969 37.4178L51.3293 36.3078L52.106 34.2325L52.5915 31.3369Z" fill="#4C4E57"/>
</g>
<path d="M61.6947 22.4724H61.5814C61.274 22.4724 61.0312 22.2311 61.0312 21.9255V20.7994C61.0312 20.4937 61.274 20.2524 61.5814 20.2524H61.6947C62.0022 20.2524 62.245 20.4937 62.245 20.7994V21.9255C62.245 22.2311 62.0022 22.4724 61.6947 22.4724Z" fill="#2D2E33"/>
<path d="M64.6557 22.4725H64.5425C64.2349 22.4725 63.9922 22.2311 63.9922 21.9255V20.7994C63.9922 20.4937 64.2349 20.2524 64.5425 20.2524H64.6557C64.9632 20.2524 65.2059 20.4937 65.2059 20.7994V21.9255C65.2059 22.2311 64.9632 22.4725 64.6557 22.4725Z" fill="#2D2E33"/>
<path d="M64.0241 25.3036C63.7975 25.3036 63.6033 25.2554 63.4253 25.2071C62.8912 25.0302 62.5352 24.6762 62.519 24.6602C62.3895 24.5314 62.3895 24.3223 62.519 24.2098C62.6485 24.081 62.8426 24.081 62.9721 24.2098C63.0693 24.3062 64.0079 25.175 65.0436 24.1776C65.1731 24.0489 65.3834 24.0489 65.4967 24.1776C65.6262 24.3062 65.6262 24.5154 65.4967 24.628C64.9788 25.1589 64.4611 25.3036 64.0241 25.3036Z" fill="#2D2E33"/>
<path d="M57.5 29.5508H59.0374V32.6234V34.6826C59.0374 34.6826 60.6558 35.0527 61.6267 33.9105C62.5977 32.7683 60.413 31.1273 60.413 31.1273L60.7367 28.9716L60.9632 28.0869" fill="#9DAAB3"/>
<path d="M57.4973 29.3743L59.0347 29.3421C59.148 29.3421 59.2289 29.4225 59.2451 29.5352V29.5513L59.3908 34.683L59.1318 34.3453C59.2289 34.3613 59.3584 34.3774 59.4554 34.3774C59.5687 34.3774 59.6821 34.3774 59.8116 34.3774C60.0381 34.3613 60.2647 34.3291 60.475 34.2487C60.6855 34.1683 60.8796 34.0717 61.0577 33.943L61.187 33.8465C61.2356 33.8144 61.268 33.7661 61.3004 33.7339L61.3489 33.6695C61.3651 33.6535 61.3813 33.6374 61.3813 33.6213C61.4137 33.5891 61.4299 33.5569 61.446 33.5086C61.5108 33.3639 61.5108 33.2031 61.4622 33.01C61.4137 32.817 61.3004 32.6239 61.1709 32.447C60.912 32.0769 60.5398 31.723 60.1676 31.4496C60.0381 31.3691 59.9895 31.2244 60.0057 31.0796V31.0635L60.2647 28.8917V28.8755V28.8595L60.475 27.9747C60.5398 27.7173 60.7987 27.5565 61.0577 27.6047C61.3165 27.669 61.4784 27.9265 61.4299 28.1839V28.1999L61.187 29.0686L61.2032 29.0204L60.831 31.176L60.6693 30.7899C60.8958 30.9669 61.09 31.1439 61.2842 31.353C61.4784 31.546 61.6564 31.7712 61.8182 31.9964C61.9801 32.2378 62.1257 32.4952 62.2066 32.817C62.2876 33.1226 62.2876 33.5086 62.1257 33.8304C62.0448 33.9913 61.9316 34.136 61.8344 34.2326C61.7859 34.2808 61.7373 34.3453 61.6726 34.3935L61.4946 34.5383C61.2518 34.7152 60.9767 34.8439 60.7016 34.9405C60.4265 35.0369 60.1352 35.0691 59.8439 35.0852C59.6982 35.0852 59.5526 35.0852 59.4231 35.0852C59.2775 35.0691 59.148 35.053 58.9862 35.0209H58.97C58.8081 34.9887 58.711 34.8439 58.711 34.683L58.8567 29.5513L59.067 29.7604L57.5297 29.7282C57.4325 29.7282 57.384 29.6477 57.3678 29.5513C57.3354 29.4386 57.4002 29.3743 57.4973 29.3743Z" fill="#2D2E33"/>
<path d="M59.3904 32.6558L60.5394 32.9936C60.6204 33.0097 60.6689 33.1063 60.6366 33.1867C60.6204 33.2349 60.588 33.2831 60.5394 33.2831L59.3904 33.621C59.1153 33.7015 58.8402 33.5406 58.7592 33.2831C58.6783 33.0097 58.8402 32.7363 59.0992 32.6558C59.1962 32.6236 59.2933 32.6397 59.3904 32.6558Z" fill="#2D2E33"/>
<path d="M70.7683 21.4109C70.0077 20.5422 68.5997 20.8157 68.2114 21.8935C67.823 22.9714 68.7454 24.0652 69.8782 23.8722C71.0273 23.6791 71.529 22.2957 70.7683 21.4109Z" fill="#2D2E33"/>
<path d="M50.7836 29.6958C50.7836 29.6958 52.9036 29.9692 52.3696 33.1385C52.2401 33.9107 51.9488 34.8759 51.4309 36.0342C51.0587 36.8546 51.2529 37.6107 51.7061 38.399C52.3534 39.5251 54.6352 40.5385 56.0432 41.3107C56.6419 41.6324 58.2442 42.4046 56.9656 43.3537C55.2017 44.6729 48.8578 40.2489 48.6474 38.8494C48.5665 38.3829 48.5665 37.482 48.5827 36.6455C48.5989 35.6802 48.6474 34.7954 48.6474 34.7954" fill="#9DAAB3"/>
<path d="M50.7991 29.5352C51.5597 29.6478 52.1586 30.1947 52.4498 30.8705C52.725 31.5461 52.7412 32.2861 52.6765 32.9617C52.6117 33.6535 52.4175 34.313 52.2071 34.9566C52.0938 35.2783 51.9805 35.6 51.8511 35.9057L51.754 36.147C51.7216 36.2274 51.6892 36.2756 51.673 36.3561C51.6245 36.4849 51.5921 36.6296 51.5921 36.7744C51.5597 37.0478 51.6083 37.3374 51.7054 37.6109C51.754 37.7557 51.8187 37.8844 51.8835 38.0291C51.9159 38.0936 51.9644 38.1579 51.9967 38.2384C52.0291 38.3027 52.0776 38.3509 52.11 38.4152C52.2881 38.6405 52.5146 38.8497 52.7574 39.0427C53.0001 39.2358 53.2753 39.4127 53.5504 39.5897C54.1006 39.9274 54.6831 40.2492 55.282 40.5548C55.5732 40.7157 55.8807 40.8605 56.1721 41.0214C56.4633 41.1823 56.7708 41.3432 57.0622 41.5523C57.2077 41.6649 57.3534 41.7936 57.4829 41.9545C57.6124 42.1153 57.7418 42.3245 57.758 42.5979C57.758 42.7267 57.7418 42.8553 57.6932 42.9679C57.6447 43.0805 57.5962 43.1771 57.5153 43.2575C57.4505 43.338 57.3696 43.4183 57.3049 43.4828C57.2725 43.5149 57.2239 43.5471 57.1915 43.5792C57.1593 43.6114 57.1107 43.6435 57.0622 43.6596C56.6899 43.901 56.2692 43.9332 55.8969 43.9171C55.5247 43.901 55.1687 43.8205 54.8288 43.724C54.1492 43.5149 53.518 43.2414 52.9192 42.9197C52.3204 42.5979 51.7216 42.244 51.1713 41.8579C50.605 41.4718 50.0709 41.0536 49.553 40.6032C49.2942 40.378 49.0513 40.1205 48.8248 39.8631C48.7115 39.7183 48.5982 39.5896 48.5012 39.4127C48.4688 39.3644 48.4526 39.3322 48.4202 39.284L48.3555 39.1392C48.3393 39.0909 48.3231 39.0266 48.3069 38.9783L48.2908 38.8979L48.2746 38.8336C48.226 38.4796 48.2422 38.1418 48.2584 37.8039L48.3069 36.7905C48.3393 36.1149 48.3879 35.4552 48.4041 34.7796C48.4041 34.6509 48.5012 34.5544 48.6306 34.5544C48.7601 34.5544 48.8572 34.6509 48.8572 34.7796V34.7957C48.8248 35.4552 48.8248 36.1149 48.8248 36.7905C48.8248 37.1283 48.841 37.4501 48.8734 37.7879C48.8896 38.1096 48.9219 38.4475 48.9704 38.737C48.9866 38.9301 49.1808 39.1874 49.375 39.4288C49.5854 39.6701 49.8119 39.8953 50.0547 40.1044C50.5403 40.5387 51.0581 40.9409 51.5921 41.3109C52.1262 41.6809 52.6926 42.0349 53.2753 42.3406C53.8578 42.6462 54.4404 42.9197 55.0553 43.0967C55.3629 43.1931 55.6704 43.2575 55.9616 43.2735C56.253 43.2897 56.5443 43.2575 56.7385 43.1288C56.787 43.1128 56.8517 43.0483 56.9003 43.0001C56.9488 42.9519 56.9974 42.9036 57.0298 42.8553C57.0622 42.807 57.0945 42.7588 57.1107 42.7267C57.1269 42.6783 57.1269 42.6462 57.1269 42.614C57.1269 42.4692 56.9327 42.244 56.6899 42.067C56.4471 41.8901 56.1721 41.7454 55.8646 41.5845C55.5732 41.4236 55.282 41.2788 54.9745 41.1179C54.3757 40.8123 53.7769 40.4905 53.1943 40.1366C52.903 39.9596 52.6117 39.7665 52.3366 39.5413C52.0614 39.3161 51.7864 39.0909 51.5597 38.7852C51.5113 38.7048 51.4465 38.6245 51.398 38.544C51.3494 38.4636 51.317 38.3831 51.2685 38.3027C51.1875 38.1418 51.1067 37.9809 51.0581 37.8039C50.9448 37.45 50.8639 37.064 50.9125 36.6779C50.9286 36.4849 50.9772 36.2918 51.042 36.1149C51.0743 36.0344 51.1067 35.9379 51.139 35.8574L51.2361 35.6322C51.3656 35.3266 51.4951 35.037 51.6083 34.7314C51.8349 34.12 52.0291 33.4926 52.11 32.8652C52.2071 32.2379 52.2071 31.5943 52.0129 31.0152C51.8997 30.7417 51.7378 30.4844 51.5275 30.2752C51.4142 30.1626 51.3008 30.0822 51.1713 30.0178C51.042 29.9535 50.8963 29.8891 50.7668 29.8569H50.7506C50.6536 29.8408 50.605 29.7443 50.6212 29.6478C50.6374 29.5834 50.7182 29.5191 50.7991 29.5352Z" fill="#2D2E33"/>
<path d="M75.9375 29.8757C75.9375 28.5489 76.2254 27.3638 76.8011 26.3204C77.3893 25.264 78.1841 24.446 79.1853 23.8664C80.1991 23.2738 81.3317 22.9775 82.5833 22.9775C84.0476 22.9775 85.3305 23.364 86.4319 24.1369C87.5332 24.9097 88.3029 25.979 88.741 27.3444H85.7184C85.4181 26.7003 84.9925 26.2173 84.4418 25.8952C83.9037 25.5732 83.278 25.4122 82.5645 25.4122C81.8011 25.4122 81.119 25.5989 80.5182 25.9725C79.93 26.3333 79.4669 26.8485 79.1289 27.5183C78.8036 28.1881 78.6409 28.9739 78.6409 29.8757C78.6409 30.7645 78.8036 31.5503 79.1289 32.233C79.4669 32.9028 79.93 33.4246 80.5182 33.7981C81.119 34.1588 81.8011 34.3391 82.5645 34.3391C83.278 34.3391 83.9037 34.1782 84.4418 33.856C84.9925 33.5211 85.4181 33.0317 85.7184 32.3876H88.741C88.3029 33.7659 87.5332 34.8415 86.4319 35.6145C85.3429 36.3744 84.0601 36.7545 82.5833 36.7545C81.3317 36.7545 80.1991 36.4646 79.1853 35.8849C78.1841 35.2923 77.3893 34.4744 76.8011 33.431C76.2254 32.3876 75.9375 31.2025 75.9375 29.8757Z" fill="#9DAAB3"/>
<path d="M96.8416 25.7792C97.6301 25.7792 98.331 25.9596 98.9442 26.3203C99.5575 26.6681 100.033 27.1898 100.371 27.8854C100.721 28.5682 100.897 29.3925 100.897 30.3586V36.6385H98.2684V30.7258C98.2684 29.8756 98.0619 29.2251 97.6489 28.7742C97.2359 28.3105 96.6726 28.0786 95.9593 28.0786C95.2334 28.0786 94.6576 28.3105 94.2321 28.7742C93.8191 29.2251 93.6126 29.8756 93.6126 30.7258V36.6385H90.9844V22.3398H93.6126V27.2671C93.9505 26.8033 94.4011 26.4427 94.9643 26.185C95.5275 25.9145 96.1533 25.7792 96.8416 25.7792Z" fill="#9DAAB3"/>
<path d="M102.719 31.2478C102.719 30.1657 102.925 29.206 103.338 28.3687C103.764 27.5315 104.333 26.8874 105.047 26.4365C105.773 25.9857 106.58 25.7603 107.468 25.7603C108.244 25.7603 108.92 25.9213 109.496 26.2433C110.084 26.5652 110.554 26.971 110.904 27.4606V25.9342H113.551V36.6388H110.904V35.0736C110.566 35.576 110.097 35.9946 109.496 36.3296C108.908 36.6517 108.226 36.8127 107.45 36.8127C106.574 36.8127 105.773 36.5808 105.047 36.117C104.333 35.6533 103.764 35.0027 103.338 34.1655C102.925 33.3153 102.719 32.3427 102.719 31.2478ZM110.904 31.2864C110.904 30.6295 110.779 30.0691 110.529 29.6053C110.278 29.1288 109.94 28.7681 109.515 28.5233C109.089 28.2657 108.632 28.1369 108.144 28.1369C107.656 28.1369 107.206 28.2592 106.793 28.504C106.38 28.7487 106.042 29.1094 105.779 29.5861C105.529 30.0498 105.403 30.6037 105.403 31.2478C105.403 31.8919 105.529 32.4587 105.779 32.9481C106.042 33.4248 106.38 33.7918 106.793 34.0495C107.218 34.3071 107.669 34.436 108.144 34.436C108.632 34.436 109.089 34.3136 109.515 34.0689C109.94 33.8112 110.278 33.4505 110.529 32.9868C110.779 32.5102 110.904 31.9434 110.904 31.2864Z" fill="#9DAAB3"/>
<path d="M117.454 24.6587C116.991 24.6587 116.603 24.5105 116.29 24.2142C115.99 23.9051 115.84 23.5251 115.84 23.0741C115.84 22.6233 115.99 22.2498 116.29 21.9535C116.603 21.6443 116.991 21.4897 117.454 21.4897C117.918 21.4897 118.299 21.6443 118.6 21.9535C118.913 22.2498 119.069 22.6233 119.069 23.0741C119.069 23.5251 118.913 23.9051 118.6 24.2142C118.299 24.5105 117.918 24.6587 117.454 24.6587ZM118.75 25.934V36.6386H116.121V25.934H118.75Z" fill="#9DAAB3"/>
<path d="M127.107 25.7793C128.346 25.7793 129.347 26.1851 130.111 26.9966C130.874 27.7953 131.256 28.9161 131.256 30.3587V36.6386H128.628V30.7259C128.628 29.8757 128.421 29.2251 128.008 28.7743C127.595 28.3106 127.032 28.0787 126.319 28.0787C125.593 28.0787 125.017 28.3106 124.592 28.7743C124.179 29.2251 123.972 29.8757 123.972 30.7259V36.6386H121.344V25.934H123.972V27.2671C124.322 26.8034 124.767 26.4428 125.305 26.1851C125.856 25.9146 126.456 25.7793 127.107 25.7793Z" fill="#9DAAB3"/>
<path d="M144.628 23.1514V36.6385H142V30.8997H136.386V36.6385H133.758V23.1514H136.386V28.6969H142V23.1514H144.628Z" fill="#9DAAB3"/>
<path d="M151.83 36.8127C150.829 36.8127 149.928 36.5872 149.126 36.1364C148.325 35.6726 147.693 35.0221 147.231 34.1848C146.78 33.3475 146.555 32.3814 146.555 31.2864C146.555 30.1915 146.787 29.2253 147.249 28.3881C147.725 27.5507 148.369 26.9067 149.183 26.4558C149.997 25.992 150.903 25.7603 151.905 25.7603C152.906 25.7603 153.814 25.992 154.628 26.4558C155.44 26.9067 156.079 27.5507 156.542 28.3881C157.017 29.2253 157.256 30.1915 157.256 31.2864C157.256 32.3814 157.012 33.3475 156.523 34.1848C156.047 35.0221 155.397 35.6726 154.571 36.1364C153.757 36.5872 152.844 36.8127 151.83 36.8127ZM151.83 34.4553C152.306 34.4553 152.75 34.3394 153.163 34.1075C153.589 33.8627 153.927 33.5021 154.177 33.0255C154.427 32.5488 154.552 31.9691 154.552 31.2864C154.552 30.2688 154.29 29.4894 153.764 28.9484C153.251 28.3945 152.618 28.1175 151.867 28.1175C151.117 28.1175 150.485 28.3945 149.972 28.9484C149.471 29.4894 149.22 30.2688 149.22 31.2864C149.22 32.304 149.464 33.0899 149.953 33.6438C150.453 34.1848 151.08 34.4553 151.83 34.4553Z" fill="#9DAAB3"/>
<path d="M161.816 27.4799C162.154 26.9904 162.617 26.5846 163.206 26.2626C163.806 25.9277 164.488 25.7603 165.251 25.7603C166.14 25.7603 166.941 25.9857 167.654 26.4365C168.38 26.8874 168.95 27.5315 169.363 28.3687C169.788 29.1932 170.001 30.1528 170.001 31.2478C170.001 32.3427 169.788 33.3153 169.363 34.1655C168.95 35.0027 168.38 35.6533 167.654 36.117C166.941 36.5808 166.14 36.8127 165.251 36.8127C164.488 36.8127 163.812 36.6517 163.225 36.3296C162.648 36.0076 162.179 35.6018 161.816 35.1122V41.1774H159.188V25.9342H161.816V27.4799ZM167.317 31.2478C167.317 30.6037 167.185 30.0498 166.922 29.5861C166.672 29.1094 166.334 28.7487 165.909 28.504C165.496 28.2592 165.046 28.1369 164.557 28.1369C164.082 28.1369 163.631 28.2657 163.206 28.5233C162.792 28.7681 162.455 29.1288 162.192 29.6053C161.942 30.082 161.816 30.6423 161.816 31.2864C161.816 31.9305 161.942 32.4908 162.192 32.9675C162.455 33.4441 162.792 33.8112 163.206 34.0689C163.631 34.3136 164.082 34.436 164.557 34.436C165.046 34.436 165.496 34.3071 165.909 34.0495C166.334 33.7918 166.672 33.4248 166.922 32.9481C167.185 32.4715 167.317 31.9047 167.317 31.2478Z" fill="#9DAAB3"/>
</svg>
