<svg width="200" height="56" viewBox="0 0 200 56" fill="none" xmlns="http://www.w3.org/2000/svg">
<path d="M71.6598 26.7422C69.5808 24.8805 67.0308 23.5897 64.2708 23.0019C64.4144 22.8872 64.5581 22.7642 64.696 22.6301C65.9169 21.442 66.3507 19.9408 65.6641 19.2755C65.0494 18.6773 63.7393 18.9568 62.5959 19.8821C62.3805 18.2328 61.5301 17 60.5131 17C59.4961 17 58.6429 18.2328 58.4274 19.8821C57.2783 18.9568 55.9769 18.6773 55.3593 19.2755C54.6755 19.9436 55.1064 21.4448 56.3274 22.6301C56.4682 22.7642 56.6147 22.89 56.7583 23.0047C53.4263 23.722 50.4169 25.4566 48.1694 27.9555C45.9218 30.4543 44.5536 33.5866 44.2643 36.8954L44 39.9508H48.1225L48.361 37.2336C48.613 34.3428 49.9713 31.6495 52.167 29.6868C54.3627 27.7242 57.2357 26.6354 60.2172 26.636H60.832C63.8133 26.6348 66.6864 27.7235 68.8818 29.6863C71.0772 31.6491 72.4347 34.3428 72.6854 37.2336L72.9238 39.9508H77.0492L76.7878 36.8954C76.4496 33.0043 74.6189 29.3798 71.6598 26.7422Z" fill="#9DAAB3"/>
<path d="M56.4888 31.6884C55.6764 31.6884 55.0156 32.8529 55.0156 34.2901C55.0156 35.7273 55.6764 36.8919 56.4888 36.8919C57.3012 36.8919 57.962 35.7273 57.962 34.2901C57.962 32.8529 57.3012 31.6884 56.4888 31.6884ZM64.5126 31.6884C63.7002 31.6884 63.0394 32.8529 63.0394 34.2901C63.0394 35.7273 63.7002 36.8919 64.5126 36.8919C65.325 36.8919 65.9858 35.7273 65.9858 34.2901C65.9858 32.8529 65.325 31.6884 64.5126 31.6884ZM88.5357 22.514H81.6446V39.9509H88.5357C93.5588 39.9509 97.515 36.1164 97.515 31.2822C97.515 26.3769 93.5732 22.514 88.5357 22.514ZM88.4385 36.1647H85.8182V26.3002H88.4385C91.1102 26.3002 93.1956 28.493 93.1956 31.2822C93.1956 34.0175 91.1102 36.1647 88.4385 36.1647ZM108.666 22.5083C103.568 22.5083 99.5803 26.3485 99.5803 31.2055C99.5803 36.0625 103.559 39.9026 108.657 39.9026C113.754 39.9026 117.731 36.0739 117.731 31.2055C117.731 26.3371 113.76 22.5083 108.666 22.5083ZM108.666 36.0966C105.945 36.0966 103.883 34.0004 103.883 31.2055C103.883 28.4106 105.945 26.3144 108.666 26.3144C111.386 26.3144 113.446 28.4106 113.446 31.2055C113.446 34.0004 111.383 36.0966 108.666 36.0966ZM126.795 22.514H119.904V39.9509H126.795C131.818 39.9509 135.775 36.1164 135.775 31.2822C135.775 26.3769 131.818 22.514 126.795 22.514ZM126.699 36.1647H124.078V26.3002H126.699C129.37 26.3002 131.455 28.493 131.455 31.2822C131.455 34.0175 129.37 36.1647 126.699 36.1647ZM146.926 22.5083C141.828 22.5083 137.849 26.3371 137.849 31.2055C137.849 36.0739 141.828 39.9026 146.926 39.9026C152.023 39.9026 155.999 36.0739 155.999 31.2055C155.999 26.3371 152.02 22.5083 146.926 22.5083ZM146.926 36.0966C144.208 36.0966 142.143 34.0004 142.143 31.2055C142.143 28.4106 144.205 26.3144 146.926 26.3144C149.646 26.3144 151.706 28.4106 151.706 31.2055C151.706 34.0004 149.64 36.0966 146.926 36.0966Z" fill="#9DAAB3"/>
</svg>
