<svg width="200" height="56" viewBox="0 0 200 56" fill="none" xmlns="http://www.w3.org/2000/svg">
<path d="M67.0943 30.9145C67.0943 31.1819 66.8691 31.4071 66.5876 31.4071H57.2563C57.4956 33.7153 59.2267 35.8265 61.6757 35.8265C63.3505 35.8265 64.5891 35.1931 65.518 33.856C65.6165 33.7153 65.7573 33.6168 65.9262 33.6168C66.1936 33.6168 66.3906 33.8138 66.3906 34.0812C66.3906 34.1798 66.3625 34.2501 66.3202 34.3205C65.3772 35.9531 63.5053 36.7554 61.6757 36.7554C58.5371 36.7554 56.2852 33.9405 56.2852 30.9426C56.2852 27.9307 58.523 25.1299 61.6757 25.1299C64.8143 25.1299 67.0803 27.9166 67.0943 30.9145ZM66.095 30.4782C65.898 28.17 64.1246 26.0588 61.6757 26.0588C59.2267 26.0588 57.4956 28.17 57.2563 30.4782H66.095Z" fill="#9DAAB3"/>
<path d="M78.4264 25.3551C78.6939 25.3551 78.8909 25.5944 78.8909 25.8196C78.8909 26.087 78.6939 26.284 78.4264 26.284H75.9212V36.1221C75.9212 36.3613 75.7241 36.5865 75.4567 36.5865C75.1893 36.5865 74.9923 36.3472 74.9923 36.1221V26.284H72.5855C72.3181 26.284 72.1211 26.087 72.1211 25.8196C72.1211 25.5803 72.3181 25.3551 72.5855 25.3551H74.9923V21.7661C74.9923 21.5269 75.1752 21.3017 75.4145 21.2735C75.7101 21.2454 75.9353 21.4565 75.9353 21.738V25.3551H78.4264Z" fill="#9DAAB3"/>
<path d="M93.7054 30.112V36.0655C93.7054 36.3329 93.4662 36.53 93.241 36.53C92.9736 36.53 92.7765 36.3329 92.7765 36.0655V30.112C92.7765 28.0994 91.6365 26.1008 89.3987 26.1008C86.5275 26.1008 85.2889 28.6061 85.4578 31.1817C85.4578 31.2521 85.486 31.5476 85.486 31.5899V36.0515C85.486 36.2907 85.303 36.5159 85.0637 36.5441C84.7682 36.5722 84.543 36.3611 84.543 36.0796V16.5021C84.543 16.2628 84.74 16.0376 85.0074 16.0376C85.2748 16.0376 85.4719 16.2769 85.4719 16.5021V27.5646C86.2741 26.129 87.7097 25.1578 89.3846 25.1578C92.1432 25.1578 93.7054 27.5646 93.7054 30.112Z" fill="#9DAAB3"/>
<path d="M110.473 30.9145C110.473 31.1819 110.248 31.4071 109.967 31.4071H100.635C100.874 33.7153 102.606 35.8265 105.055 35.8265C106.729 35.8265 107.968 35.1931 108.897 33.856C108.995 33.7153 109.136 33.6168 109.305 33.6168C109.572 33.6168 109.77 33.8138 109.77 34.0812C109.77 34.1798 109.741 34.2501 109.699 34.3205C108.756 35.9531 106.884 36.7554 105.055 36.7554C101.916 36.7554 99.6641 33.9405 99.6641 30.9426C99.6641 27.9307 101.902 25.1299 105.055 25.1299C108.179 25.1299 110.445 27.9166 110.473 30.9145ZM109.46 30.4782C109.263 28.17 107.489 26.0588 105.041 26.0588C102.606 26.0588 100.86 28.17 100.621 30.4782H109.46Z" fill="#9DAAB3"/>
<path d="M121.929 25.7913C121.929 26.0868 121.76 26.2557 121.492 26.298C118.748 26.7061 117.509 28.944 117.509 31.5477V36.0093C117.509 36.2486 117.326 36.4738 117.087 36.5019C116.792 36.5301 116.566 36.319 116.566 36.0375V25.8617C116.566 25.6224 116.749 25.3972 116.989 25.3691C117.284 25.3409 117.509 25.552 117.509 25.8335V27.9025C118.283 26.5935 119.818 25.355 121.422 25.355C121.661 25.355 121.929 25.5239 121.929 25.7913Z" fill="#9DAAB3"/>
<path d="M137.282 30.9145C137.282 31.1819 137.057 31.4071 136.775 31.4071H127.444C127.683 33.7153 129.414 35.8265 131.863 35.8265C133.538 35.8265 134.777 35.1931 135.705 33.856C135.804 33.7153 135.945 33.6168 136.114 33.6168C136.381 33.6168 136.578 33.8138 136.578 34.0812C136.578 34.1798 136.55 34.2501 136.508 34.3205C135.565 35.9531 133.693 36.7554 131.863 36.7554C128.725 36.7554 126.473 33.9405 126.473 30.9426C126.473 27.9307 128.711 25.1299 131.863 25.1299C135.002 25.1299 137.268 27.9166 137.282 30.9145ZM136.283 30.4782C136.086 28.17 134.312 26.0588 131.863 26.0588C129.414 26.0588 127.683 28.17 127.444 30.4782H136.283Z" fill="#9DAAB3"/>
<path d="M152.37 25.9044V29.1274V36.1224C152.37 36.3898 152.131 36.5869 151.906 36.5869C151.638 36.5869 151.441 36.3898 151.441 36.1224V34.1801C150.667 35.7143 149.302 36.8261 147.557 36.8261C144.784 36.8261 143.25 34.4194 143.25 31.8719V25.8903C143.25 25.651 143.447 25.4258 143.714 25.4258C143.982 25.4258 144.179 25.6651 144.179 25.8903V31.8719C144.179 33.8846 145.319 35.8832 147.557 35.8832C150.695 35.8832 151.441 32.9416 151.441 29.6904V25.8762C151.441 25.5947 151.737 25.3132 152.075 25.4399C152.244 25.5244 152.37 25.7073 152.37 25.9044Z" fill="#9DAAB3"/>
<path d="M176.002 30.0702V36.0518C176.002 36.3192 175.763 36.5163 175.538 36.5163C175.27 36.5163 175.073 36.3192 175.073 36.0518V30.0702C175.073 28.0575 173.933 26.0871 171.695 26.0871C168.881 26.0871 167.811 29.099 167.811 31.4354V36.0518C167.811 36.3192 167.572 36.5163 167.346 36.5163C167.079 36.5163 166.882 36.3192 166.882 36.0518V30.0702C166.882 28.0575 165.742 26.0871 163.504 26.0871C160.661 26.0871 159.493 28.325 159.591 31.3087C159.591 31.3791 159.62 31.5058 159.591 31.548V36.0377C159.591 36.277 159.408 36.5022 159.169 36.5304C158.874 36.5585 158.648 36.3474 158.648 36.0659V25.8619C158.648 25.6227 158.831 25.3975 159.071 25.3693C159.366 25.3412 159.591 25.5523 159.591 25.8338V27.5368C160.394 26.1012 161.829 25.1582 163.504 25.1582C165.404 25.1582 166.882 26.3686 167.487 28.1279C168.261 26.3827 169.767 25.1582 171.695 25.1582C174.44 25.1582 176.002 27.5368 176.002 30.0702Z" fill="#9DAAB3"/>
<path opacity="0.6" d="M35.6818 23.0879L24 28.394L35.6818 35.3045L47.3777 28.394L35.6818 23.0879Z" fill="#9DAAB3"/>
<path opacity="0.45" d="M24 28.3946L35.6818 35.3051V23.0885V9L24 28.3946Z" fill="#9DAAB3"/>
<path opacity="0.8" d="M35.6836 9V23.0885V35.3051L47.3795 28.3946L35.6836 9Z" fill="#9DAAB3"/>
<path opacity="0.45" d="M24 30.6182L35.6818 47.0853V37.5146L24 30.6182Z" fill="#9DAAB3"/>
<path opacity="0.8" d="M35.6836 37.5146V47.0853L47.3795 30.6182L35.6836 37.5146Z" fill="#9DAAB3"/>
</svg>
