<svg width="200" height="56" viewBox="0 0 200 56" fill="none" xmlns="http://www.w3.org/2000/svg">
<mask id="mask0_1253_27180" style="mask-type:luminance" maskUnits="userSpaceOnUse" x="38" y="12" width="32" height="32">
<path d="M70 12H38V44H70V12Z" fill="white"/>
</mask>
<g mask="url(#mask0_1253_27180)">
<path d="M56.8691 28.0002L45 39.8693L48.237 43.1063C49.4289 44.2982 51.3612 44.2982 52.5531 43.1063L65.5012 30.1582C66.6931 28.9664 66.6931 27.034 65.5012 25.8422L57.9481 18.2891L52.5531 23.6842L56.8691 28.0002Z" fill="#9DAAB3"/>
<path d="M45 16.1309L48.237 12.8939C49.4289 11.702 51.3612 11.702 52.5531 12.8939L55.7901 16.1309L50.3951 21.526L45 16.1309Z" fill="#9DAAB3"/>
</g>
<path d="M149.004 29.0005H152.004V25.0005H161.004V23.0005C161.004 22.4482 160.556 22.0005 160.004 22.0005H150.004C149.451 22.0005 149.004 22.4482 149.004 23.0005V29.0005Z" fill="#9DAAB3"/>
<path d="M152.004 34.0005H150.004C149.451 34.0005 149.004 33.5528 149.004 33.0005V31.0005H152.004V34.0005Z" fill="#9DAAB3"/>
<path d="M138 31.0005V29.0005H144V27.0005H138V25.0005H147V23.0005C147 22.4482 146.552 22.0005 146 22.0005H136C135.931 22.0005 135.864 22.0075 135.799 22.0208C135.343 22.114 135 22.5172 135 23.0005V33.0005C135 33.5528 135.448 34.0005 136 34.0005H146C146.552 34.0005 147 33.5528 147 33.0005V31.0005H138Z" fill="#9DAAB3"/>
<path d="M121 29.5005H124V34.0005H122C121.448 34.0005 121 33.5528 121 33.0005V29.5005Z" fill="#9DAAB3"/>
<path fill-rule="evenodd" clip-rule="evenodd" d="M122 22.0005C121.448 22.0005 121 22.4482 121 23.0005V31.0005H130C131.657 31.0005 133 29.6573 133 28.0005V25.0005C133 23.3436 131.657 22.0005 130 22.0005H122ZM129 25.0005H124V28.0005H129C129.552 28.0005 130 27.5528 130 27.0005V26.0005C130 25.4482 129.552 25.0005 129 25.0005Z" fill="#9DAAB3"/>
<path d="M119 23.0005C119 22.4482 118.552 22.0005 118 22.0005H108C107.448 22.0005 107 22.4482 107 23.0005V33.0005C107 33.5528 107.448 34.0005 108 34.0005H110V25.0005H111.5V34.0005H114.5V25.0005H116V34.0005H118C118.552 34.0005 119 33.5528 119 33.0005V23.0005Z" fill="#9DAAB3"/>
<path d="M93 23.0005C93 22.4482 93.4477 22.0005 94 22.0005H96V31.0005H102V22.0005H104C104.552 22.0005 105 22.4482 105 23.0005V33.0005C105 33.5528 104.552 34.0005 104 34.0005H94C93.4477 34.0005 93 33.5528 93 33.0005V23.0005Z" fill="#9DAAB3"/>
<path d="M88 22.0005H90C90.5523 22.0005 91 22.4482 91 23.0005V25.0005H88V22.0005Z" fill="#9DAAB3"/>
<path d="M91 27.0005H88V31.0005H79V33.0005C79 33.5528 79.4477 34.0005 80 34.0005H90C90.5523 34.0005 91 33.5528 91 33.0005V27.0005Z" fill="#9DAAB3"/>
</svg>
