<svg width="303" height="100" viewBox="0 0 303 100" fill="none" xmlns="http://www.w3.org/2000/svg">
    <g clip-path="url(#clip0_3_2)">
    <path d="M29.9231 49.9797L67.1895 71.3958C67.4875 71.5647 67.8243 71.653 68.1667 71.652C68.5092 71.6511 68.8455 71.5609 69.1426 71.3904C69.4398 71.2199 69.6876 70.975 69.8617 70.6795C70.0358 70.3841 70.1303 70.0483 70.1359 69.7053L70.1423 30.2673C70.1385 29.9235 70.0451 29.5868 69.8715 29.2903C69.6978 28.9939 69.4499 28.748 69.1522 28.5771C68.8546 28.4062 68.5175 28.3162 68.1745 28.3159C67.8314 28.3157 67.4943 28.4053 67.1964 28.5758L29.9231 49.9797Z" fill="#939EA7"/>
    <path d="M65.024 19.3466L40.2854 0.397463C40.0215 0.198789 39.7121 0.0694406 39.3855 0.0211993C39.059 -0.027042 38.7255 0.0073566 38.4156 0.121263C38.1057 0.235169 37.8291 0.424963 37.6111 0.673356C37.3931 0.92175 37.2406 1.22085 37.1675 1.54341L28.1221 43.7315L64.8233 22.6141C65.1071 22.4551 65.3466 22.2272 65.5196 21.9514C65.6927 21.6755 65.7939 21.3605 65.8139 21.0353C65.8339 20.7101 65.772 20.385 65.634 20.09C65.496 19.7949 65.2863 19.5393 65.024 19.3466Z" fill="#939EA7"/>
    <path d="M40.2689 99.5936L65.0709 80.6238C65.3273 80.4273 65.5316 80.1707 65.6657 79.8765C65.7998 79.5823 65.8596 79.2596 65.8399 78.9367C65.8201 78.6139 65.7214 78.3009 65.5525 78.0253C65.3836 77.7497 65.1496 77.52 64.8712 77.3563L28.1196 56.2556L37.18 98.4466C37.2463 98.7701 37.3938 99.0713 37.6084 99.3219C37.823 99.5725 38.0978 99.7642 38.4069 99.8789C38.7159 99.9936 39.049 100.028 39.3747 99.9777C39.7005 99.9278 40.0082 99.7956 40.2689 99.5936Z" fill="#939EA7"/>
    <path d="M20.3694 49.9785L30.1304 4.52324C30.2152 4.12953 30.1767 3.71919 30.0201 3.34823C29.8635 2.97727 29.5965 2.66377 29.2555 2.45053C28.9145 2.23729 28.5161 2.13469 28.1148 2.15674C27.7134 2.1788 27.3286 2.32443 27.0129 2.57376L2.03935 21.6868C1.40663 22.1716 0.894129 22.7963 0.541769 23.5121C0.189409 24.2279 0.00669829 25.0155 0.00786486 25.8137L8.28534e-06 74.2228C-0.0014169 75.0209 0.181039 75.8086 0.533166 76.5245C0.885294 77.2405 1.39759 77.8653 2.03016 78.3503L26.9976 97.4428C27.3155 97.6818 27.6982 97.8189 28.0953 97.836C28.4923 97.8531 28.8853 97.7495 29.2226 97.5387C29.5598 97.328 29.8256 97.02 29.985 96.6551C30.1444 96.2903 30.1899 95.8857 30.1156 95.4944L20.3694 49.9785Z" fill="#939EA7"/>
    <path d="M214.732 36.7248C216.516 36.6882 218.278 37.1256 219.839 37.9924C221.4 38.8592 222.704 40.1247 223.619 41.6601L220.532 44.0432C219.872 43.0453 219.003 42.2034 217.986 41.5758C217.002 40.9878 215.876 40.6836 214.731 40.697C213.699 40.6743 212.682 40.9579 211.81 41.5121C211.397 41.7848 211.063 42.1628 210.843 42.6072C210.623 43.0516 210.525 43.5465 210.558 44.0414C210.545 44.5113 210.645 44.9774 210.85 45.4001C211.048 45.7818 211.317 46.1223 211.642 46.4035C212.01 46.7195 212.416 46.9868 212.852 47.1987C213.325 47.4362 213.84 47.694 214.396 47.9722L217.483 49.3945C218.448 49.8338 219.382 50.337 220.279 50.9006C221.052 51.3785 221.755 51.9624 222.366 52.6354C222.911 53.2472 223.348 53.9474 223.659 54.706C223.975 55.5184 224.131 56.3846 224.118 57.2565C224.135 58.4041 223.892 59.5407 223.407 60.5805C222.947 61.5523 222.278 62.4093 221.446 63.0888C220.571 63.7941 219.573 64.3323 218.504 64.6767C217.325 65.0616 216.092 65.2521 214.852 65.2408C212.699 65.2818 210.576 64.7245 208.719 63.6306C206.947 62.5667 205.481 61.0608 204.463 59.2599L207.593 56.8774C207.987 57.4687 208.427 58.0281 208.908 58.5502C209.389 59.0759 209.928 59.5458 210.514 59.951C211.112 60.3625 211.765 60.6866 212.454 60.9134C213.215 61.1584 214.012 61.2784 214.811 61.2686C216.041 61.3272 217.254 60.9663 218.253 60.2447C218.683 59.9151 219.027 59.4866 219.256 58.9954C219.485 58.5043 219.592 57.965 219.569 57.4233C219.579 56.9403 219.479 56.4614 219.277 56.0226C219.077 55.6118 218.793 55.2481 218.442 54.9554C218.048 54.6274 217.621 54.3402 217.169 54.0982C216.682 53.8338 216.133 53.5621 215.521 53.2831L212.477 51.8608C211.619 51.4603 210.783 51.0134 209.973 50.5221C209.222 50.0715 208.535 49.523 207.928 48.8908C207.351 48.288 206.885 47.5873 206.551 46.8214C206.206 45.9945 206.036 45.1046 206.052 44.2083C206.036 43.1369 206.272 42.0768 206.741 41.1137C207.193 40.2024 207.833 39.3975 208.618 38.7523C209.436 38.0841 210.37 37.5737 211.373 37.2468C212.457 36.8925 213.592 36.7162 214.732 36.7248Z" fill="#939EA7"/>
    <path d="M248.652 57.5531L253.954 44.2573L258.586 44.2585L249.527 65.2466H248.025L241.559 51.5313L235.173 65.2443H233.671L224.578 44.2526L229.252 44.2532L234.632 57.676L240.851 43.7957H242.353L248.652 57.5531Z" fill="#939EA7"/>
    <path d="M268.767 43.801C269.93 43.7873 271.087 43.9713 272.189 44.3451C273.178 44.6836 274.081 45.233 274.838 45.9553C275.603 46.7102 276.194 47.6239 276.569 48.6322C277.008 49.8299 277.22 51.0989 277.195 52.3744L277.193 64.7926L273.103 64.792V62.4926C272.356 63.3741 271.413 64.0682 270.35 64.5194C269.148 65.0242 267.855 65.2732 266.552 65.2508C265.556 65.263 264.563 65.1217 263.61 64.8319C262.786 64.5818 262.02 64.1694 261.357 63.619C260.744 63.1065 260.252 62.4638 259.917 61.7373C259.575 60.9754 259.405 60.1474 259.417 59.312C259.386 58.4852 259.556 57.6631 259.912 56.9165C260.268 56.17 260.8 55.5215 261.462 55.0268C263.074 53.9065 265.012 53.3552 266.971 53.4599L272.77 53.4604L272.772 52.1223C272.842 51.5287 272.777 50.9267 272.582 50.3618C272.387 49.7968 272.066 49.2837 271.645 48.8609C271.223 48.4381 270.711 48.1168 270.147 47.9211C269.583 47.7254 268.982 47.6604 268.39 47.7311C267.294 47.7057 266.213 47.9802 265.261 48.5251C264.282 49.1318 263.408 49.8944 262.673 50.783L260.17 48.1904C261.128 46.7716 262.437 45.6263 263.969 44.8665C265.467 44.1505 267.108 43.7861 268.767 43.801ZM267.47 61.8642C268.167 61.8689 268.86 61.7486 269.515 61.5091C270.136 61.2837 270.709 60.9433 271.204 60.5056C271.691 60.0757 272.082 59.5488 272.354 58.9586C272.634 58.3492 272.776 57.6853 272.771 57.0144V56.6381L267.513 56.6375C266.574 56.5801 265.639 56.7978 264.821 57.2642C264.514 57.4681 264.266 57.7492 264.101 58.0794C263.936 58.4096 263.861 58.7773 263.882 59.1458C263.862 59.546 263.948 59.9442 264.131 60.3004C264.315 60.6565 264.588 60.9578 264.925 61.1738C265.686 61.6524 266.572 61.8928 267.47 61.8642Z" fill="#939EA7"/>
    <path d="M292.844 43.8036C294.228 43.7912 295.6 44.0692 296.871 44.6198C298.079 45.1433 299.166 45.9121 300.062 46.8777C300.966 47.8635 301.674 49.0134 302.148 50.2655C302.66 51.6209 302.914 53.0602 302.898 54.5092C302.912 55.965 302.657 57.4109 302.147 58.774C301.674 60.0376 300.958 61.1956 300.039 62.1816C299.117 63.1655 298.001 63.9466 296.762 64.4754C295.523 65.0042 294.187 65.2691 292.84 65.2534C291.502 65.2688 290.175 65.0127 288.939 64.5004C287.796 64.0271 286.785 63.2804 285.997 62.3255L285.996 72.3185L281.615 72.3179L281.62 44.2617L285.666 44.2623L285.665 47.2311C286.426 46.1365 287.464 45.2637 288.671 44.7017C289.977 44.0913 291.403 43.7843 292.844 43.8036ZM292.134 47.8174C291.372 47.8192 290.617 47.9534 289.901 48.2141C289.165 48.4789 288.49 48.8916 287.919 49.427C287.307 50.0099 286.824 50.7146 286.5 51.4959C286.116 52.4516 285.931 53.4762 285.957 54.5063C285.931 55.5345 286.108 56.5577 286.478 57.5172C286.793 58.3044 287.269 59.0168 287.876 59.6083C288.442 60.155 289.117 60.5753 289.857 60.8417C290.586 61.1055 291.356 61.2401 292.132 61.2396C292.969 61.2443 293.799 61.081 294.572 60.7592C295.325 60.4473 296.007 59.9848 296.576 59.4C297.159 58.7939 297.614 58.0758 297.912 57.289C298.55 55.5191 298.551 53.5814 297.913 51.8113C297.617 51.0281 297.17 50.3108 296.598 49.6996C296.037 49.1111 295.363 48.6419 294.617 48.3199C293.833 47.9811 292.987 47.81 292.134 47.8174Z" fill="#939EA7"/>
    <path d="M102.8 64.7631L98.377 64.7625L98.3816 37.1663L102.804 37.1668L102.8 64.7631ZM108.435 50.0876L121.16 64.766L115.693 64.7649L102.927 50.087L114.488 37.1686L119.913 37.1698L108.435 50.0876Z" fill="#939EA7"/>
    <path d="M130.883 67.1108C130.238 68.7929 129.166 70.2771 127.773 71.4165C126.476 72.3353 124.915 72.8049 123.328 72.7541C122.756 72.7524 122.185 72.7174 121.617 72.6493C121.054 72.5831 120.497 72.4783 119.948 72.3357V68.6145C120.449 68.6695 120.895 68.7112 121.284 68.7397C121.673 68.7672 122.049 68.781 122.41 68.7812C123.287 68.7981 124.154 68.5973 124.935 68.1967C125.828 67.6209 126.509 66.7699 126.877 65.7721L127.711 63.8488L119.536 44.2368L124.251 44.238L130.091 59.2078L136.186 44.2398L140.858 44.2404L130.883 67.1108Z" fill="#939EA7"/>
    <path d="M147.534 46.7496C148.338 45.8114 149.344 45.0682 150.477 44.5759C151.706 44.0367 153.036 43.7661 154.378 43.7819C155.725 43.7668 157.06 44.0322 158.299 44.5614C159.538 45.0906 160.654 45.872 161.576 46.856C162.494 47.8426 163.21 49.0009 163.682 50.2648C164.192 51.628 164.446 53.0739 164.432 54.5296C164.447 55.9787 164.193 57.4179 163.681 58.7734C163.207 60.0252 162.499 61.1747 161.594 62.1599C160.703 63.1222 159.623 63.8905 158.423 64.4172C157.16 64.9688 155.794 65.2463 154.417 65.2317C152.972 65.2495 151.54 64.9495 150.223 64.3529C149.006 63.8076 147.96 62.9402 147.197 61.844V64.7706L143.151 64.77L143.156 33.4104L147.536 33.411L147.534 46.7496ZM153.668 47.7957C152.893 47.7953 152.123 47.9295 151.393 48.1924C150.654 48.4594 149.978 48.8797 149.412 49.4258C148.805 50.0172 148.329 50.7293 148.014 51.5163C147.643 52.4755 147.466 53.4986 147.492 54.5267C147.467 55.5634 147.651 56.5945 148.034 57.5581C148.353 58.348 148.837 59.0608 149.452 59.6492C150.02 60.1836 150.696 60.5899 151.433 60.8411C152.152 61.089 152.906 61.2163 153.666 61.2179C154.519 61.2251 155.365 61.0544 156.149 60.7164C156.895 60.3945 157.57 59.9253 158.132 59.3368C158.703 58.7259 159.15 58.0088 159.447 57.2258C160.085 55.4561 160.085 53.5186 159.448 51.7486C159.149 50.9614 158.695 50.2429 158.112 49.6364C157.543 49.0518 156.862 48.5894 156.109 48.2772C155.336 47.9548 154.506 47.7911 153.668 47.7957Z" fill="#939EA7"/>
    <path d="M177.954 43.7864C179.254 43.7744 180.543 44.0161 181.751 44.4979C182.874 44.9378 183.894 45.6049 184.748 46.4574C185.602 47.31 186.272 48.3297 186.715 49.4531C187.195 50.6417 187.435 51.9134 187.424 53.1954C187.425 53.7269 187.39 54.2578 187.319 54.7845C187.27 55.1796 187.194 55.5706 187.09 55.9547L171.817 55.9523C172.043 57.5136 172.848 58.9321 174.071 59.9252C175.337 60.8969 176.899 61.3995 178.493 61.3475C179.611 61.3638 180.72 61.1431 181.747 60.7C182.74 60.2559 183.656 59.6562 184.461 58.9236L186.588 61.9345C185.518 62.9557 184.275 63.7767 182.916 64.3587C181.49 64.9565 179.956 65.2552 178.41 65.2363C176.897 65.2495 175.395 64.9727 173.986 64.4207C172.686 63.9201 171.501 63.1594 170.505 62.1851C169.508 61.2107 168.719 60.0431 168.188 58.7534C167.626 57.4174 167.341 55.9805 167.353 54.5307C167.342 53.0827 167.619 51.647 168.168 50.3075C168.686 49.0334 169.452 47.8752 170.42 46.9004C171.387 45.935 172.527 45.1619 173.78 44.622C175.099 44.0568 176.52 43.7723 177.954 43.7864ZM177.827 47.5076C176.424 47.472 175.057 47.9557 173.988 48.8662C172.904 49.8175 172.17 51.1055 171.902 52.5243L183.043 52.526C183.059 51.8262 182.924 51.1313 182.647 50.4888C182.369 49.8464 181.956 49.2717 181.437 48.8042C180.432 47.9439 179.148 47.4826 177.827 47.5076Z" fill="#939EA7"/>
    <path d="M201.655 44.0406C201.969 44.0376 202.283 44.0587 202.594 44.1037C202.858 44.1453 203.101 44.194 203.324 44.25L203.323 48.1386L201.988 48.138C201.202 48.1347 200.421 48.2547 199.672 48.4938C198.966 48.7128 198.312 49.0755 197.752 49.5592C197.197 50.0501 196.756 50.6565 196.459 51.3362C196.124 52.1219 195.96 52.9699 195.977 53.824L195.976 64.7789L191.596 64.7783L191.599 44.2483L195.646 44.2489L195.645 47.0088C196.333 46.0631 197.244 45.3019 198.295 44.7925C199.344 44.2902 200.493 44.0331 201.655 44.0406Z" fill="#939EA7"/>
    </g>
    <defs>
    <clipPath id="clip0_3_2">
    <rect width="303" height="100" fill="white"/>
    </clipPath>
    </defs>
    </svg>    
    