<svg width="200" height="56" viewBox="0 0 200 56" fill="none" xmlns="http://www.w3.org/2000/svg">
<path d="M67.876 34.3223L57.6819 36.6823C57.3101 36.7754 57.0312 37.1481 57.0312 37.5207V44.5384C57.0312 45.1283 57.496 45.5011 58.0847 45.3769L72.3068 42.0852C72.8956 41.9611 73.1434 41.4021 72.8956 40.8742L70.3238 35.5644C69.921 34.726 70.3238 33.8566 71.2224 33.6703L80.5178 31.4345C81.1685 31.2793 81.7263 30.5961 81.7263 29.913V23.4231C81.7263 22.8331 81.2615 22.4294 80.6728 22.5847L67.2563 25.783C66.4197 25.9694 66.0479 26.7767 66.4197 27.553L68.7746 32.4282C69.1774 33.2666 68.7746 34.105 67.876 34.3223Z" fill="#9DAAB3"/>
<path d="M61.152 16.778L63.8167 22.2432C64.1575 22.9574 63.8167 23.7026 63.0421 23.8579L58.1155 25.0068C57.4958 25.1621 57 25.7831 57 26.4042V32.273C57 33.2666 57.8056 33.8877 58.7661 33.6703L63.3519 32.6145C63.9716 32.4903 64.4674 31.8382 64.4674 31.2172L64.4984 25.1931C64.4984 24.3547 65.18 23.5163 65.9857 23.33L81.0134 19.728C81.3852 19.6348 81.664 19.2622 81.664 18.8896V11.8718C81.664 11.2818 81.1993 10.8782 80.6106 11.0334L61.7407 15.567C61.152 15.6912 60.9041 16.2501 61.152 16.778Z" fill="#9DAAB3"/>
<path d="M107.169 33.1146H98.5862V19.6001H94.625V36.8004H107.169V33.1146Z" fill="#9DAAB3"/>
<path d="M109.754 36.8004H113.715V19.6001H109.754V36.8004Z" fill="#9DAAB3"/>
<path d="M116.672 36.8007H120.438V33.0166H116.672V36.8007Z" fill="#9DAAB3"/>
<path d="M127.352 30.0923H135.642V26.7014H127.352V23.0893H136.351V19.6001H123.391V36.8004H127.352V30.0923Z" fill="#9DAAB3"/>
<path d="M139.039 36.8004H143.001V19.6001H139.039V36.8004Z" fill="#9DAAB3"/>
</svg>
