<svg width="200" height="56" viewBox="0 0 200 56" fill="none" xmlns="http://www.w3.org/2000/svg">
<path d="M65.63 48.27H59.633V19.0859H65.63V48.27Z" fill="#9DAAB3"/>
<path d="M87.3004 18.513C90.6107 18.513 93.3156 19.6741 95.4111 21.9956C97.5037 24.3174 98.553 27.2693 98.553 30.8481V48.267H92.5556V31.7618C92.5556 29.5156 91.8322 27.6581 90.3848 26.193C88.9374 24.7274 87.1496 23.9948 85.0178 23.9948C82.6178 23.9948 80.6578 24.7274 79.1352 26.193C77.6126 27.6581 76.8496 29.5156 76.8496 31.7618V48.267H70.8526V19.0859H76.8496V26.6241C77.6485 24.1122 78.9722 22.1315 80.8207 20.6841C82.6659 19.2367 84.8278 18.513 87.3033 18.513H87.3004Z" fill="#9DAAB3"/>
<path d="M117.25 18.513C121.933 18.513 125.741 20.1896 128.671 23.5393C131.602 26.8922 132.803 30.9448 132.269 35.7056H108.111C108.53 38.0667 109.616 39.9811 111.367 41.4467C113.119 42.9119 115.23 43.6448 117.706 43.6448C119.608 43.6448 121.311 43.1774 122.816 42.2456C124.321 41.3141 125.491 40.0474 126.329 38.4467L131.355 40.6748C130.061 43.15 128.213 45.1281 125.816 46.6144C123.419 48.1011 120.657 48.843 117.534 48.843C113.156 48.843 109.48 47.3956 106.51 44.5041C103.54 41.6126 102.054 38.0122 102.054 33.7096C102.054 29.407 103.51 25.8007 106.423 22.8852C109.335 19.9726 112.941 18.5163 117.247 18.5163L117.25 18.513ZM117.25 23.7111C115.04 23.7111 113.129 24.3867 111.509 25.7404C109.89 27.0915 108.814 28.8522 108.283 31.023H126.217C125.723 28.8522 124.664 27.0915 123.048 25.7404C121.429 24.3896 119.496 23.7111 117.25 23.7111Z" fill="#9DAAB3"/>
<path d="M148.849 18.513C152.353 18.513 155.208 19.4267 157.415 21.2541C159.623 23.0811 160.729 25.7104 160.729 29.1356V48.27H154.732V40.503C152.941 46.063 149.344 48.843 143.937 48.843C141.423 48.843 139.33 48.0922 137.654 46.5874C135.977 45.083 135.142 43.1141 135.142 40.6778C135.142 37.8222 136.149 35.6785 138.169 34.2522C140.187 32.8263 142.759 31.9396 145.879 31.5959L151.533 31.023C153.664 30.8333 154.732 29.8804 154.732 28.1678C154.732 26.7596 154.189 25.6348 153.104 24.7996C152.018 23.9615 150.601 23.5426 148.849 23.5426C147.097 23.5426 145.544 24.0007 144.308 24.9144C143.072 25.8278 142.282 27.1607 141.939 28.9126L135.999 27.4833C136.532 24.7426 137.958 22.5626 140.283 20.9433C142.605 19.327 145.46 18.5163 148.849 18.5163V18.513ZM145.879 43.9856C148.355 43.9856 150.447 43.1563 152.16 41.5007C153.873 39.8456 154.729 37.913 154.729 35.7026V34.1044C154.273 34.8674 153.167 35.3407 151.415 35.5307L145.876 36.2152C144.429 36.4081 143.277 36.8333 142.421 37.4996C141.564 38.1659 141.136 39.0707 141.136 40.2133C141.136 41.3563 141.564 42.2696 142.421 42.9541C143.277 43.6385 144.429 43.9822 145.876 43.9822L145.879 43.9856Z" fill="#9DAAB3"/>
<path d="M55.5022 48.27H27.8017V19.0859H34.1396V42.6163H55.5022V48.27Z" fill="#9DAAB3"/>
<path d="M166.383 18.513C169.505 18.513 172.036 15.9819 172.036 12.8597C172.036 9.73733 169.505 7.20618 166.383 7.20618C163.26 7.20618 160.729 9.73733 160.729 12.8597C160.729 15.9819 163.26 18.513 166.383 18.513Z" fill="#9DAAB3"/>
</svg>
