<svg width="200" height="56" viewBox="0 0 200 56" fill="none" xmlns="http://www.w3.org/2000/svg">
<g clipPath="url(#clip0_1_20)">
<path d="M76.5075 42.3191H72.3924V22.2932H76.5075V42.3191Z" fill="#9DAAB3"/>
<path d="M91.3775 21.9001C93.649 21.9001 95.5051 22.6969 96.943 24.2898C98.3789 25.883 99.099 27.9086 99.099 30.3643V42.317H94.9836V30.9913C94.9836 29.45 94.4872 28.1754 93.494 27.1701C92.5008 26.1644 91.2741 25.6617 89.8112 25.6617C88.1644 25.6617 86.8194 26.1644 85.7746 27.1701C84.7299 28.1754 84.2063 29.45 84.2063 30.9913V42.317H80.0912V22.2932H84.2063V27.4659C84.7545 25.7422 85.6628 24.3831 86.9312 23.3899C88.1974 22.3967 89.6809 21.9001 91.3795 21.9001H91.3775Z" fill="#9DAAB3"/>
<path d="M111.929 21.9001C115.142 21.9001 117.755 23.0506 119.766 25.3491C121.777 27.6498 122.601 30.4307 122.235 33.6975H105.658C105.945 35.3177 106.69 36.6313 107.892 37.637C109.094 38.6424 110.543 39.1453 112.241 39.1453C113.547 39.1453 114.716 38.8246 115.748 38.1852C116.781 37.546 117.583 36.6768 118.159 35.5784L121.607 37.1073C120.719 38.8058 119.451 40.1631 117.807 41.183C116.162 42.2032 114.267 42.7123 112.123 42.7123C109.119 42.7123 106.597 41.7191 104.559 39.735C102.521 37.7508 101.501 35.2803 101.501 32.3279C101.501 29.3755 102.5 26.9009 104.499 24.9003C106.498 22.9017 108.972 21.9024 111.927 21.9024L111.929 21.9001ZM111.929 25.467C110.412 25.467 109.101 25.9306 107.989 26.8595C106.878 27.7866 106.14 28.9948 105.776 30.4844H118.082C117.742 28.9948 117.016 27.7866 115.907 26.8595C114.796 25.9326 113.47 25.467 111.929 25.467Z" fill="#9DAAB3"/>
<path d="M133.612 21.9001C136.016 21.9001 137.975 22.5271 139.49 23.781C141.005 25.0347 141.764 26.8389 141.764 29.1892V42.3191H137.648V36.9894C136.42 40.8047 133.951 42.7123 130.241 42.7123C128.516 42.7123 127.08 42.1971 125.93 41.1645C124.779 40.1322 124.206 38.7812 124.206 37.1094C124.206 35.1499 124.897 33.6789 126.283 32.7002C127.668 31.7218 129.433 31.1133 131.574 30.8775L135.453 30.4844C136.916 30.3542 137.648 29.7003 137.648 28.5251C137.648 27.5589 137.276 26.787 136.531 26.2139C135.786 25.6388 134.814 25.3514 133.612 25.3514C132.409 25.3514 131.344 25.6657 130.496 26.2927C129.647 26.9195 129.105 27.8341 128.87 29.0362L124.794 28.0554C125.16 26.1748 126.138 24.6789 127.734 23.5678C129.327 22.4587 131.286 21.9024 133.612 21.9024V21.9001ZM131.574 39.3792C133.273 39.3792 134.708 38.8101 135.884 37.6741C137.059 36.5383 137.646 35.2122 137.646 33.6955V32.5988C137.334 33.1223 136.575 33.4471 135.372 33.5775L131.572 34.0472C130.579 34.1796 129.788 34.4713 129.201 34.9285C128.613 35.3857 128.319 36.0066 128.319 36.7907C128.319 37.575 128.613 38.2017 129.201 38.6714C129.788 39.141 130.579 39.3768 131.572 39.3768L131.574 39.3792Z" fill="#9DAAB3"/>
<path d="M69.5579 42.3191H50.5501V22.2932H54.8991V38.4396H69.5579V42.3191Z" fill="#9DAAB3"/>
<path d="M145.643 21.9001C147.786 21.9001 149.522 20.1633 149.522 18.0208C149.522 15.8783 147.786 14.1415 145.643 14.1415C143.5 14.1415 141.764 15.8783 141.764 18.0208C141.764 20.1633 143.5 21.9001 145.643 21.9001Z" fill="#9DAAB3"/>
</g>
<defs>
<clipPath id="clip0_1_20">
<rect width="100.184" height="28.82" fill="white" transform="translate(50 14)"/>
</clipPath>
</defs>
</svg>
