<svg width="200" height="56" viewBox="0 0 200 56" fill="none" xmlns="http://www.w3.org/2000/svg">
<path d="M69.5748 43.9296L73.7507 39.2375C73.8211 39.1672 73.7742 39.0499 73.6569 39.0499H69.0587C69.0352 39.0499 68.9883 39.0264 68.9648 39.0029L65.0704 34.6393C65.0469 34.5924 65.0235 34.5455 65.0469 34.4985L71.5689 23.3079C71.5924 23.261 71.5924 23.2141 71.5689 23.1906L68.871 18.5455C68.824 18.4751 68.7067 18.4751 68.6598 18.5455L59.0176 35.1085C58.9941 35.1554 58.9941 35.2024 59.0176 35.2493L66.7595 43.9531C66.783 43.9765 66.8065 44 66.8534 44H69.4809C69.5044 43.9765 69.5513 43.9531 69.5748 43.9296Z" fill="#9DAAB3"/>
<path d="M72.437 12.0704L69.7156 16.7155C69.6921 16.7625 69.6921 16.8094 69.7156 16.8328L72.5308 21.6657L79.9913 34.4751C80.0147 34.522 80.0147 34.5689 79.9678 34.6158L76.0264 39.0264L71.827 43.7654C71.7566 43.8358 71.8036 43.9531 71.9209 43.9531H78.2083C78.2317 43.9531 78.2786 43.9296 78.3021 43.9062L86.044 35.2023C86.0675 35.1554 86.091 35.1085 86.0675 35.0616L72.6247 12.0704C72.6012 11.9765 72.4839 11.9765 72.437 12.0704Z" fill="#9DAAB3"/>
<path d="M97.657 37.4546V22.5337C97.657 22.4164 97.5163 22.3695 97.4459 22.4634L92.8946 27.5543C92.8711 27.5777 92.8711 27.6012 92.8711 27.6246V42.2639C92.8711 42.3343 92.918 42.3812 92.9884 42.3812H97.657H104.484C104.554 42.3812 104.601 42.3343 104.601 42.2639V37.6892C104.601 37.6188 104.554 37.5719 104.484 37.5719H97.7743C97.7274 37.5719 97.657 37.5249 97.657 37.4546Z" fill="#9DAAB3"/>
<path d="M111.217 42.2639V28.2815C111.217 28.1642 111.076 28.1173 111.006 28.2112L106.455 33.3021C106.431 33.3255 106.431 33.349 106.431 33.3725V42.2639C106.431 42.3343 106.478 42.3812 106.548 42.3812H111.1C111.17 42.3812 111.217 42.3109 111.217 42.2639Z" fill="#9DAAB3"/>
<path d="M135.851 35.2493C135.827 35.2024 135.827 35.1554 135.851 35.1085L140.519 28.1642C140.566 28.0938 140.519 27.9765 140.425 27.9765H135.194C135.147 27.9765 135.123 28 135.1 28.0235L131.651 33.607C131.581 33.7009 131.44 33.654 131.44 33.5367V22.5103C131.44 22.393 131.299 22.346 131.229 22.4399L126.678 27.5308C126.654 27.5543 126.654 27.5777 126.654 27.6012V42.2639C126.654 42.3343 126.701 42.3812 126.771 42.3812H131.323C131.393 42.3812 131.44 42.3343 131.44 42.2639V37.5719V36.6569C131.44 36.5396 131.581 36.4927 131.651 36.5865L135.475 42.3343C135.499 42.3578 135.546 42.3812 135.569 42.3812H140.636C140.73 42.3812 140.777 42.2639 140.73 42.1936L135.851 35.2493Z" fill="#9DAAB3"/>
<path d="M118.935 42.6627C121.891 42.6627 125.035 41.4193 125.035 37.9472C125.035 34.4751 122.126 33.8182 119.991 33.3255C118.818 33.044 117.88 32.8328 117.88 32.1994C117.88 31.7067 118.326 31.4017 119.053 31.4017C119.804 31.4017 120.413 31.7771 120.836 32.5044C120.859 32.5513 120.93 32.5748 120.977 32.5513L124.589 30.9325C124.66 30.9091 124.683 30.8387 124.636 30.7683C123.534 28.7507 121.61 27.7185 118.935 27.7185C115.065 27.695 113.305 30.0645 113.305 32.4105C113.305 35.6246 116.167 36.3519 118.255 36.8915C119.475 37.1965 120.343 37.4311 120.343 38.041C120.343 38.4399 120.109 38.9325 118.935 38.9325C117.856 38.9325 117.082 38.4633 116.683 37.5249C116.66 37.4545 116.589 37.4311 116.519 37.4545L112.789 39.3314C112.718 39.3548 112.695 39.4252 112.742 39.4956C113.798 41.6305 115.839 42.6627 118.935 42.6627Z" fill="#9DAAB3"/>
</svg>
