
<svg width="809" height="226" viewBox="0 0 809 226" fill="none" xmlns="http://www.w3.org/2000/svg">
    <mask id="mask0_1_16" style="mask-type:luminance" maskUnits="userSpaceOnUse" x="20" y="29" width="770" height="168">
    <path d="M789.146 29H20V196.4H789.146V29Z" fill="white"/>
    </mask>
    <g mask="url(#mask0_1_16)">
    <path d="M185.578 104.274H182.548C169.118 104.274 156.503 99.0387 147.01 89.5451C137.516 80.0516 132.301 67.4272 132.311 53.9973C132.311 45.5005 125.979 38.1714 117.563 36.9633L63.6017 29.2115C57.8633 28.386 52.0242 30.0471 47.5744 33.7619C43.1549 37.4566 40.487 42.8628 40.2756 48.6012C40.2051 50.3932 40.1749 52.2154 40.1749 53.9973C40.1749 71.6957 43.4267 88.6391 49.3564 104.284H40.4367C29.1713 104.284 20.01 113.445 20.01 124.71V175.983C20.01 187.249 29.1713 196.41 40.4367 196.41H185.588C196.853 196.41 206.015 187.249 206.015 175.983V124.71C206.015 113.445 196.853 104.284 185.588 104.284L185.578 104.274ZM40.4266 181.349C37.4668 181.349 35.0506 178.933 35.0506 175.973V124.7C35.0506 121.741 37.4668 119.324 40.4266 119.324H56.0713C69.924 146.043 91.9916 167.839 118.922 181.349H40.4266ZM190.954 175.973C190.954 178.933 188.538 181.349 185.578 181.349H182.588C112.358 181.349 55.2256 124.217 55.2256 53.9872C55.2256 52.3865 55.2558 50.7556 55.3162 49.1549C55.3968 47.1314 56.5344 45.873 57.219 45.3092C57.823 44.8058 59.011 44.0407 60.662 44.0407C60.9137 44.0407 61.1855 44.0608 61.4573 44.1011L115.408 51.853C116.455 52.004 117.251 52.9201 117.241 53.9772C117.23 71.4239 124.016 87.8337 136.348 100.176C148.681 112.519 165.081 119.314 182.537 119.314H185.568C188.528 119.314 190.944 121.73 190.944 124.69V175.963L190.954 175.973Z" fill="#939EA7"/>
    <path d="M377.522 113.807C372.337 111.421 366.126 110.223 358.907 110.223C350.048 110.223 342.8 112.116 337.142 115.901C331.665 119.566 327.276 124.147 323.933 129.603C321.799 122.898 317.964 117.995 312.406 114.935C306.698 111.784 299.883 110.213 291.96 110.213C286.594 110.213 281.671 111.119 277.191 112.921C272.701 114.724 268.885 117.18 265.744 120.261C262.915 123.039 260.479 126.09 258.405 129.392V111.784H243.203V188.86H259.281V150.936C259.281 146.275 260.509 141.845 262.945 137.657C265.392 133.459 268.774 130.056 273.083 127.429C277.392 124.811 282.577 123.492 288.637 123.492C295.513 123.492 300.899 125.385 304.806 129.17C308.712 132.956 310.665 139.278 310.665 148.137V188.86H326.4V151.107C326.4 145.983 327.568 141.352 329.893 137.214C332.219 133.076 335.632 129.754 340.122 127.247C344.602 124.741 349.817 123.492 355.766 123.492C362.995 123.492 368.492 125.355 372.287 129.09C376.072 132.815 377.965 139.167 377.965 148.137V188.86H393.7V147.432C393.7 138.11 392.301 130.771 389.502 125.405C386.703 120.049 382.717 116.173 377.532 113.787L377.522 113.807Z" fill="#939EA7"/>
    <path d="M484.276 113.717C478.276 111.391 471.018 110.223 462.511 110.223C457.497 110.223 452.544 110.656 447.651 111.532C442.758 112.408 437.976 113.576 433.315 115.026C428.654 116.485 424.516 118.378 420.902 120.704L425.795 132.241C430.919 128.979 436.517 126.593 442.577 125.073C448.638 123.563 454.93 122.798 461.454 122.798C469.96 122.798 476.424 124.287 480.853 127.257C485.283 130.227 487.498 134.456 487.498 139.932V143.778H467.927C455.111 143.778 445.054 144.624 437.775 146.315C430.486 148.006 425.131 150.483 421.698 153.745C418.255 157.006 416.543 161.033 416.543 165.805C416.543 170.577 418.083 174.695 421.174 178.48C424.265 182.265 428.483 185.205 433.849 187.309C439.205 189.403 445.446 190.45 452.554 190.45C458.725 190.45 464.262 189.574 469.155 187.833C474.048 186.091 478.186 183.755 481.568 180.846C484.357 178.44 486.622 175.792 488.384 172.903V188.88H502.891V141.865C502.891 134.758 501.29 128.878 498.089 124.207C494.887 119.546 490.276 116.052 484.276 113.717ZM483.229 167.547C480.37 171.04 476.444 173.728 471.43 175.591C466.417 177.453 461.001 178.389 455.172 178.389C448.416 178.389 442.99 177.252 438.913 174.977C434.835 172.701 432.792 169.47 432.792 165.272C432.792 163.52 433.285 161.919 434.272 160.47C435.258 159.01 437.07 157.792 439.688 156.805C442.305 155.818 445.92 155.053 450.52 154.53C455.121 154.006 461.031 153.745 468.259 153.745H487.488V156.191C487.488 160.268 486.058 164.054 483.209 167.547H483.229Z" fill="#939EA7"/>
    <path d="M564.604 177.161C560.879 177.161 557.667 176.467 554.989 175.067C552.311 173.668 550.268 171.604 548.868 168.866C547.469 166.127 546.774 162.896 546.774 159.171V65.6553H530.868V160.56C530.868 169.993 533.516 177.343 538.821 182.578C544.117 187.823 551.607 190.44 561.281 190.44C563.607 190.44 565.852 190.289 568.006 190.007C570.161 189.715 572.345 189.333 574.56 188.87L574.731 176.114C573.211 176.467 571.55 176.728 569.748 176.9C567.936 177.071 566.224 177.161 564.594 177.161H564.604Z" fill="#939EA7"/>
    <path d="M663.666 126.925C661.019 122.163 656.72 118.247 650.73 115.207C644.206 111.885 636.454 110.223 627.484 110.223C618.514 110.223 610.591 111.945 603.715 115.378C596.839 118.821 591.423 123.502 587.457 129.452C583.49 135.392 581.517 142.389 581.517 150.422C581.517 158.456 583.44 165.453 587.285 171.393C591.131 177.332 596.487 181.994 603.363 185.376C610.239 188.759 618.333 190.44 627.656 190.44C636.978 190.44 644.549 188.779 651.072 185.457C657.223 182.326 661.693 178.077 664.532 172.712V188.86H679.563V65.6553H663.656V126.925H663.666ZM655.28 170.084C649.451 175.158 641.297 177.685 630.807 177.685C620.316 177.685 612.514 175.148 606.685 170.084C600.856 165.01 597.947 158.517 597.947 150.594C597.947 142.671 600.886 135.644 606.776 130.58C612.655 125.506 620.729 122.979 630.978 122.979C641.226 122.979 649.441 125.516 655.27 130.58C661.099 135.644 664.009 142.318 664.009 150.594C664.009 158.869 661.099 165.01 655.27 170.084H655.28Z" fill="#939EA7"/>
    <path d="M784.344 124.207C781.143 119.546 776.542 116.052 770.532 113.717C764.531 111.391 757.273 110.223 748.766 110.223C743.752 110.223 738.799 110.656 733.906 111.532C729.014 112.408 724.232 113.576 719.571 115.026C714.909 116.485 710.772 118.378 707.158 120.704L712.05 132.241C717.175 128.979 722.772 126.593 728.833 125.073C734.893 123.563 741.185 122.798 747.709 122.798C756.216 122.798 762.679 124.287 767.109 127.257C771.538 130.227 773.753 134.456 773.753 139.932V143.778H754.182C741.366 143.778 731.309 144.624 724.03 146.315C716.752 148.006 711.386 150.483 707.953 153.745C704.51 157.006 702.798 161.033 702.798 165.805C702.798 170.577 704.339 174.695 707.429 178.48C710.51 182.265 714.738 185.205 720.104 187.309C725.46 189.403 731.702 190.45 738.809 190.45C744.981 190.45 750.518 189.574 755.41 187.833C760.303 186.091 764.441 183.755 767.813 180.846C770.602 178.44 772.867 175.792 774.629 172.903V188.88H789.136V141.865C789.136 134.758 787.535 128.878 784.334 124.207H784.344ZM769.484 167.557C766.625 171.05 762.699 173.738 757.686 175.601C752.672 177.463 747.256 178.4 741.427 178.4C734.672 178.4 729.245 177.262 725.168 174.987C721.091 172.711 719.047 169.48 719.047 165.282C719.047 163.53 719.54 161.929 720.537 160.48C721.524 159.02 723.336 157.802 725.953 156.815C728.571 155.829 732.185 155.063 736.786 154.54C741.387 154.016 747.296 153.755 754.524 153.755H773.753V156.201C773.753 160.278 772.324 164.064 769.474 167.557H769.484Z" fill="#939EA7"/>
    </g>
</svg>
    