<svg width="200" height="56" viewBox="0 0 200 56" fill="none" xmlns="http://www.w3.org/2000/svg">
<path d="M78.5625 38.868V22.786H80.9553L81.1831 24.0841H81.2971C81.9807 23.195 83.1425 22.5581 84.7601 22.5581C87.7206 22.5581 90.0909 24.9732 90.0909 28.5482C90.0909 32.1231 87.7226 34.5382 84.7601 34.5382C83.1649 34.5382 82.0499 33.8769 81.4578 33.1262H81.3438V38.866H78.5646L78.5625 38.868ZM87.3096 28.5502C87.3096 26.4545 85.9647 25.134 84.3246 25.134C82.6847 25.134 81.3398 26.4545 81.3398 28.5502C81.3398 30.646 82.6847 31.9665 84.3246 31.9665C85.9647 31.9665 87.3096 30.646 87.3096 28.5502Z" fill="#9DAAB3"/>
<path d="M91.5039 28.5501C91.5039 25.0647 94.0086 22.5601 97.3577 22.5601C100.707 22.5601 103.211 25.0647 103.211 28.5501C103.211 32.0355 100.707 34.5402 97.3577 34.5402C94.0086 34.5402 91.5039 32.0111 91.5039 28.5501ZM100.41 28.5501C100.41 26.4992 99.0424 25.1339 97.3577 25.1339C95.6729 25.1339 94.2833 26.5013 94.2833 28.5501C94.2833 30.5991 95.6729 31.944 97.3577 31.944C99.0424 31.944 100.41 30.601 100.41 28.5501Z" fill="#9DAAB3"/>
<path d="M105.219 34.3119V18.3682H107.998V34.3138H105.219V34.3119Z" fill="#9DAAB3"/>
<path d="M118.319 22.7856H121.28L116.268 36.7944C115.768 38.184 115.084 38.8676 113.284 38.8676H110.596V36.2938H112.875C113.286 36.2938 113.511 36.0883 113.65 35.7465L113.922 34.9957L109.23 22.7856H112.191L115.176 30.7819H115.632L118.319 22.7856Z" fill="#9DAAB3"/>
<path d="M121.811 34.882H124.635C124.749 35.6329 125.5 36.6584 127.278 36.6584C128.94 36.6584 130.035 35.6105 130.035 34.0153V32.3978H129.921C129.306 33.059 128.167 33.6511 126.708 33.6511C123.748 33.6511 121.469 31.3722 121.469 28.0924C121.469 24.8125 123.748 22.5581 126.708 22.5581C128.234 22.5581 129.351 23.1726 130.057 24.0393H130.171L130.399 22.786H132.814V34.0153C132.814 37.0673 130.763 39.0959 127.278 39.0959C123.383 39.0959 121.88 36.5444 121.811 34.882ZM130.035 28.0944C130.035 26.2958 128.759 25.0425 127.142 25.0425C125.524 25.0425 124.271 26.2958 124.271 28.0944C124.271 29.8931 125.546 31.1689 127.142 31.1689C128.737 31.1689 130.035 29.9154 130.035 28.0944Z" fill="#9DAAB3"/>
<path d="M134.746 28.5501C134.746 25.0647 137.251 22.5601 140.6 22.5601C143.949 22.5601 146.454 25.0647 146.454 28.5501C146.454 32.0355 143.949 34.5402 140.6 34.5402C137.251 34.5402 134.746 32.0111 134.746 28.5501ZM143.652 28.5501C143.652 26.4992 142.285 25.1339 140.6 25.1339C138.915 25.1339 137.525 26.5013 137.525 28.5501C137.525 30.5991 138.915 31.944 140.6 31.944C142.285 31.944 143.652 30.601 143.652 28.5501Z" fill="#9DAAB3"/>
<path d="M148.389 34.3124V22.786H150.779L151.007 23.8786H151.121C151.577 23.3557 152.717 22.5581 154.447 22.5581C157.089 22.5581 159.002 24.4707 159.002 27.3863V34.3104H156.223V27.7506C156.223 26.2693 155.175 25.1991 153.74 25.1991C152.306 25.1991 151.166 26.3161 151.166 27.7506V34.3104H148.387L148.389 34.3124Z" fill="#9DAAB3"/>
<path d="M62.3864 32.9679L69.2188 29.0227C69.581 28.8131 69.8048 28.4244 69.8048 28.0074V20.1169C69.8048 19.6998 69.581 19.3112 69.2188 19.1016L62.3864 15.1564C62.0242 14.9468 61.5746 14.9489 61.2144 15.1564L54.382 19.1016C54.0199 19.3112 53.796 19.6998 53.796 20.1169V34.2172L49.0044 36.9823L44.2127 34.2172V28.685L49.0044 25.9199L52.1643 27.7449V24.0337L49.5903 22.5463C49.4133 22.4446 49.2099 22.3897 49.0044 22.3897C48.7988 22.3897 48.5955 22.4446 48.4184 22.5463L41.586 26.4915C41.2238 26.7011 41 27.0898 41 27.5069V35.3973C41 35.8144 41.2238 36.203 41.586 36.4126L48.4184 40.3578C48.7805 40.5654 49.2282 40.5654 49.5903 40.3578L56.4228 36.4126C56.785 36.203 57.0087 35.8144 57.0087 35.3973V21.295L57.0942 21.2462L61.7984 18.5299L66.5901 21.295V26.8273L61.7984 29.5924L58.6426 27.7713V31.4826L61.2124 32.9659C61.5746 33.1734 62.0242 33.1734 62.3844 32.9659L62.3864 32.9679Z" fill="#9DAAB3"/>
</svg>
