<svg viewBox="0 0 585 93" fill="none" xmlns="http://www.w3.org/2000/svg">
  <path d="M563.769 28.3186C564.399 28.3186 564.907 27.8099 564.907 27.1823C564.907 26.5547 564.399 26.0459 563.769 26.0459C563.144 26.0459 562.635 26.5547 562.635 27.1823C562.635 27.8099 563.144 28.3186 563.769 28.3186Z" fill="#9DAAB3"/>
  <path d="M559.228 28.3186C559.859 28.3186 560.365 27.8099 560.365 27.1823C560.365 26.5547 559.859 26.0459 559.228 26.0459C558.602 26.0459 558.092 26.5547 558.092 27.1823C558.092 27.8099 558.602 28.3186 559.228 28.3186Z" fill="#9DAAB3"/>
  <path d="M555.848 13.5449H559.184C559.811 15.3151 561.449 20.3306 561.569 20.6101C561.599 20.4704 563.249 15.0046 563.715 13.576H567.182V26.0449C566.752 25.7965 566.321 25.548 565.855 25.2685C565.532 25.0978 565.233 24.9114 564.904 24.7716C564.875 22.3493 564.845 19.9424 564.773 17.4269C564.307 18.871 562.699 23.9642 562.567 24.1039H560.421C560.421 24.1039 558.335 17.9238 558.233 17.6443C558.203 20.0201 558.174 22.3959 558.096 24.8493C556.817 25.5325 556.057 25.9207 555.818 26.0138V13.5449H555.848Z" fill="#9DAAB3"/>
  <path d="M561.503 10.9876C567.288 10.9876 572.015 15.699 572.015 21.5C572.015 27.3009 567.305 32.0124 561.503 32.0124C555.701 32.0124 550.991 27.3009 550.991 21.5C550.991 15.699 555.701 10.9876 561.503 10.9876ZM561.503 9C554.596 9 549 14.5948 549 21.5C549 28.4052 554.596 34 561.503 34C568.404 34 574 28.4052 574 21.5C574 14.5948 568.404 9 561.503 9Z" fill="#9DAAB3"/>
  <path d="M91.6611 21.3534V73.859H63.1107V56.3415L54.2905 66.8346L45.5438 56.4149V73.859H17V21.3534H45.5504V21.4267L54.2972 31.8465L63.1174 21.3867V21.3467H91.6678L91.6611 21.3534Z" fill="#9DAAB3"/>
  <path d="M125.925 31.8428V42.3759H163.256V52.8691H125.925V63.3622H163.256V73.8554H97.375V21.3496H163.256V31.8428H125.925Z" fill="#9DAAB3"/>
  <path d="M234.829 21.3467V31.8398H202.953C201.437 31.8665 200.155 32.3868 199.107 33.4141C198.032 34.4347 197.498 35.6688 197.498 37.1097C197.498 37.1564 197.485 44.4342 197.465 58.9365C197.511 60.2773 197.999 61.3379 198.927 62.1184C199.828 62.8722 201.023 63.2658 202.512 63.2858H206.285V42.3729H234.835V73.859H174.923C173.288 73.859 171.885 73.2986 170.717 72.1779C169.549 71.0839 168.961 69.7431 168.961 68.1555V27.0569C168.961 25.4692 169.549 24.1351 170.717 23.0344C171.885 21.9137 173.288 21.3533 174.923 21.3533H234.835L234.829 21.3467Z" fill="#9DAAB3"/>
  <path d="M284.464 63.3622H271.29L269.093 73.8554H240.543L251.52 21.3496H304.221L315.197 73.8554H286.647L284.45 63.3622H284.464ZM282.267 52.8691L277.874 31.8428L273.48 52.8691H282.267Z" fill="#9DAAB3"/>
  <path d="M349.457 31.8428V42.3759H386.787V52.8691H349.457V63.3622H386.787V73.8554H320.906V21.3496H386.787V31.8428H349.457Z" fill="#9DAAB3"/>
  <path d="M458.373 31.8428H439.705V73.8554H411.161V31.8428H392.492V21.3496H458.373V31.8428Z" fill="#9DAAB3"/>
  <path d="M538.743 21.3496V73.8554H510.199V52.8691H492.632V73.8554H464.082V21.3496H492.632V42.3759H510.199V21.3496H538.743Z" fill="#9DAAB3"/>
</svg>
