<svg width="56" height="56" viewBox="0 0 56 56" fill="none" xmlns="http://www.w3.org/2000/svg">
<g clip-path="url(#clip0_39_12041)">
<path d="M28.1471 29.5908L28.0868 29.5911L23.4573 15.7849L17.2275 15.8215L17.1101 35.6444C18.1859 35.0718 19.4058 34.5826 20.7336 34.1892L20.8069 21.8134L20.8765 20.2224L26.318 33.2527C27.0293 33.1882 27.2343 33.1629 27.9693 33.1586C28.7043 33.1543 28.8969 33.1893 29.6076 33.2333L35.2046 19.9937L35.2554 21.584L35.1813 34.1043C36.4924 34.4822 37.7066 34.9571 38.7877 35.5171L38.9051 15.6942L32.6754 15.7308L28.135 29.5908H28.1471Z" fill="#E0F3FF"/>
<path d="M22.9098 43.1502C24.2475 43.1424 25.3383 42.0516 25.3462 40.7139C25.3541 39.3762 24.2762 38.2981 22.9385 38.306C21.6009 38.3138 20.5101 39.4045 20.5022 40.7422C20.4942 42.0799 21.5722 43.1581 22.9098 43.1502Z" fill="#E0F3FF"/>
<path d="M32.9118 43.0915C34.2494 43.0837 35.3402 41.9929 35.3482 40.6552C35.3561 39.3174 34.2781 38.2394 32.9405 38.2472C31.6029 38.2551 30.5121 39.3459 30.5042 40.6836C30.4963 42.0213 31.5742 43.0994 32.9118 43.0915Z" fill="#E0F3FF"/>
<path d="M28.1647 0.163574C12.8133 0.253761 0.255623 12.8114 0.164681 28.1636C0.0737396 43.5159 12.4835 55.9268 27.8349 55.8366C43.1864 55.7464 55.744 43.1888 55.8349 27.8366C55.9259 12.4843 43.5162 0.0733874 28.1647 0.163574ZM27.8569 52.125C14.5539 52.2032 3.79725 41.4455 3.87605 28.1418C3.95486 14.8382 14.8397 3.95325 28.1427 3.8751C41.4458 3.79695 52.2023 14.5547 52.1235 27.8584C52.0447 41.162 41.1599 52.0469 27.8569 52.125Z" fill="#E0F3FF"/>
</g>
<defs>
<clipPath id="clip0_39_12041">
<rect width="56" height="56" fill="white"/>
</clipPath>
</defs>
</svg>
