<svg width="256" height="82" viewBox="0 0 256 82" fill="none" xmlns="http://www.w3.org/2000/svg">
<path d="M62.8818 21.9897L49.6263 26.722H38.591L25.3355 21.9897L23.2787 27.8893L24.6499 34.2307L23.7684 34.8616L25.0743 35.8081L24.0622 36.5337L25.3682 37.6695L24.552 38.2374L26.4456 40.3827L23.6051 48.8379L26.2497 57.4823L35.522 55.053L37.3177 56.4727L40.9744 58.8704H47.2429L50.9323 56.4727L52.728 55.053L62.0002 57.4823L64.6448 48.8379L61.7717 40.3827M61.7391 40.3827L63.6327 38.2689L62.8165 37.7011L64.1224 36.5653L63.1103 35.8397L64.4163 34.8932L63.5674 34.2622L64.9386 27.9209L62.8818 22.0212" fill="#9DAAB3"/>
<path d="M208.3 40.5405C207.223 39.8464 206.015 39.3416 204.872 38.7422C204.121 38.332 203.337 37.985 202.717 37.4802C201.64 36.6284 201.868 34.9247 202.978 34.1676C204.611 33.1264 207.32 33.6943 207.614 35.8397C207.614 35.8712 207.647 35.9028 207.712 35.9028H210.194C210.259 35.9028 210.292 35.8712 210.292 35.8081C210.161 34.3253 209.573 33.0949 208.496 32.3062C207.451 31.549 206.276 31.1389 205.002 31.1389C198.473 31.1389 197.885 37.7957 201.411 39.9095C201.803 40.1619 205.264 41.834 206.472 42.5596C207.68 43.2852 208.071 44.6103 207.549 45.6829C207.059 46.6294 205.819 47.2919 204.578 47.2288C203.207 47.1657 202.162 46.4401 201.803 45.3359C201.738 45.1466 201.705 44.7365 201.705 44.5787C201.705 44.5472 201.672 44.4841 201.607 44.4841H198.93C198.897 44.4841 198.832 44.5156 198.832 44.5787C198.832 46.4401 199.321 47.4812 200.627 48.4277C201.868 49.3111 203.207 49.6897 204.611 49.6897C208.267 49.6897 210.161 47.7021 210.52 45.6198C210.781 43.5692 210.161 41.7393 208.3 40.5405Z" fill="#9DAAB3"/>
<path d="M93.7676 31.4859H89.7191C89.6865 31.4859 89.6538 31.5174 89.6212 31.549L87.4337 38.5529C87.4011 38.6475 87.2705 38.6475 87.2378 38.5529L85.0504 31.549C85.0504 31.5174 85.0177 31.4859 84.9524 31.4859H80.8713C80.8386 31.4859 80.7733 31.5174 80.7733 31.5805V49.4373C80.7733 49.4688 80.806 49.5319 80.8713 49.5319H83.5485C83.5812 49.5319 83.6465 49.5004 83.6465 49.4373V35.8712C83.6465 35.7766 83.8097 35.745 83.8423 35.8397L86.0625 42.8751L86.2257 43.3799C86.2257 43.4114 86.2584 43.443 86.3237 43.443H88.3805C88.4132 43.443 88.4458 43.4114 88.4785 43.3799L88.6417 42.8751L90.8619 35.8397C90.8945 35.745 91.0577 35.7766 91.0577 35.8712V49.4373C91.0577 49.4688 91.0904 49.5319 91.1557 49.5319H93.8329C93.8656 49.5319 93.9309 49.5004 93.9309 49.4373V31.5805C93.8656 31.5174 93.8329 31.4859 93.7676 31.4859Z" fill="#9DAAB3"/>
<path d="M167.358 31.4859C167.326 31.4859 167.293 31.5174 167.26 31.549L165.073 38.5529C165.04 38.6475 164.91 38.6475 164.877 38.5529L162.689 31.549C162.689 31.5174 162.657 31.4859 162.591 31.4859H158.51C158.478 31.4859 158.412 31.5174 158.412 31.5805V49.4373C158.412 49.4688 158.445 49.5319 158.51 49.5319H161.188C161.22 49.5319 161.286 49.5004 161.286 49.4373V35.8712C161.286 35.7766 161.449 35.745 161.481 35.8397L163.702 42.8751L163.865 43.3799C163.865 43.4114 163.897 43.443 163.963 43.443H166.02C166.052 43.443 166.085 43.4114 166.118 43.3799L166.281 42.8751L168.501 35.8397C168.534 35.745 168.697 35.7766 168.697 35.8712V49.4373C168.697 49.4688 168.729 49.5319 168.795 49.5319H171.472C171.505 49.5319 171.57 49.5004 171.57 49.4373V31.5805C171.57 31.549 171.537 31.4859 171.472 31.4859H167.358Z" fill="#9DAAB3"/>
<path d="M132.881 31.4859H120.246C120.213 31.4859 120.148 31.5174 120.148 31.5805V33.8205C120.148 33.8521 120.181 33.9152 120.246 33.9152H125.143V49.4373C125.143 49.4688 125.176 49.5319 125.241 49.5319H127.918C127.951 49.5319 128.016 49.5004 128.016 49.4373V33.9152H132.914C132.946 33.9152 133.012 33.8836 133.012 33.8205V31.5805C132.979 31.5174 132.946 31.4859 132.881 31.4859Z" fill="#9DAAB3"/>
<path d="M142.251 41.6131L144.21 34.6408C144.243 34.5461 144.373 34.5461 144.406 34.6408L146.365 41.6131C146.365 41.6762 146.332 41.7393 146.267 41.7393H142.349C142.284 41.7393 142.219 41.6762 142.251 41.6131ZM148.65 49.5004H151.099C151.164 49.5004 151.197 49.4373 151.197 49.3742L146.169 31.4543C146.169 31.4228 146.136 31.3912 146.071 31.3912H142.578C142.545 31.3912 142.512 31.4228 142.48 31.4543L137.452 49.3742C137.452 49.4373 137.484 49.5004 137.55 49.5004H139.998C140.031 49.5004 140.064 49.4688 140.096 49.4373L141.566 44.2317C141.566 44.2001 141.598 44.1686 141.664 44.1686H147.051C147.083 44.1686 147.116 44.2001 147.149 44.2317L148.618 49.4373C148.552 49.4688 148.618 49.5004 148.65 49.5004Z" fill="#9DAAB3"/>
<path d="M183.748 41.6131L185.707 34.6408C185.74 34.5461 185.87 34.5461 185.903 34.6408L187.862 41.6131C187.862 41.6762 187.829 41.7393 187.764 41.7393H183.846C183.781 41.7393 183.715 41.6762 183.748 41.6131ZM190.147 49.5004H192.596C192.661 49.5004 192.694 49.4373 192.694 49.3742L187.666 31.4543C187.666 31.4228 187.633 31.3912 187.568 31.3912H184.074C184.042 31.3912 184.009 31.4228 183.977 31.4543L178.916 49.3742C178.916 49.4373 178.949 49.5004 179.014 49.5004H181.463C181.495 49.5004 181.528 49.4688 181.56 49.4373L183.03 44.2317C183.03 44.2001 183.062 44.1686 183.128 44.1686H188.515C188.547 44.1686 188.58 44.2001 188.613 44.2317L190.082 49.4373C190.049 49.4688 190.082 49.5004 190.147 49.5004Z" fill="#9DAAB3"/>
<path d="M104.738 46.8818V41.3292C104.738 41.2976 104.77 41.2345 104.836 41.2345H111.953C111.986 41.2345 112.051 41.203 112.051 41.1399V38.8999C112.051 38.8684 112.018 38.8053 111.953 38.8053H104.836C104.803 38.8053 104.738 38.7737 104.738 38.7106V33.9783C104.738 33.9467 104.77 33.8836 104.836 33.8836H112.933C112.965 33.8836 113.03 33.8521 113.03 33.789V31.549C113.03 31.5174 112.998 31.4543 112.933 31.4543H101.962C101.93 31.4543 101.865 31.4859 101.865 31.549V49.3742C101.865 49.4057 101.897 49.4688 101.962 49.4688H113.259C113.292 49.4688 113.357 49.4373 113.357 49.3742V47.008C113.357 46.9765 113.324 46.9134 113.259 46.9134H104.803C104.77 46.9765 104.738 46.9449 104.738 46.8818Z" fill="#9DAAB3"/>
<path d="M232.721 49.3742L223.482 40.1303C223.449 40.0988 223.449 40.0357 223.482 40.0041L231.807 31.6436C231.872 31.5805 231.807 31.4859 231.742 31.4859H228.346C228.314 31.4859 228.314 31.4859 228.281 31.5174L221.229 38.616C221.164 38.6791 221.066 38.616 221.066 38.5529V31.5805C221.066 31.549 221.033 31.4859 220.968 31.4859H218.291C218.258 31.4859 218.193 31.5174 218.193 31.5805V49.4373C218.193 49.4688 218.225 49.5319 218.291 49.5319H220.968C221 49.5319 221.066 49.5004 221.066 49.4373V41.5816C221.066 41.5185 221.164 41.4554 221.229 41.5185L229.228 49.5004C229.228 49.5004 229.261 49.5319 229.293 49.5319H232.689C232.721 49.5319 232.787 49.4057 232.721 49.3742Z" fill="#9DAAB3"/>
<path d="M62.8818 21.9897L46.59 33.505L49.6263 26.6905L62.8818 21.9897Z" fill="#8C99A2"/>
<path d="M25.3029 21.9897L41.4641 33.5997L38.5583 26.6905L25.3029 21.9897Z" fill="#8C99A2"/>
<path d="M57.005 48.6801L52.6953 54.9899L61.9676 57.4507L64.6122 48.8063L57.005 48.6801Z" fill="#8C99A2"/>
<path d="M23.5725 48.8063L26.217 57.4507L35.4893 54.9899L31.1797 48.6801L23.5725 48.8063Z" fill="#8C99A2"/>
<path d="M34.9996 37.985L32.4203 41.7078L41.5947 42.1179L41.3008 32.6532L34.9996 37.985Z" fill="#8C99A2"/>
<path d="M53.185 37.985L46.7859 32.5586L46.59 42.1179L55.7643 41.7078L53.185 37.985Z" fill="#8C99A2"/>
<path d="M35.4893 54.9899L41.0397 52.4344L36.2729 48.8694L35.4893 54.9899Z" fill="#8C99A2"/>
<path d="M47.145 52.4344L52.6953 54.9899L51.9117 48.8694L47.145 52.4344Z" fill="#8C99A2"/>
<path d="M52.6953 54.9899L47.145 52.4344L47.6021 55.8733L47.5368 57.3245L52.6953 54.9899Z" fill="#DFDFDF"/>
<path d="M35.4893 54.9899L40.6479 57.3245L40.6152 55.8733L41.0397 52.4344L35.4893 54.9899Z" fill="#DFDFDF"/>
<path d="M40.7458 46.5979L36.1423 45.3044L39.3745 43.8847L40.7458 46.5979Z" fill="#2D2E33"/>
<path d="M47.4388 46.5979L48.8101 43.8847L52.075 45.3044L47.4388 46.5979Z" fill="#2D2E33"/>
<path d="M35.4893 54.9899L36.3056 48.6801L31.1797 48.8063L35.4893 54.9899Z" fill="#76838C"/>
<path d="M51.8791 48.6801L52.6953 54.9899L57.005 48.8063L51.8791 48.6801Z" fill="#76838C"/>
<path d="M55.7643 41.7078L46.59 42.1179L47.4388 46.5979L48.8101 43.8846L52.075 45.3044L55.7643 41.7078Z" fill="#76838C"/>
<path d="M36.1423 45.3044L39.3746 43.8846L40.7458 46.5979L41.5947 42.1179L32.4203 41.7078L36.1423 45.3044Z" fill="#76838C"/>
<path d="M32.4203 41.7078L36.2729 48.8694L36.1423 45.3044L32.4203 41.7078Z" fill="#8C99A2"/>
<path d="M52.075 45.3044L51.9117 48.8694L55.7643 41.7078L52.075 45.3044Z" fill="#8C99A2"/>
<path d="M41.5947 42.1179L40.7458 46.5979L41.8232 51.9297L42.0518 44.9258L41.5947 42.1179Z" fill="#8C99A2"/>
<path d="M46.59 42.1179L46.1329 44.8942L46.3614 51.9297L47.4388 46.5979L46.59 42.1179Z" fill="#8C99A2"/>
<path d="M47.4388 46.5979L46.3614 51.9296L47.145 52.4344L51.9117 48.8694L52.075 45.3044L47.4388 46.5979Z" fill="#9DAAB3"/>
<path d="M36.1423 45.3044L36.2729 48.8694L41.0396 52.4344L41.8232 51.9296L40.7458 46.5979L36.1423 45.3044Z" fill="#9DAAB3"/>
<path d="M47.5368 57.3245L47.6021 55.8733L47.1777 55.5578H41.007L40.6152 55.8733L40.6479 57.3245L35.4893 54.9899L37.285 56.4096L40.9417 58.8389H47.2103L50.8996 56.4096L52.6953 54.9899L47.5368 57.3245Z" fill="white"/>
<path d="M47.145 52.4344L46.3614 51.9297H41.8232L41.0396 52.4344L40.6152 55.8733L41.007 55.5578H47.1776L47.6021 55.8733L47.145 52.4344Z" fill="#2D2E33"/>
<path d="M63.5674 34.2307L64.9386 27.8893L62.8818 21.9897L47.145 33.0949L53.185 37.985L61.7391 40.3827L63.6327 38.2689L62.8165 37.7011L64.1224 36.5653L63.1103 35.8397L64.4163 34.8616L63.5674 34.2307Z" fill="#4C5962"/>
<path d="M23.246 27.8893L24.6173 34.2307L23.7357 34.8616L25.0743 35.8397L24.0622 36.5653L25.3682 37.7011L24.552 38.2689L26.4456 40.3827L34.9996 37.985L41.0397 33.0949L25.3029 21.9897L23.246 27.8893Z" fill="#4C5962"/>
<path d="M61.7391 40.3827L53.185 37.985L55.7643 41.7078L51.9117 48.8694L57.005 48.8063H64.6122L61.7391 40.3827Z" fill="#9DAAB3"/>
<path d="M34.9996 37.985L26.4456 40.3827L23.5725 48.8063H31.1797L36.2729 48.8694L32.4203 41.7078L34.9996 37.985Z" fill="#9DAAB3"/>
<path d="M46.59 42.1179L47.145 33.0949L49.6263 26.6905H38.5583L41.0397 33.0949L41.5947 42.1179L41.7906 44.9258L41.8232 51.9297H46.3614L46.3941 44.9258L46.59 42.1179Z" fill="#9DAAB3"/>
</svg>
