<svg width="200" height="56" viewBox="0 0 200 56" fill="none" xmlns="http://www.w3.org/2000/svg">
<g clip-path="url(#clip0_1_6)">
<path d="M66.5269 15.2898L61.3287 29.8083V34.0667H59.6241V29.8083L54.426 15.2898H46.0454V40.6519H51.6713V28.013L49.4287 20.8056L51.0297 20.2417L58.3408 40.6583H62.6186L69.9297 20.2417L71.5306 20.8056L69.2815 28.013V40.6519H74.9074V15.2898H66.5269ZM128.354 18.1741C126.98 17.1565 125.379 16.4241 123.538 15.9704C121.697 15.5167 119.759 15.2898 117.711 15.2898H109.272V40.6519H118.469C120.369 40.6519 122.183 40.3796 123.914 39.8287C125.644 39.2778 127.174 38.4741 128.496 37.4111C129.819 36.3481 130.869 35.0324 131.653 33.4704C132.437 31.9083 132.826 30.1 132.826 28.0454C132.826 25.7315 132.424 23.7611 131.62 22.1343C130.817 20.5074 129.728 19.1917 128.354 18.1741ZM126.28 31.3963C125.813 32.388 125.165 33.1852 124.348 33.7944C123.532 34.4037 122.566 34.838 121.444 35.1037C120.323 35.3694 119.118 35.4991 117.821 35.4991H114.898V20.4491H118.217C119.396 20.4491 120.518 20.5981 121.587 20.8963C122.657 21.1944 123.59 21.6417 124.381 22.238C125.171 22.8343 125.807 23.5926 126.273 24.513C126.74 25.4333 126.98 26.5157 126.98 27.7537C126.986 29.1926 126.753 30.4046 126.28 31.3963ZM142.496 35.4991V30.3398H153.573V25.1806H142.496V20.4491H154.869V15.2898H136.87V40.6519H154.869V35.4926H142.496V35.4991Z" fill="#9DAAB3"/>
<path d="M91.7139 41.9481C99.4852 41.9481 105.785 35.6917 105.785 27.9741C105.785 20.2564 99.4852 14 91.7139 14C83.9425 14 77.6426 20.2564 77.6426 27.9741C77.6426 35.6917 83.9425 41.9481 91.7139 41.9481Z" fill="#9DAAB3"/>
</g>
<defs>
<clipPath id="clip0_1_6">
<rect width="108.889" height="28" fill="white" transform="translate(46 14)"/>
</clipPath>
</defs>
</svg>
