<svg width="200" height="56" viewBox="0 0 200 56" fill="none" xmlns="http://www.w3.org/2000/svg">
<path d="M83.6552 9H61.7211C61.5858 9 61.4561 9.05036 61.3603 9.14034C61.2645 9.23001 61.2109 9.35192 61.2109 9.47906V30.0729C61.2109 30.2 61.2648 30.322 61.3603 30.4116C61.4561 30.5013 61.5858 30.5517 61.7211 30.5517H83.6552C83.7908 30.5517 83.9203 30.5013 84.0161 30.4116C84.1116 30.3216 84.1654 30.1997 84.1654 30.0729V9.47906C84.1654 9.35192 84.1116 9.23032 84.0161 9.14034C83.9203 9.05067 83.7905 9 83.6552 9ZM76.514 22.8889C76.514 23.0161 76.4602 23.1377 76.3647 23.2276C76.2689 23.3173 76.1391 23.368 76.0039 23.368H69.3725C69.2372 23.368 69.1075 23.3176 69.0117 23.2276C68.9159 23.1377 68.8623 23.0161 68.8623 22.8889V16.6627C68.8623 16.5356 68.9162 16.414 69.0117 16.324C69.1075 16.234 69.2372 16.1837 69.3725 16.1837H76.0039C76.1391 16.1837 76.2689 16.234 76.3647 16.324C76.4605 16.4137 76.514 16.5356 76.514 16.6627V22.8889Z" fill="#9DAAB3"/>
<path d="M129.571 16.1851H122.94C122.658 16.1851 122.43 16.3994 122.43 16.6641V22.8903C122.43 23.1547 122.658 23.3694 122.94 23.3694H129.571C129.853 23.3694 130.081 23.155 130.081 22.8903V16.6641C130.081 16.3997 129.853 16.1851 129.571 16.1851Z" fill="#9DAAB3"/>
<path d="M121.922 9.00049H115.291C115.01 9.00049 114.781 9.21483 114.781 9.47954V15.7057C114.781 15.9701 115.01 16.1848 115.291 16.1848H121.922C122.204 16.1848 122.433 15.9704 122.433 15.7057V9.47954C122.433 9.21514 122.204 9.00049 121.922 9.00049Z" fill="#9DAAB3"/>
<path d="M137.231 9.00049H130.6C130.318 9.00049 130.09 9.21483 130.09 9.47954V15.7057C130.09 15.9701 130.318 16.1848 130.6 16.1848H137.231C137.513 16.1848 137.742 15.9704 137.742 15.7057V9.47954C137.742 9.21514 137.513 9.00049 137.231 9.00049Z" fill="#9DAAB3"/>
<path d="M121.922 23.3687H115.291C115.01 23.3687 114.781 23.583 114.781 23.8477V30.0739C114.781 30.3383 115.01 30.5529 115.291 30.5529H121.922C122.204 30.5529 122.433 30.3386 122.433 30.0739V23.8477C122.433 23.5833 122.204 23.3687 121.922 23.3687Z" fill="#9DAAB3"/>
<path d="M137.231 23.3687H130.6C130.318 23.3687 130.09 23.583 130.09 23.8477V30.0739C130.09 30.3383 130.318 30.5529 130.6 30.5529H137.231C137.513 30.5529 137.742 30.3386 137.742 30.0739V23.8477C137.742 23.5833 137.513 23.3687 137.231 23.3687Z" fill="#9DAAB3"/>
<path d="M110.438 9.00049H103.807C103.525 9.00049 103.297 9.21483 103.297 9.47954V15.7057C103.297 15.9701 103.525 16.1848 103.807 16.1848H110.438C110.72 16.1848 110.948 15.9704 110.948 15.7057V9.47954C110.948 9.21514 110.72 9.00049 110.438 9.00049Z" fill="#9DAAB3"/>
<path d="M110.438 23.3687H103.807C103.525 23.3687 103.297 23.583 103.297 23.8477V30.0739C103.297 30.3383 103.525 30.5529 103.807 30.5529H110.438C110.72 30.5529 110.948 30.3386 110.948 30.0739V23.8477C110.948 23.5833 110.72 23.3687 110.438 23.3687Z" fill="#9DAAB3"/>
<path d="M103.295 16.6575C103.295 16.5304 103.241 16.4088 103.145 16.3188C103.05 16.2288 102.92 16.1785 102.785 16.1785H95.6433V9.47906C95.6433 9.35192 95.5894 9.23032 95.4939 9.14034C95.3984 9.05067 95.2684 9 95.1334 9H88.5024C88.3668 9 88.2373 9.05036 88.1415 9.14034C88.0461 9.23001 87.9922 9.35192 87.9922 9.47906V30.0622C87.9922 30.1893 88.0461 30.3109 88.1415 30.4009C88.2373 30.4909 88.3671 30.5412 88.5024 30.5412H95.1334C95.2687 30.5412 95.3984 30.4909 95.4939 30.4009C95.5894 30.3109 95.6433 30.1893 95.6433 30.0622V23.3624H102.785C102.92 23.3624 103.05 23.3121 103.145 23.2221C103.241 23.1321 103.295 23.0105 103.295 22.8834V16.6572V16.6575Z" fill="#9DAAB3"/>
<path d="M112.269 36.1758C113.305 36.1758 114.243 36.3846 115.085 36.8019C115.927 37.2196 116.592 37.8285 117.08 38.6297C117.569 39.4306 117.813 40.3847 117.813 41.4915C117.813 42.5982 117.569 43.5548 117.08 44.3606C116.592 45.1667 115.929 45.7805 115.092 46.2028C114.255 46.625 113.314 46.8363 112.269 46.8363H108.438V36.1758H112.269ZM111.993 44.7392C113.048 44.7392 113.846 44.4576 114.388 43.8944C114.93 43.3315 115.201 42.5303 115.201 41.4915C115.201 40.4526 114.927 39.6686 114.381 39.1103C113.834 38.552 113.038 38.2729 111.993 38.2729H110.92V44.7389H111.993V44.7392Z" fill="#9DAAB3"/>
<path d="M126.054 42.5402H121.904V44.6809H126.708V46.8363H119.422V36.1758H126.534V38.3165H121.904V40.4136H126.055V42.5398L126.054 42.5402Z" fill="#9DAAB3"/>
<path d="M137.814 36.1758L134.098 41.3459L138.002 46.8363H134.94L132.574 43.3702L130.165 46.8363H127.32L131.225 41.4042L127.509 36.1761H130.542L132.734 39.3799L134.955 36.1761H137.814V36.1758Z" fill="#9DAAB3"/>
<path d="M103.282 40.7485H61V42.253H103.282V40.7485Z" fill="#9DAAB3"/>
</svg>
