<svg width="200" height="56" viewBox="0 0 200 56" fill="none" xmlns="http://www.w3.org/2000/svg">
<g clip-path="url(#clip0_1404_35575)">
<path d="M38.0112 37.1696C35.9762 37.1696 34.2915 36.6894 32.9627 35.7236C31.6338 34.7633 31 33.3828 31 31.664C31 31.3203 31.0723 30.8401 31.139 30.289C31.3503 29.0504 31.7006 27.6044 32.1231 25.8857C33.313 21.2695 36.332 18.9287 41.2415 18.9287C42.5759 18.9287 43.7658 19.1361 44.8166 19.6162C45.8674 20.0309 46.7126 20.6475 47.3408 21.5423C47.9747 22.3663 48.2527 23.403 48.2527 24.5707C48.2527 24.9144 48.1804 25.3946 48.1137 25.8802C47.8357 27.3916 47.5521 28.8376 47.2018 30.2836C46.568 32.6244 45.5172 34.3431 44.0438 35.4453C42.5704 36.5475 40.5354 37.1696 38.0834 37.1696H38.0112ZM38.3614 33.5192C39.3456 33.5192 40.1851 33.2464 40.8134 32.6953C41.514 32.1442 42.0032 31.3203 42.2868 30.1471C42.7094 28.5648 42.9874 27.1898 43.1986 26.0166C43.2709 25.6729 43.2709 25.3291 43.2709 24.9144C43.2709 23.403 42.4314 22.6445 40.819 22.6445C39.8348 22.6445 38.9953 22.9174 38.2947 23.4685C37.5942 24.0196 37.1049 24.8435 36.8213 26.0166C36.5433 27.1188 36.1875 28.4938 35.9095 30.1471C35.8372 30.4909 35.8372 30.8401 35.8372 31.1839C35.8372 32.7662 36.6823 33.5192 38.3614 33.5192Z" fill="#9DAAB3"/>
<path d="M50.8466 36.9624C50.6353 36.9624 50.4963 36.8915 50.424 36.7551C50.3517 36.6187 50.285 36.4822 50.3517 36.2749L53.9268 19.8237C53.9991 19.6164 54.0658 19.48 54.2048 19.3436C54.3438 19.2072 54.5551 19.1362 54.6941 19.1362H61.6385C63.5345 19.1362 65.0746 19.5509 66.2644 20.3039C67.4543 21.0569 68.027 22.2355 68.027 23.6814C68.027 24.0961 67.9547 24.5054 67.888 24.991C67.4654 26.9171 66.5536 28.3631 65.2914 29.2579C63.957 30.1528 62.2056 30.6329 59.9594 30.6329H56.451L55.2612 36.1385C55.2612 36.3458 55.1222 36.4822 54.9832 36.6187C54.8442 36.7551 54.6329 36.826 54.4939 36.826H50.9856L50.8466 36.9624ZM60.0317 27.3263C60.7322 27.3263 61.3661 27.119 61.9276 26.7752C62.4892 26.3606 62.8395 25.8095 63.0508 25.1219C63.123 24.8491 63.123 24.5708 63.123 24.3635C63.123 23.8833 62.984 23.5396 62.7005 23.2613C62.4169 22.983 61.9276 22.8466 61.1604 22.8466H58.0746L57.0904 27.3864H60.104L60.0317 27.3263Z" fill="#9DAAB3"/>
<path d="M73.8506 36.9624C73.6393 36.9624 73.5003 36.8915 73.428 36.7551C73.3558 36.6187 73.289 36.4822 73.3558 36.2749L76.2303 23.1958H71.6044C71.3931 23.1958 71.2541 23.1249 71.1818 22.9885C71.1095 22.8521 71.0428 22.7157 71.1095 22.5083L71.7434 19.8237C71.8156 19.6164 71.8824 19.48 72.0214 19.3436C72.1604 19.2072 72.3716 19.1362 72.5106 19.1362H86.4662C86.6775 19.1362 86.8165 19.2072 86.8888 19.3436C86.9611 19.4145 86.9611 19.5509 86.9611 19.6164C86.9611 19.6819 86.9611 19.6873 86.9611 19.7528L86.3272 22.4374C86.3272 22.6447 86.1882 22.7811 86.0492 22.9175C85.9102 23.054 85.7712 23.1249 85.56 23.1249H80.934L78.0595 36.204C77.9872 36.4113 77.9205 36.5477 77.7815 36.6841C77.6425 36.8205 77.4312 36.8915 77.2922 36.8915H73.8562V36.9624H73.8506Z" fill="#9DAAB3"/>
<path d="M87.5927 36.9624C87.3814 36.9624 87.2424 36.8915 87.1701 36.7551C87.0978 36.6187 87.0311 36.4822 87.0978 36.2749L90.7452 19.8237C90.7452 19.6164 90.8842 19.48 91.0232 19.3436C91.1622 19.2072 91.3735 19.1362 91.5125 19.1362H95.0208C95.2321 19.1362 95.3711 19.2072 95.4434 19.3436C95.5156 19.4145 95.5157 19.5509 95.5157 19.6164C95.5157 19.6819 95.5157 19.6873 95.5157 19.7528L91.9406 36.204C91.9406 36.4113 91.8016 36.5477 91.6626 36.6841C91.5236 36.8205 91.3123 36.8915 91.1733 36.8915H87.6649L87.5927 36.9624Z" fill="#9DAAB3"/>
<path d="M97.5497 36.9625C97.3384 36.9625 97.1994 36.8916 97.1271 36.7552C97.0548 36.6188 96.9881 36.4824 97.0548 36.275L100.63 19.8239C100.63 19.6165 100.769 19.4801 100.908 19.3437C101.047 19.2073 101.258 19.1364 101.397 19.1364H104.205C104.628 19.1364 104.906 19.3437 104.978 19.6875L107.786 27.6702L114.096 19.6875C114.169 19.5511 114.308 19.4146 114.447 19.2728C114.586 19.1309 114.797 19.0654 115.08 19.0654H117.888C118.099 19.0654 118.238 19.1364 118.311 19.2728C118.383 19.3437 118.383 19.4801 118.383 19.5456C118.383 19.6111 118.383 19.6165 118.383 19.682L114.808 36.1332C114.808 36.3405 114.669 36.4769 114.53 36.6133C114.391 36.7497 114.18 36.8207 114.041 36.8207H110.883C110.671 36.8207 110.532 36.7497 110.46 36.6133C110.388 36.4769 110.321 36.3405 110.388 36.1332L112.423 26.8409L108.425 32.0026C108.286 32.21 108.075 32.3464 107.936 32.4173C107.797 32.4883 107.585 32.5537 107.374 32.5537H106.04C105.69 32.5537 105.406 32.3464 105.267 32.0026L103.443 26.639L101.342 36.2041C101.269 36.4114 101.203 36.5479 101.064 36.6843C100.925 36.8207 100.713 36.8916 100.574 36.8916H97.4885L97.5497 36.9625Z" fill="#9DAAB3"/>
<path d="M120.487 36.9624C120.276 36.9624 120.137 36.8915 120.065 36.7551C119.992 36.6187 119.926 36.4822 119.992 36.2749L123.64 19.8237C123.712 19.6164 123.779 19.48 123.918 19.3436C124.057 19.2072 124.268 19.1362 124.407 19.1362H127.915C128.127 19.1362 128.266 19.2072 128.338 19.3436C128.41 19.4145 128.41 19.5509 128.41 19.6164C128.41 19.6819 128.41 19.6873 128.41 19.7528L124.835 36.204C124.835 36.4113 124.696 36.5477 124.557 36.6841C124.418 36.8205 124.207 36.8915 124.068 36.8915H120.559L120.487 36.9624Z" fill="#9DAAB3"/>
<path d="M136.756 37.17C135.216 37.17 133.948 36.9626 132.831 36.5479C131.78 36.1333 130.935 35.5822 130.379 34.9656C129.817 34.2781 129.539 33.5196 129.539 32.6957C129.539 32.5593 129.539 32.3519 129.611 32.0737C129.684 31.9373 129.75 31.8008 129.823 31.659C129.962 31.588 130.101 31.5226 130.245 31.5226H133.542C133.754 31.5226 133.893 31.5226 134.032 31.5935C134.171 31.6644 134.243 31.8008 134.382 31.9373C134.521 32.3519 134.804 32.7612 135.221 33.0395C135.638 33.3177 136.272 33.4541 137.045 33.4541C138.029 33.4541 138.796 33.3177 139.43 32.974C140.064 32.7012 140.414 32.2865 140.553 31.7354C140.553 31.6644 140.553 31.599 140.553 31.4625C140.553 31.0479 140.275 30.7041 139.781 30.4968C139.219 30.2239 138.24 29.9457 136.834 29.6019C135.149 29.2581 133.887 28.707 133.047 28.0195C132.208 27.2611 131.713 26.3662 131.713 25.1986C131.713 24.7839 131.785 24.3746 131.852 23.9599C132.202 22.3776 133.042 21.139 134.449 20.2441C135.855 19.3493 137.607 18.9346 139.781 18.9346C141.115 18.9346 142.233 19.1419 143.289 19.6221C144.345 20.1022 145.113 20.6533 145.674 21.3409C146.236 22.0284 146.514 22.7159 146.514 23.4034C146.514 23.6107 146.514 23.7471 146.514 23.8181C146.514 23.9545 146.375 24.0909 146.302 24.2328C146.23 24.3037 146.091 24.3692 145.88 24.3692H142.366C142.016 24.3692 141.732 24.2328 141.593 23.9545C141.593 23.5398 141.382 23.267 140.959 22.9887C140.537 22.7104 140.047 22.574 139.419 22.574C138.646 22.574 138.018 22.7104 137.523 22.9887C137.028 23.267 136.75 23.6762 136.611 24.1564C136.611 24.2273 136.611 24.3637 136.611 24.5001C136.611 24.9148 136.823 25.2586 137.312 25.5314C137.801 25.8042 138.713 26.0116 139.908 26.2898C141.871 26.6336 143.272 27.1847 144.117 27.8722C145.029 28.5597 145.452 29.4546 145.452 30.6277C145.452 31.0424 145.38 31.4516 145.313 31.8663C144.963 33.5851 143.978 34.8946 142.505 35.7895C141.032 36.6844 139.069 37.0991 136.684 37.0991L136.756 37.17Z" fill="#9DAAB3"/>
<path d="M149.034 36.9625C148.823 36.9625 148.684 36.8916 148.611 36.7552C148.539 36.6188 148.472 36.4824 148.539 36.275L152.114 19.8239C152.114 19.6165 152.253 19.4801 152.392 19.3437C152.531 19.2073 152.743 19.1364 152.882 19.1364H155.689C156.112 19.1364 156.39 19.3437 156.462 19.6875L159.27 27.6702L165.581 19.6875C165.653 19.5511 165.792 19.4146 165.931 19.2728C166.07 19.1309 166.281 19.0654 166.565 19.0654H169.373C169.584 19.0654 169.723 19.1364 169.795 19.2728C169.867 19.3437 169.867 19.4801 169.867 19.5456C169.867 19.6111 169.867 19.6165 169.867 19.682L166.292 36.1332C166.22 36.3405 166.153 36.4769 166.014 36.6133C165.875 36.7497 165.664 36.8207 165.525 36.8207H162.367C162.156 36.8207 162.017 36.7497 161.944 36.6133C161.872 36.4769 161.805 36.3405 161.872 36.1332L163.907 26.8409L159.909 32.0026C159.77 32.21 159.559 32.3464 159.42 32.4173C159.281 32.4883 159.07 32.5537 158.859 32.5537H157.524C157.174 32.5537 156.89 32.3464 156.751 32.0026L154.928 26.6335L152.82 36.2041C152.748 36.4114 152.681 36.5479 152.542 36.6843C152.403 36.8207 152.192 36.8916 152.053 36.8916H148.967L149.034 36.9625Z" fill="#9DAAB3"/>
</g>
<defs>
<clipPath id="clip0_1404_35575">
<rect width="139" height="18.1699" fill="white" transform="translate(31 19)"/>
</clipPath>
</defs>
</svg>
