<svg width="200" height="56" viewBox="0 0 200 56" fill="none" xmlns="http://www.w3.org/2000/svg">
<path d="M75.0819 16.0119C80.0918 16.0119 84.1532 20.141 84.1532 25.2346V30.5377C84.1532 35.6312 80.0918 39.7603 75.0819 39.7603C74.295 39.7603 73.5314 39.6585 72.8033 39.4669L72.8034 40.0929C72.8034 43.8191 69.818 46.8468 66.1125 46.9071L66 46.9079V26.618L66.0104 26.6177L66.0107 25.2346C66.0107 20.141 70.072 16.0119 75.0819 16.0119ZM115.705 16.0119C120.718 16.0119 124.782 20.1646 124.782 25.2873V30.6207C124.782 35.7434 120.718 39.8961 115.705 39.8961C110.692 39.8961 106.628 35.7434 106.628 30.6207V25.2873C106.628 20.1646 110.692 16.0119 115.705 16.0119ZM95.3908 15.5736C100.404 15.5736 104.467 19.7264 104.467 24.849V30.1824C104.467 35.305 100.404 39.4579 95.3908 39.4579C90.3779 39.4579 86.3142 35.305 86.3142 30.1824V24.849C86.3142 19.7264 90.3779 15.5736 95.3908 15.5736ZM133.858 9V32.5306C133.858 36.3182 130.824 39.3957 127.057 39.4569L126.943 39.4579V15.9272C126.943 12.1014 130.039 9 133.858 9ZM115.705 22.9684C114.452 22.9684 113.436 24.0067 113.436 25.2873V30.6207C113.436 31.9014 114.452 32.9395 115.705 32.9395C116.958 32.9395 117.974 31.9014 117.974 30.6207V25.2873C117.974 24.0067 116.958 22.9684 115.705 22.9684ZM75.0819 22.9288C73.8294 22.9288 72.8141 23.9611 72.8141 25.2346V30.5377C72.8141 31.811 73.8294 32.8433 75.0819 32.8433C76.3344 32.8433 77.3497 31.811 77.3497 30.5377V25.2346C77.3497 23.9611 76.3344 22.9288 75.0819 22.9288ZM95.3908 22.5302C94.1376 22.5302 93.1217 23.5683 93.1217 24.849V30.1824C93.1217 31.4631 94.1376 32.5013 95.3908 32.5013C96.6441 32.5013 97.66 31.4631 97.66 30.1824V24.849C97.66 23.5683 96.6441 22.5302 95.3908 22.5302Z" fill="#9DAAB3"/>
<path d="M108.431 45.7966H108.242C108.054 45.7966 107.89 45.621 107.89 45.3475V44.0553H108.292C108.479 44.0553 108.622 43.9313 108.622 43.755C108.622 43.6659 108.589 43.5866 108.528 43.5298C108.468 43.4734 108.385 43.4436 108.292 43.4436H107.89V42.719C107.89 42.5211 107.742 42.3745 107.543 42.3745C107.343 42.3745 107.196 42.5211 107.196 42.719V43.4436H107.01C106.917 43.4436 106.834 43.4734 106.774 43.5298C106.713 43.5866 106.68 43.6659 106.68 43.755C106.68 43.9313 106.823 44.0553 107.01 44.0553H107.196V45.3475C107.196 45.991 107.643 46.4854 108.242 46.4854H108.342C108.557 46.4854 108.739 46.3494 108.739 46.1411C108.739 45.9523 108.611 45.7966 108.431 45.7966Z" fill="#9DAAB3"/>
<path fill-rule="evenodd" clip-rule="evenodd" d="M112.615 44.9123V44.9119C112.609 43.9768 111.946 43.3115 111.019 43.3115C110.553 43.3115 110.151 43.4762 109.867 43.7609C109.582 44.0457 109.418 44.4468 109.418 44.9123C109.418 45.3752 109.582 45.7748 109.867 46.0589C110.152 46.343 110.553 46.5076 111.019 46.5076C111.483 46.5076 111.883 46.3428 112.166 46.0589C112.45 45.7748 112.615 45.3752 112.615 44.9123ZM111.019 43.9452C111.29 43.9452 111.517 44.0456 111.676 44.2141C111.836 44.3831 111.932 44.6247 111.932 44.9123C111.932 45.2 111.836 45.4399 111.676 45.6075C111.517 45.7748 111.29 45.874 111.019 45.874C110.748 45.874 110.52 45.7747 110.359 45.6072C110.198 45.4397 110.101 45.1997 110.101 44.9123C110.101 44.3406 110.484 43.9452 111.019 43.9452Z" fill="#9DAAB3"/>
<path fill-rule="evenodd" clip-rule="evenodd" d="M115.032 47.7365C114.485 47.7365 113.987 47.5193 113.657 47.1046C113.595 47.0298 113.572 46.9425 113.587 46.8587C113.601 46.7756 113.652 46.7024 113.727 46.6519L113.728 46.6515C113.894 46.5415 114.095 46.5911 114.204 46.7328C114.389 46.9672 114.673 47.1028 115.043 47.1028C115.291 47.1028 115.518 47.0116 115.683 46.839C115.848 46.6666 115.956 46.4077 115.956 46.064V46.0203C115.71 46.3273 115.354 46.5076 114.932 46.5076C114.497 46.5076 114.123 46.3417 113.858 46.0571C113.594 45.7727 113.441 45.3737 113.441 44.9123C113.441 44.4468 113.606 44.0457 113.89 43.7609C114.175 43.4762 114.576 43.3115 115.043 43.3115C115.97 43.3115 116.632 43.9768 116.638 44.9119V44.9123V46.1026C116.638 47.008 115.983 47.7365 115.032 47.7365ZM115.043 45.874C114.772 45.874 114.543 45.7747 114.382 45.6072C114.221 45.4397 114.124 45.1997 114.124 44.9123C114.124 44.3406 114.507 43.9452 115.043 43.9452C115.313 43.9452 115.54 44.0456 115.7 44.2141C115.86 44.3831 115.956 44.6247 115.956 44.9123C115.956 45.2 115.86 45.4399 115.7 45.6075C115.54 45.7748 115.313 45.874 115.043 45.874Z" fill="#9DAAB3"/>
<path fill-rule="evenodd" clip-rule="evenodd" d="M120.149 45.6968C120.027 45.597 119.848 45.601 119.714 45.7003C119.575 45.8022 119.323 45.8959 119.112 45.8959C118.609 45.8959 118.237 45.6028 118.131 45.1741H120.155C120.246 45.1741 120.328 45.1439 120.387 45.0876C120.447 45.0309 120.48 44.9518 120.48 44.8628C120.48 44.4142 120.347 44.026 120.096 43.749C119.844 43.4712 119.479 43.3115 119.029 43.3115C118.573 43.3115 118.18 43.4765 117.901 43.7615C117.622 44.0463 117.461 44.4471 117.461 44.9123C117.461 45.3759 117.631 45.7758 117.925 46.0597C118.219 46.3434 118.632 46.5076 119.112 46.5076C119.465 46.5076 119.896 46.3654 120.159 46.1568C120.235 46.0982 120.277 46.0175 120.274 45.9302C120.271 45.8441 120.226 45.7625 120.151 45.6979L120.149 45.6968ZM119.029 43.9231C119.262 43.9231 119.445 44.0011 119.578 44.1308C119.696 44.2458 119.778 44.405 119.818 44.5955H118.137C118.185 44.4049 118.278 44.2463 118.411 44.1315C118.562 44.0011 118.769 43.9231 119.029 43.9231Z" fill="#9DAAB3"/>
<path d="M122.704 45.7966H122.515C122.328 45.7966 122.163 45.621 122.163 45.3475V44.0553H122.565C122.753 44.0553 122.895 43.9313 122.895 43.755C122.895 43.6659 122.862 43.5866 122.802 43.5298C122.741 43.4734 122.658 43.4436 122.565 43.4436H122.163V42.719C122.163 42.5211 122.015 42.3745 121.816 42.3745C121.617 42.3745 121.469 42.5211 121.469 42.719V43.4436H121.283C121.191 43.4436 121.108 43.4734 121.047 43.5298C120.986 43.5866 120.953 43.6659 120.953 43.755C120.953 43.9313 121.096 44.0553 121.283 44.0553H121.469V45.3475C121.469 45.991 121.916 46.4854 122.515 46.4854H122.615C122.831 46.4854 123.012 46.3494 123.012 46.1411C123.012 45.9523 122.884 45.7966 122.704 45.7966Z" fill="#9DAAB3"/>
<path d="M125.427 43.3059C125.092 43.3059 124.788 43.4099 124.553 43.5915V42.3938C124.553 42.2947 124.517 42.2064 124.453 42.1427C124.389 42.0789 124.3 42.0439 124.2 42.0439C124.1 42.0439 124.011 42.0789 123.947 42.1427C123.883 42.2064 123.848 42.2947 123.848 42.3938V46.1411C123.848 46.2402 123.883 46.3285 123.947 46.3923C124.011 46.456 124.1 46.491 124.2 46.491C124.3 46.491 124.389 46.456 124.453 46.3923C124.517 46.3285 124.553 46.2402 124.553 46.1411V44.5871C124.553 44.2329 124.871 43.9506 125.316 43.9506C125.556 43.9506 125.757 44.0173 125.898 44.1501C126.039 44.2822 126.129 44.4882 126.129 44.7855V46.1411C126.129 46.339 126.282 46.491 126.481 46.491C126.68 46.491 126.834 46.339 126.834 46.1411V44.7855C126.834 44.3134 126.684 43.942 126.43 43.6885C126.175 43.4351 125.822 43.3059 125.427 43.3059Z" fill="#9DAAB3"/>
<path fill-rule="evenodd" clip-rule="evenodd" d="M130.452 45.1741H128.428C128.534 45.6028 128.906 45.8959 129.409 45.8959C129.62 45.8959 129.872 45.8022 130.011 45.7001C130.144 45.601 130.324 45.597 130.446 45.6968L130.448 45.6979C130.523 45.7625 130.568 45.8441 130.571 45.9302C130.574 46.0175 130.532 46.0982 130.456 46.1568C130.193 46.3654 129.762 46.5076 129.409 46.5076C128.929 46.5076 128.516 46.3434 128.222 46.0597C127.928 45.7758 127.758 45.3759 127.758 44.9123C127.758 44.4471 127.919 44.0463 128.198 43.7615C128.477 43.4765 128.87 43.3115 129.326 43.3115C129.776 43.3115 130.141 43.4712 130.393 43.749C130.644 44.026 130.777 44.4142 130.777 44.8628C130.777 44.9518 130.744 45.0309 130.684 45.0876C130.624 45.1439 130.543 45.1741 130.452 45.1741ZM129.326 43.9231C129.559 43.9231 129.742 44.0011 129.875 44.1308C129.993 44.2458 130.075 44.405 130.115 44.5955H128.434C128.482 44.4049 128.575 44.2463 128.708 44.1315C128.859 44.0011 129.065 43.9231 129.326 43.9231Z" fill="#9DAAB3"/>
<path d="M133.197 43.3003C132.867 43.3003 132.56 43.4203 132.331 43.6193C132.322 43.5417 132.295 43.4741 132.244 43.4232C132.18 43.3599 132.09 43.3335 131.988 43.3335C131.886 43.3335 131.797 43.3619 131.733 43.4253C131.67 43.4884 131.641 43.577 131.641 43.6778V46.1411C131.641 46.2441 131.669 46.3331 131.734 46.3961C131.798 46.4588 131.887 46.4854 131.988 46.4854C132.091 46.4854 132.181 46.4571 132.244 46.3932C132.308 46.3296 132.334 46.2409 132.334 46.1411V44.5319C132.334 44.3072 132.452 44.1367 132.654 44.0348C132.86 43.9315 133.155 43.899 133.499 43.9656C133.581 43.9841 133.664 43.983 133.737 43.9476C133.811 43.9111 133.863 43.8429 133.886 43.7496C133.902 43.685 133.896 43.6209 133.868 43.5623C133.84 43.5047 133.792 43.4565 133.73 43.4183C133.609 43.3426 133.426 43.3003 133.197 43.3003Z" fill="#9DAAB3"/>
</svg>
