<svg width="200" height="56" viewBox="0 0 200 56" fill="none" xmlns="http://www.w3.org/2000/svg">
<path d="M30.9768 15C29.8851 15 29 15.8851 29 16.9768V19.2831C29 19.5561 29.2213 19.7773 29.4942 19.7773H30.9768C41.8035 19.7773 50.5803 28.5541 50.5803 39.3808V40.8634C50.5803 41.1364 50.8016 41.3576 51.0745 41.3576H53.3808C54.4726 41.3576 55.3576 40.4726 55.3576 39.3808C55.3576 25.9157 44.442 15 30.9768 15Z" fill="#9DAAB3"/>
<path d="M29 21.0128C29 20.7399 29.2213 20.5186 29.4942 20.5186H30.9768C41.3941 20.5186 49.839 28.9635 49.839 39.3808V40.8634C49.839 41.1364 49.6177 41.3576 49.3448 41.3576H45.5559C45.2829 41.3576 45.0617 41.1364 45.0617 40.8634V39.3808C45.0617 31.602 38.7557 25.2959 30.9768 25.2959H29.4942C29.2213 25.2959 29 25.0747 29 24.8017V21.0128Z" fill="#9DAAB3"/>
<path d="M29 26.5315C29 26.2585 29.2213 26.0373 29.4942 26.0373H30.9768C38.3463 26.0373 44.3204 32.0114 44.3204 39.3808V40.8634C44.3204 41.1364 44.0991 41.3576 43.8262 41.3576H41.5199C40.4281 41.3576 39.5431 40.4726 39.5431 39.3808C39.5431 34.6498 35.7078 30.8146 30.9768 30.8146C29.8851 30.8146 29 29.9295 29 28.8378V26.5315Z" fill="#9DAAB3"/>
<path d="M81.6825 22.8476L81.422 26.755C80.7563 26.3787 80.1195 26.234 79.2223 26.234C77.4857 26.234 76.328 27.2181 76.328 29.4467V35.5248H72.1602V22.674H76.328V25.0184C76.82 23.5712 78.1514 22.3266 79.888 22.3266C80.6695 22.3266 81.3352 22.5582 81.6825 22.8476ZM90.5102 30.0834V29.8229L88.3973 30.2571C87.0949 30.5176 86.2844 30.836 86.2844 31.849C86.2844 32.6015 86.8633 33.0646 87.7606 33.0646C89.2945 33.0646 90.5102 31.9069 90.5102 30.0834ZM94.6201 27.3338V32.0226C94.6201 32.6883 94.9095 32.9778 95.4305 32.9778C95.8068 32.9778 96.1251 32.9199 96.5014 32.7462V34.9748C95.8647 35.4379 95.0542 35.8142 93.7807 35.8142C92.2468 35.8142 91.118 35.0038 90.7417 33.5566C90.0181 35.0327 88.4262 35.8142 86.4292 35.8142C83.8532 35.8142 82.2324 34.5117 82.2324 32.3121C82.2324 29.8519 84.0848 28.8099 86.9212 28.26L90.5102 27.6233V27.3917C90.5102 26.1761 89.9024 25.4525 88.6288 25.4525C87.4132 25.4525 86.8054 26.205 86.5739 27.2759L82.6955 26.9865C83.1296 24.2369 85.1846 22.3266 88.8604 22.3266C92.2178 22.3266 94.6201 23.8317 94.6201 27.3338ZM97.9775 22.674H102.145V35.5248H97.9775V22.674ZM97.9486 21.111V17.2905H102.203V21.111H97.9486ZM109.034 28.9836V35.5248H104.866V22.674H109.034V24.671C109.728 23.2528 111.291 22.3266 113.231 22.3266C116.704 22.3266 117.861 24.7289 117.861 27.4785V35.5248H113.694V28.4916C113.694 26.6392 113.086 25.6262 111.552 25.6262C109.873 25.6262 109.034 26.9576 109.034 28.9836ZM124.605 28.9546V29.2441C124.605 31.328 125.792 32.6304 127.529 32.6304C129.497 32.6304 130.452 31.2122 130.452 29.0994C130.452 27.0154 129.497 25.5972 127.529 25.5972C125.792 25.5972 124.605 26.8997 124.605 28.9546ZM124.403 33.2093L123.65 35.5248H120.437V17.2905H124.605V24.9894C125.242 23.4554 126.718 22.3266 128.947 22.3266C132.709 22.3266 134.678 25.3367 134.678 29.0994C134.678 32.8909 132.709 35.8721 128.86 35.8721C126.718 35.8721 125.097 34.7722 124.403 33.2093ZM140.264 29.0994C140.264 31.2412 141.103 32.7173 142.955 32.7173C144.779 32.7173 145.676 31.2412 145.676 29.0994C145.676 26.9576 144.779 25.4815 142.955 25.4815C141.103 25.4815 140.264 26.9576 140.264 29.0994ZM149.902 29.0994C149.902 33.0935 147.065 35.8721 142.955 35.8721C138.845 35.8721 136.038 33.0935 136.038 29.0994C136.038 25.1341 138.845 22.3266 142.955 22.3266C147.065 22.3266 149.902 25.1341 149.902 29.0994ZM162.579 22.674L164.634 30.4886H164.75L167.21 22.674H171.001L166.92 35.5248H162.839L160.755 27.768H160.64L158.585 35.5248H154.504L150.423 22.674H154.59L157.051 30.4886H157.166L159.221 22.674H162.579Z" fill="#9DAAB3"/>
</svg>
