<svg width="200" height="56" viewBox="0 0 200 56" fill="none" xmlns="http://www.w3.org/2000/svg">
<path d="M67.7035 22.6362C67.7035 22.6362 68.4173 23.0323 69.5005 23.6319L83.6152 17.7741C83.1057 17.0994 82.547 16.4652 81.9447 15.8745C81.8449 15.9308 81.762 15.9624 81.762 15.9624L67.0391 22.1561C67.2049 22.327 67.4222 22.489 67.7035 22.6362Z" fill="#9DAAB3"/>
<path d="M58.5876 40.1002L72.8732 34.1407L70.2163 32.6382L59.3113 37.2731L56.5508 38.4407C57.0583 39.0966 57.6121 39.7149 58.2085 40.2899L58.5876 40.1002Z" fill="#9DAAB3"/>
<path d="M85.1106 20.1462L82.51 21.1538C80.4278 21.9164 72.2369 25.1466 72.2369 25.1466C73.5757 25.8855 75.0222 26.6807 76.2968 27.3771C79.554 29.1572 77.4924 33.0641 77.0619 33.8059C77.056 33.8158 77.0501 33.8257 77.0442 33.8355C77.0096 33.8948 76.9879 33.9294 76.9879 33.9294C76.9879 33.9294 77.294 31.0094 75.2374 29.9297C73.164 28.8529 68.41 26.3192 66.4127 25.2523C65.4718 24.7495 64.7885 23.8387 64.6602 22.7798C64.5634 21.9876 64.7629 21.0758 65.7137 20.2777C66.2261 19.8045 66.773 19.5308 66.854 19.4923C66.8609 19.4894 66.8668 19.4864 66.8737 19.4834L77.4835 15.1281C77.4835 15.1281 77.5507 15.1014 77.6484 15.0511L79.8571 14.1334C77.0788 12.1627 73.6873 11 70.0233 11C60.6062 11 52.8291 18.9302 53.0029 28.3511C53.0562 31.2603 53.8421 33.9887 55.1779 36.3654L59.2872 34.5735L67.4662 31.1398C66.0562 30.3663 64.753 29.6462 64.1349 29.3163C63.8259 29.1513 63.4398 28.8915 63.1308 28.7275C61.4741 27.8513 60.3881 25.3778 62.9028 22.442C62.9028 22.442 62.6421 25.2276 64.1991 26.174C65.686 27.0788 71.4688 30.0413 73.162 30.9501C73.5471 31.1565 73.9055 31.4124 74.2017 31.7324C74.9511 32.5425 75.2463 33.5639 74.952 34.6476C74.9392 34.6989 74.9224 34.7473 74.9066 34.7977C74.8968 34.8293 74.8859 34.8619 74.875 34.8945C74.8572 34.9439 74.8405 34.9923 74.8207 35.0397C74.8148 35.0545 74.8099 35.0703 74.8039 35.0852C74.2185 36.5017 72.6585 36.9284 72.6585 36.9284L72.4699 36.9916L62.5296 41.0724L60.3377 42.0355C63.1121 43.9608 66.4828 45.0839 70.1191 45.0641C79.5441 45.0128 87.2758 37.0351 87.0438 27.6073C86.9747 24.9194 86.2826 22.3876 85.1106 20.1462Z" fill="#9DAAB3"/>
<path d="M99.6909 24.4075H98.3785V28.3796H95.6172V16.2905H100.45C102.746 16.2905 104.593 18.1388 104.593 20.4354C104.593 21.9212 103.696 23.2676 102.367 23.9413L104.938 28.3796H101.969L99.6909 24.4075ZM98.3785 21.9893H100.45C101.209 21.9893 101.831 21.3156 101.831 20.4354C101.831 19.5543 101.21 18.8816 100.45 18.8816H98.3785V21.9893Z" fill="#9DAAB3"/>
<path d="M114.567 19.744V28.3785H111.978V27.5666C111.409 28.2225 110.563 28.6196 109.406 28.6196C107.145 28.6196 105.281 26.6331 105.281 24.0608C105.281 21.4875 107.145 19.501 109.406 19.501C110.563 19.501 111.409 19.8981 111.978 20.555V19.743H114.567V19.744ZM111.978 24.0618C111.978 22.7667 111.115 21.9547 109.924 21.9547C108.733 21.9547 107.87 22.7667 107.87 24.0618C107.87 25.3568 108.733 26.1688 109.924 26.1688C111.115 26.1688 111.978 25.3568 111.978 24.0618Z" fill="#9DAAB3"/>
<path d="M124.75 23.0774V28.379H122.162V23.4567C122.162 22.3859 121.488 21.8851 120.66 21.8851C119.711 21.8851 119.055 22.4383 119.055 23.6642V28.379H116.465V19.7445H119.053V20.5565C119.52 19.9173 120.382 19.5024 121.522 19.5024C123.265 19.5024 124.75 20.7461 124.75 23.0774Z" fill="#9DAAB3"/>
<path d="M135.384 19.7445V27.9473C135.384 30.8486 133.123 32.0745 130.828 32.0745C129.033 32.0745 127.531 31.4008 126.737 29.9853L128.946 28.708C129.274 29.3125 129.774 29.7956 130.914 29.7956C132.122 29.7956 132.865 29.1732 132.865 27.9473V27.1531C132.295 27.8614 131.467 28.2753 130.344 28.2753C127.894 28.2753 126.098 26.272 126.098 23.8894C126.098 21.5067 127.892 19.5024 130.344 19.5024C131.467 19.5024 132.295 19.9173 132.865 20.6256V19.7445H135.384ZM132.864 23.8894C132.864 22.6981 132.001 21.8861 130.776 21.8861C129.55 21.8861 128.687 22.6981 128.687 23.8894C128.687 25.0807 129.55 25.8927 130.776 25.8927C132.001 25.8927 132.864 25.0807 132.864 23.8894Z" fill="#9DAAB3"/>
<path d="M136.852 24.0623C136.852 21.4889 138.888 19.5024 141.426 19.5024C143.963 19.5024 146 21.4889 146 24.0623C146 26.6355 143.963 28.6211 141.426 28.6211C138.888 28.6211 136.852 26.6355 136.852 24.0623ZM143.41 24.0623C143.41 22.8364 142.547 22.0244 141.425 22.0244C140.303 22.0244 139.44 22.8364 139.44 24.0623C139.44 25.2882 140.303 26.1001 141.425 26.1001C142.547 26.1001 143.41 25.2882 143.41 24.0623Z" fill="#9DAAB3"/>
<path d="M96.1079 39.5932H99.8606V40.1296H95.5391V32.6201H99.8065V33.1565H96.1067V36.0745H99.5378V36.6109H96.1067V39.5932H96.1079Z" fill="#9DAAB3"/>
<path d="M105.761 40.13H105.106L103.294 37.7918L101.483 40.13H100.828L102.972 37.373L100.956 34.7661H101.611L103.294 36.9443L104.989 34.7661H105.632L103.627 37.3621L105.761 40.13Z" fill="#9DAAB3"/>
<path d="M109.218 40.2484C108.41 40.2484 107.738 39.9797 107.202 39.4433C106.666 38.907 106.398 38.2422 106.398 37.4479C106.398 36.6537 106.667 35.9889 107.202 35.4525C107.738 34.9161 108.41 34.6475 109.218 34.6475C109.741 34.6475 110.212 34.7709 110.634 35.0179C111.055 35.2648 111.364 35.5987 111.556 36.0205L111.117 36.2783C110.959 35.9346 110.711 35.6629 110.371 35.4624C110.032 35.2629 109.648 35.1621 109.218 35.1621C108.574 35.1621 108.035 35.3824 107.599 35.822C107.162 36.2616 106.944 36.8039 106.944 37.447C106.944 38.091 107.162 38.6323 107.599 39.0719C108.035 39.5115 108.574 39.7318 109.218 39.7318C109.648 39.7318 110.032 39.632 110.371 39.4315C110.711 39.231 110.969 38.9593 111.148 38.6165L111.598 38.8842C111.384 39.2991 111.064 39.6301 110.639 39.877C110.213 40.1249 109.741 40.2484 109.218 40.2484Z" fill="#9DAAB3"/>
<path d="M115.493 34.6481C116.129 34.6481 116.636 34.8437 117.011 35.2329C117.386 35.6231 117.574 36.1427 117.574 36.7936V40.1305H117.027V36.7936C117.027 36.2928 116.888 35.8967 116.614 35.6033C116.339 35.3099 115.951 35.1637 115.451 35.1637C114.9 35.1637 114.45 35.3465 114.1 35.711C113.75 36.0755 113.575 36.605 113.575 37.2984V40.1305H113.039V32.6211H113.575V35.7851C113.96 35.0264 114.6 34.6481 115.493 34.6481Z" fill="#9DAAB3"/>
<path d="M124.058 34.766H124.605V40.1299H124.058V38.9178C123.829 39.3327 123.515 39.6577 123.115 39.8938C122.713 40.1299 122.26 40.2484 121.753 40.2484C120.988 40.2484 120.334 39.9787 119.791 39.4384C119.248 38.8981 118.977 38.2352 118.977 37.4489C118.977 36.6626 119.248 35.9988 119.791 35.4594C120.334 34.9191 120.988 34.6494 121.753 34.6494C122.26 34.6494 122.714 34.768 123.115 35.004C123.514 35.2401 123.829 35.5651 124.058 35.98V34.766ZM120.182 39.0679C120.621 39.5115 121.16 39.7328 121.795 39.7328C122.431 39.7328 122.967 39.5115 123.404 39.0679C123.84 38.6244 124.057 38.0851 124.057 37.4479C124.057 36.8117 123.839 36.2714 123.404 35.8279C122.967 35.3844 122.431 35.1631 121.795 35.1631C121.16 35.1631 120.621 35.3853 120.182 35.8279C119.743 36.2714 119.522 36.8117 119.522 37.4479C119.522 38.0851 119.743 38.6244 120.182 39.0679Z" fill="#9DAAB3"/>
<path d="M128.97 34.6484C129.606 34.6484 130.112 34.8441 130.488 35.2332C130.863 35.6234 131.05 36.143 131.05 36.794V40.1309H130.503V36.794C130.503 36.2932 130.365 35.8971 130.091 35.6037C129.815 35.3103 129.427 35.1641 128.928 35.1641C128.377 35.1641 127.926 35.3468 127.577 35.7113C127.226 36.0759 127.052 36.6053 127.052 37.2988V40.1309H126.516V34.767H127.052V35.7864C127.437 35.0268 128.077 34.6484 128.97 34.6484Z" fill="#9DAAB3"/>
<path d="M137.582 34.766H138.118V39.872C138.118 40.6514 137.864 41.2669 137.357 41.7173C136.849 42.1678 136.213 42.393 135.448 42.393C134.833 42.393 134.308 42.2784 133.872 42.0492C133.436 41.8201 133.118 41.5059 132.918 41.1049L133.39 40.8362C133.733 41.5296 134.419 41.8764 135.448 41.8764C136.113 41.8764 136.635 41.6956 137.014 41.335C137.393 40.9735 137.583 40.4855 137.583 39.8711V38.8842C137.361 39.306 137.048 39.6389 136.645 39.8819C136.241 40.1249 135.785 40.2465 135.277 40.2465C134.505 40.2465 133.849 39.9768 133.309 39.4364C132.77 38.8961 132.5 38.2333 132.5 37.447C132.5 36.6606 132.77 35.9968 133.309 35.4575C133.849 34.9171 134.505 34.6475 135.277 34.6475C135.785 34.6475 136.241 34.7689 136.645 35.012C137.048 35.255 137.361 35.5879 137.583 36.0097V34.766H137.582ZM133.696 39.068C134.135 39.5115 134.673 39.7328 135.309 39.7328C135.945 39.7328 136.483 39.5115 136.922 39.068C137.361 38.6244 137.582 38.0851 137.582 37.4479C137.582 36.8118 137.362 36.2714 136.922 35.8279C136.483 35.3844 135.945 35.1631 135.309 35.1631C134.672 35.1631 134.135 35.3853 133.696 35.8279C133.256 36.2714 133.036 36.8118 133.036 37.4479C133.036 38.0851 133.256 38.6244 133.696 39.068Z" fill="#9DAAB3"/>
<path d="M142.435 34.6484C143.222 34.6484 143.859 34.928 144.349 35.4851C144.839 36.0432 145.084 36.7051 145.084 37.4697C145.084 37.4983 145.082 37.5418 145.079 37.5981C145.075 37.6554 145.073 37.6989 145.073 37.7265H140.215C140.279 38.3271 140.521 38.8121 140.939 39.1806C141.357 39.549 141.874 39.7328 142.488 39.7328C142.917 39.7328 143.293 39.6429 143.614 39.4641C143.935 39.2853 144.178 39.0492 144.342 38.7558L144.814 39.0354C144.593 39.4078 144.278 39.7021 143.87 39.9205C143.463 40.1388 142.998 40.2474 142.476 40.2474C141.654 40.2474 140.978 39.9847 140.45 39.4591C139.921 38.9336 139.656 38.2629 139.656 37.4479C139.656 36.6468 139.915 35.98 140.433 35.4476C140.954 34.9142 141.621 34.6484 142.435 34.6484ZM142.435 35.1631C141.827 35.1631 141.32 35.3528 140.913 35.7321C140.505 36.1114 140.273 36.6014 140.216 37.202H144.527C144.47 36.5658 144.243 36.067 143.845 35.7054C143.448 35.3439 142.979 35.1631 142.435 35.1631Z" fill="#9DAAB3"/>
</svg>
