<svg
  xmlns="http://www.w3.org/2000/svg"
  fill="none"
  shape-rendering="crispEdges"
  viewBox="0 0 473 149"
  width="200"
  height="56"
>
  <g fill="#9DAAB3" clip-path="url(#a)">
    <path d="M66.75 62.75H54.5V50.5h12.25v12.25Z" opacity=".75" />
    <path d="M66.75 75H54.5V62.75h12.25V75ZM66.75 87.25H54.5V75h12.25v12.25Z" />
    <path
      d="M66.75 99.5H54.5V87.25h12.25V99.5ZM103.5 62.75H91.25V50.5h12.25v12.25Z"
      opacity=".75"
    />
    <path d="M103.5 75H91.25V62.75h12.25V75ZM103.5 87.25H91.25V75h12.25v12.25Z" />
    <path d="M103.5 99.5H91.25V87.25h12.25V99.5Z" opacity=".75" />
    <path
      d="M79 99.5H66.75V87.25H79V99.5ZM91.25 99.5H79V87.25h12.25V99.5ZM79 62.75H66.75V50.5H79v12.25ZM91.25 62.75H79V50.5h12.25v12.25Z"
    />
    <path fill-opacity=".25" d="M79 26H66.75v12.25H79V26Z" />
    <path
      fill-opacity=".75"
      d="M91.25 111.75H79V99.5h12.25v12.25ZM115.75 75H103.5v12.25h12.25V75ZM54.5 87.25H42.25V75H54.5v12.25ZM91.25 38.25H79V50.5h12.25V38.25Z"
    />
    <path
      fill-opacity=".25"
      d="M91.25 26H79v12.25h12.25V26ZM79 124H66.75v-12.25H79V124ZM91.25 124H79v-12.25h12.25V124ZM128 62.75h-12.25V75H128V62.75ZM128 75h-12.25v12.25H128V75ZM42.25 87.25H30V75h12.25v12.25ZM42.25 75H30V62.75h12.25V75Z"
    />
    <path
      fill-opacity=".75"
      d="M79 38.25H66.75V50.5H79V38.25ZM79 111.75H66.75V99.5H79v12.25ZM115.75 62.75H103.5V75h12.25V62.75ZM54.5 75H42.25V62.75H54.5V75Z"
    />
  </g>
  <path
    fill="#9DAAB3"
    d="M190.64 97h-6.27l-7.239-15.96h-5.871V97h-5.7V57.1h14.82c5.7 0 10.26 4.56 10.26 10.26v3.42c0 4.731-3.135 8.664-7.467 9.861L190.64 97Zm-19.38-21.66h9.12c2.565 0 4.56-1.995 4.56-4.56v-3.42c0-2.565-1.995-4.56-4.56-4.56h-9.12v12.54Zm53.558-18.24v5.7h-19.38v10.431h17.1v5.7h-17.1V91.3h19.38V97h-25.08V57.1h25.08Zm23.917 0c5.643 0 10.26 4.56 10.26 10.26v19.323c0 5.643-4.617 10.317-10.26 10.317h-14.82V57.1h14.82Zm-9.12 34.143h9.12a4.573 4.573 0 0 0 4.56-4.56V67.36a4.537 4.537 0 0 0-4.56-4.56h-9.12v28.443Zm28.478-7.125h5.7v2.28c0 2.679 2.223 4.902 4.902 4.902h3.819c2.907 0 4.959-1.824 4.959-4.332 0-7.866-18.81-9.576-18.81-20.406 0-5.586 4.389-9.462 10.602-9.462h2.679c5.871 0 10.659 4.731 10.659 10.602v1.71h-5.7v-1.71c0-2.736-2.223-4.902-4.959-4.902h-2.679c-3.078 0-4.902 1.425-4.902 3.762 0 6.042 18.81 8.379 18.81 20.406 0 5.7-4.617 10.032-10.659 10.032h-3.819a10.582 10.582 0 0 1-10.602-10.602v-2.28ZM302.271 57.1h25.08v5.7h-9.69V97h-5.7V62.8h-9.69v-5.7Zm48.998 34.143a4.573 4.573 0 0 0 4.56-4.56V67.36c0-2.565-1.995-4.56-4.56-4.56h-4.56a4.537 4.537 0 0 0-4.56 4.56v19.323a4.573 4.573 0 0 0 4.56 4.56h4.56Zm-14.82-4.56V67.36c0-5.7 4.617-10.26 10.26-10.26h4.56c5.7 0 10.26 4.56 10.26 10.26v19.323c0 5.643-4.56 10.317-10.26 10.317h-4.56c-5.643 0-10.26-4.674-10.26-10.317ZM390.006 57.1h5.7V97h-8.265l-11.115-30.324V97h-5.7V57.1h8.265l11.115 30.324V57.1Zm39.878 0v5.7h-19.38v10.431h17.1v5.7h-17.1V91.3h19.38V97h-25.08V57.1h25.08Z"
  />
  <defs>
    <clipPath id="a"><path fill="#9DAAB3" d="M30 26h98v98H30z" /></clipPath>
  </defs>
</svg>
