<svg width="200" height="56" viewBox="0 0 200 56" fill="none" xmlns="http://www.w3.org/2000/svg">
<path d="M86.6193 21.2647C84.5689 21.2647 82.9806 22.4369 82.9806 24.171C82.9806 25.905 84.3235 26.4419 85.984 26.7595L88.0842 27.1008C90.8671 27.5642 92.7967 28.8348 92.7967 31.8868C92.7967 34.9387 90.1845 36.9169 86.8635 36.9169C83.8667 36.9169 81.0471 35.1487 80.6336 31.6978C80.5995 31.409 80.8226 31.1543 81.114 31.1543H82.3676C82.6091 31.1543 82.8165 31.3328 82.8454 31.5717C83.1421 34.0225 85.0376 34.9873 86.8884 34.9873C88.9151 34.9873 90.5271 33.9857 90.5271 31.9603C90.5271 30.1528 89.2328 29.5187 87.5237 29.2011L85.4484 28.8348C82.5422 28.3465 80.711 26.9551 80.711 24.293C80.711 21.2162 83.3967 19.3364 86.6193 19.3364C89.1934 19.3364 92.0314 20.7896 92.5827 24.2195C92.63 24.5136 92.4029 24.7814 92.1049 24.7814H90.8028C90.5691 24.7814 90.3656 24.6146 90.3276 24.3836C89.9482 22.097 88.2838 21.2661 86.6193 21.2661V21.2647Z" fill="#9DAAB3"/>
<path d="M101.157 23.1563C104.263 23.1563 106.473 24.8155 107.253 27.5169C107.342 27.8241 107.107 28.13 106.787 28.13H105.321C105.114 28.13 104.932 27.9961 104.864 27.8018C104.319 26.2581 103.062 25.3786 101.156 25.3786C98.562 25.3786 97.1076 27.4959 97.1076 30.0359C97.1076 32.5759 98.5633 34.6932 101.156 34.6932C103.062 34.6932 104.319 33.8138 104.864 32.2701C104.932 32.0745 105.114 31.9419 105.321 31.9419H106.779C107.101 31.9419 107.335 32.2517 107.244 32.5602C106.409 35.385 104.271 36.9169 101.156 36.9169C97.1601 36.9169 94.6201 33.8203 94.6201 30.0372C94.6201 26.2542 97.1601 23.1576 101.156 23.1576L101.157 23.1563Z" fill="#9DAAB3"/>
<path d="M109.595 34.7169H112.726V26.0218H109.935C109.668 26.0218 109.452 25.8052 109.452 25.5388V24.3049C109.452 24.0384 109.668 23.8218 109.935 23.8218H113.736C114.537 23.8218 115.186 24.4716 115.184 25.2723V25.6254C115.871 23.9662 117.361 23.5606 119.664 23.5606C120.552 23.5606 121.137 23.705 121.473 23.8297C121.662 23.9006 121.786 24.0804 121.786 24.2825V25.5571C121.786 25.884 121.467 26.119 121.156 26.0166C120.741 25.8814 120.164 25.7606 119.402 25.7606C116.941 25.7606 115.186 27.4369 115.186 30.3431V34.7169H119.208C119.474 34.7169 119.691 34.9335 119.691 35.1999V36.4338C119.691 36.7003 119.474 36.9169 119.208 36.9169H109.594C109.327 36.9169 109.111 36.7003 109.111 36.4338V35.1999C109.111 34.9335 109.327 34.7169 109.594 34.7169H109.595Z" fill="#9DAAB3"/>
<path d="M123.627 30.0359C123.627 26.2515 126.141 23.1563 130.217 23.1563C134.293 23.1563 136.806 26.2528 136.806 30.0359C136.806 33.819 134.293 36.9156 130.217 36.9156C126.141 36.9156 123.627 33.819 123.627 30.0359ZM130.217 34.6932C132.837 34.6932 134.345 32.5759 134.345 30.0359C134.345 27.4959 132.837 25.3786 130.217 25.3786C127.597 25.3786 126.088 27.4959 126.088 30.0359C126.088 32.5759 127.597 34.6932 130.217 34.6932Z" fill="#9DAAB3"/>
<path d="M142.271 34.8206H146.049C146.315 34.8206 146.532 35.0372 146.532 35.3036V36.4338C146.532 36.7003 146.315 36.9169 146.049 36.9169H140.391C140.125 36.9169 139.908 36.7003 139.908 36.4338V21.5483H138.028C137.762 21.5483 137.545 21.3317 137.545 21.0652V19.935C137.545 19.6686 137.762 19.452 138.028 19.452H140.823C141.623 19.452 142.271 20.1004 142.271 20.8998V34.8179V34.8206Z" fill="#9DAAB3"/>
<path d="M150.623 34.8206H154.401C154.668 34.8206 154.884 35.0372 154.884 35.3036V36.4338C154.884 36.7003 154.668 36.9169 154.401 36.9169H148.744C148.477 36.9169 148.26 36.7003 148.26 36.4338V21.5483H146.381C146.114 21.5483 145.898 21.3317 145.898 21.0652V19.935C145.898 19.6686 146.114 19.452 146.381 19.452H149.175C149.975 19.452 150.623 20.1004 150.623 20.8998V34.8193V34.8206Z" fill="#9DAAB3"/>
<path d="M48.559 24.5556C47.3907 23.449 46.5637 22.0143 46.5637 20.3026L46.5664 20.1214C46.6596 17.2152 49.0538 14.876 51.9574 14.7828L70.4751 14.7802C70.9608 14.7986 71.3507 15.1478 71.3507 15.6387V31.304C71.7786 31.3814 71.9821 31.4339 72.3929 31.5836C72.7132 31.7004 73.1687 31.9577 73.1687 31.9577V15.64C73.1411 14.1554 71.965 12.9596 70.4751 12.9596H51.9561C47.963 13.0252 44.7444 16.2871 44.7444 20.3039C44.7444 22.6352 45.8063 24.6225 47.5469 26.0218C47.6624 26.115 47.7779 26.2371 48.0904 26.2358C48.6364 26.2345 49.0184 25.8065 48.9961 25.3314C48.9777 24.9402 48.8123 24.7971 48.559 24.5569V24.5556Z" fill="#9DAAB3"/>
<path d="M70.0025 32.3436H55.4766C54.5013 32.3515 53.7137 33.1443 53.7137 34.1222V36.2054C53.7426 37.1702 54.5643 37.9972 55.5357 37.9972H56.6147V36.2054H55.5357V34.1656H56.125C57.9575 34.1656 59.3069 35.872 59.3069 37.6927C59.3069 39.3059 57.8394 41.3734 55.3716 41.208C53.1821 41.061 52.0059 39.1156 52.0059 37.6927V19.9902C52.0059 19.1907 51.3575 18.5423 50.5567 18.5423H49.1089V20.3485H50.1853V37.6927C50.1301 41.2198 52.6977 42.9984 55.3716 42.9984L70.0012 43.0418C72.9507 43.0418 75.3424 40.6475 75.3424 37.6927C75.3424 34.7379 72.9507 32.3436 70.0012 32.3436H70.0025ZM73.523 37.8082C73.4613 39.7023 71.9098 41.2198 70.0025 41.2198L59.8215 41.1804C60.6353 40.2419 61.125 39.0211 61.125 37.6927C61.125 35.6016 59.8793 34.1656 59.8793 34.1656H70.0025C71.9478 34.1656 73.5243 35.7447 73.5243 37.6927V37.8082H73.523Z" fill="#9DAAB3"/>
<path d="M66.0934 18.8678H55.1445V20.674H66.0934C66.5922 20.674 66.9965 20.2697 66.9965 19.7709C66.9965 19.2721 66.5922 18.8678 66.0934 18.8678Z" fill="#9DAAB3"/>
<path d="M66.0934 27.3936H55.1445V29.1998H66.0934C66.5922 29.1998 66.9965 28.7955 66.9965 28.2967C66.9965 27.7979 66.5922 27.3936 66.0934 27.3936Z" fill="#9DAAB3"/>
<path d="M68.0191 23.13H55.1445V24.9363H68.0204C68.5192 24.9363 68.9235 24.532 68.9235 24.0331C68.9235 23.5343 68.5192 23.13 68.0204 23.13H68.0191Z" fill="#9DAAB3"/>
</svg>
