<svg width="200" height="56" viewBox="0 0 200 56" fill="none" xmlns="http://www.w3.org/2000/svg">
<mask id="mask0_1253_27249" style="mask-type:luminance" maskUnits="userSpaceOnUse" x="20" y="22" width="162" height="12">
<path d="M20 22.145H181.002V33.83H20V22.145Z" fill="white"/>
</mask>
<g mask="url(#mask0_1253_27249)">
<path d="M35.5374 27.6865C34.8507 27.0154 34.0258 26.6801 33.0617 26.6801H23.5053C23.3277 26.6801 23.1755 26.6184 23.0482 26.4947C22.9866 26.437 22.9378 26.3671 22.905 26.2893C22.8721 26.2116 22.8558 26.1279 22.8573 26.0435V25.2685C22.8573 25.0991 22.9207 24.9524 23.0482 24.8287C23.1082 24.7689 23.1795 24.7217 23.258 24.6899C23.3365 24.6581 23.4206 24.6423 23.5053 24.6435H35.8266C35.8405 24.6441 35.8543 24.6418 35.8672 24.6368C35.8801 24.6318 35.8918 24.6243 35.9017 24.6146C35.9106 24.6065 35.9178 24.5968 35.9227 24.5859C35.9277 24.575 35.9304 24.5631 35.9307 24.5512V22.2372C35.9307 22.2065 35.9209 22.1835 35.9017 22.1679C35.88 22.1518 35.8536 22.1437 35.8266 22.1448H23.5053C22.5338 22.1448 21.7066 22.4805 21.0241 23.1516C20.3412 23.8224 20 24.6321 20 25.5808V25.7313C20 26.6877 20.3412 27.5015 21.0239 28.1725C21.7063 28.8435 22.5336 29.1789 23.5055 29.1789H33.0615C33.2313 29.1789 33.3797 29.2385 33.5068 29.3581C33.6343 29.4778 33.6977 29.6262 33.6977 29.8038V30.5786C33.6977 30.7562 33.6343 30.9046 33.5068 31.0243C33.3795 31.144 33.2311 31.2036 33.0615 31.2036H20.729C20.717 31.2038 20.7052 31.2065 20.6943 31.2115C20.6834 31.2165 20.6736 31.2237 20.6655 31.2326C20.6558 31.2425 20.6482 31.2543 20.6432 31.2673C20.6381 31.2803 20.6358 31.2941 20.6364 31.308V33.6218C20.6364 33.645 20.6461 33.6662 20.6653 33.6852C20.6734 33.6941 20.6831 33.7013 20.694 33.7063C20.7049 33.7113 20.7168 33.7141 20.7288 33.7144H33.0615C34.0256 33.7144 34.8507 33.3772 35.5372 32.7021C36.2237 32.0273 36.567 31.2154 36.567 30.2666V30.1161C36.5668 29.1672 36.2237 28.3573 35.5374 27.6865ZM56.2837 22.1448H53.6112C53.588 22.1449 53.5655 22.153 53.5476 22.1679C53.5283 22.1835 53.5186 22.2065 53.5186 22.2372V25.1759C53.5186 25.4302 53.3873 25.6232 53.1254 25.7543L47.7922 27.9636L42.459 25.7543C42.1968 25.6232 42.0656 25.4304 42.0656 25.1757V22.2372C42.0656 22.2065 42.0579 22.1835 42.0425 22.1679C42.0267 22.1526 42.0036 22.1448 41.9729 22.1448H39.3002C39.277 22.1449 39.2546 22.153 39.2368 22.1679C39.2176 22.1835 39.2078 22.2065 39.2078 22.2372V25.6038C39.2078 26.1055 39.3467 26.5643 39.6243 26.9805C39.9021 27.397 40.2797 27.7053 40.7582 27.9059L46.3577 30.2543V33.6095C46.3571 33.6234 46.3594 33.6373 46.3644 33.6503C46.3694 33.6632 46.377 33.6751 46.3867 33.685C46.3966 33.6947 46.4083 33.7023 46.4212 33.7072C46.4341 33.7122 46.4479 33.7145 46.4617 33.7139H49.1343C49.1462 33.7137 49.1581 33.711 49.169 33.706C49.1799 33.701 49.1896 33.6939 49.1977 33.685C49.2074 33.6751 49.215 33.6633 49.2199 33.6503C49.2249 33.6374 49.2272 33.6236 49.2267 33.6097V30.2545L54.8262 27.9177C55.304 27.7093 55.6825 27.3989 55.9599 26.9865C56.2377 26.5738 56.3761 26.1171 56.3761 25.6154V22.2372C56.3761 22.2065 56.3666 22.1835 56.3472 22.1679C56.3293 22.1531 56.3069 22.1449 56.2837 22.1448ZM76.1345 22.1448H73.462C73.4311 22.1448 73.4079 22.1545 73.3924 22.1738C73.3776 22.1916 73.3694 22.214 73.3694 22.2372V31.2148H72.2472C72.0389 31.2148 71.8615 31.1224 71.715 30.9372L66.5324 23.3594C65.9768 22.5807 65.2093 22.1755 64.23 22.1448H59.7645C59.7506 22.1442 59.7368 22.1465 59.7239 22.1515C59.7109 22.1565 59.6991 22.1641 59.6892 22.1738C59.6803 22.1818 59.6732 22.1916 59.6682 22.2025C59.6632 22.2134 59.6605 22.2252 59.6603 22.2372V33.6211C59.6603 33.6444 59.6698 33.6655 59.6892 33.6846C59.6991 33.6943 59.7109 33.7019 59.7238 33.707C59.7368 33.712 59.7506 33.7143 59.7645 33.7137H62.437C62.449 33.7135 62.4609 33.7108 62.4718 33.7058C62.4827 33.7008 62.4926 33.6937 62.5007 33.6848C62.5095 33.6767 62.5167 33.667 62.5217 33.656C62.5267 33.6451 62.5294 33.6333 62.5296 33.6213V24.6433H63.6518C63.8601 24.6433 64.0372 24.7399 64.184 24.9325L69.3668 32.5104C69.9222 33.2894 70.6895 33.6905 71.6689 33.7133H76.1347C76.1656 33.7133 76.1886 33.7038 76.2043 33.6846C76.2191 33.6667 76.2272 33.6443 76.2273 33.6211V22.237C76.2271 22.2138 76.219 22.1914 76.2043 22.1736C76.1884 22.1543 76.1654 22.1446 76.1345 22.1446V22.1448ZM95.4508 22.1448H79.0804C79.0497 22.1448 79.0262 22.1545 79.011 22.1738C78.9961 22.1915 78.9879 22.214 78.988 22.2372V24.5512C78.988 24.5742 78.9954 24.5955 79.011 24.6146C79.0262 24.634 79.0497 24.6435 79.0804 24.6435H85.8366V33.6211C85.8366 33.6444 85.8442 33.6655 85.8596 33.6846C85.8751 33.704 85.8983 33.7137 85.9292 33.7137H88.6017C88.6326 33.7137 88.6556 33.704 88.6711 33.6848C88.686 33.667 88.6941 33.6445 88.6941 33.6213V24.6433H95.4504C95.4642 24.6439 95.478 24.6416 95.4909 24.6366C95.5038 24.6316 95.5155 24.6241 95.5254 24.6144C95.5343 24.6063 95.5415 24.5966 95.5465 24.5857C95.5514 24.5747 95.5541 24.5629 95.5544 24.5509V22.2372C95.5541 22.2252 95.5514 22.2134 95.5465 22.2025C95.5415 22.1916 95.5343 22.1818 95.5254 22.1738C95.5157 22.164 95.504 22.1564 95.4911 22.1514C95.4783 22.1465 95.4645 22.1442 95.4508 22.1448ZM115.301 22.1448H112.629C112.617 22.145 112.605 22.1477 112.594 22.1527C112.583 22.1577 112.573 22.1649 112.565 22.1738C112.556 22.1818 112.549 22.1916 112.544 22.2025C112.539 22.2134 112.536 22.2252 112.536 22.2372V26.6797H101.707V22.2372C101.707 22.2252 101.705 22.2134 101.7 22.2025C101.695 22.1916 101.687 22.1818 101.678 22.1738C101.669 22.1642 101.657 22.1566 101.644 22.1517C101.631 22.1467 101.617 22.1444 101.604 22.1448H98.9309C98.9189 22.145 98.9071 22.1477 98.8962 22.1527C98.8853 22.1577 98.8755 22.1649 98.8675 22.1738C98.8586 22.1818 98.8515 22.1916 98.8465 22.2025C98.8415 22.2134 98.8388 22.2252 98.8385 22.2372V33.6211C98.8385 33.6444 98.8482 33.6655 98.8675 33.6846C98.8755 33.6935 98.8853 33.7007 98.8962 33.7057C98.9071 33.7107 98.9189 33.7135 98.9309 33.7137H101.604C101.617 33.7143 101.631 33.712 101.644 33.707C101.657 33.702 101.669 33.6945 101.678 33.6848C101.687 33.6767 101.695 33.667 101.7 33.6561C101.705 33.6452 101.707 33.6333 101.707 33.6213V29.1786H112.536V33.6209C112.536 33.6442 112.546 33.6653 112.565 33.6844C112.573 33.6933 112.583 33.7005 112.594 33.7055C112.605 33.7105 112.617 33.7132 112.629 33.7135H115.301C115.315 33.714 115.329 33.7117 115.342 33.7068C115.355 33.7018 115.366 33.6942 115.376 33.6846C115.385 33.6765 115.392 33.6667 115.397 33.6558C115.402 33.6449 115.405 33.6331 115.405 33.6211V22.237C115.405 22.225 115.402 22.2133 115.397 22.2024C115.392 22.1915 115.385 22.1817 115.376 22.1736C115.366 22.1639 115.355 22.1564 115.342 22.1514C115.329 22.1464 115.315 22.1441 115.301 22.1446V22.1448ZM135.081 22.1448H122.112C121.148 22.1448 120.323 22.4801 119.636 23.1512C118.95 23.8222 118.607 24.6321 118.607 25.5808V30.2662C118.607 31.2226 118.95 32.0364 119.636 32.7074C120.323 33.3782 121.148 33.7139 122.112 33.7139H135.081C135.093 33.7137 135.105 33.711 135.116 33.706C135.127 33.701 135.137 33.6939 135.145 33.685C135.153 33.6769 135.161 33.6671 135.166 33.6562C135.171 33.6453 135.173 33.6335 135.174 33.6216V31.3076C135.174 31.2767 135.164 31.2537 135.145 31.2383C135.127 31.2234 135.104 31.2152 135.081 31.215H122.112C121.935 31.215 121.784 31.1537 121.661 31.0302C121.537 30.907 121.476 30.7602 121.476 30.5905V29.1789H135.073C135.103 29.1789 135.126 29.1691 135.142 29.1499C135.157 29.132 135.165 29.1096 135.165 29.0865V26.7723C135.165 26.7414 135.157 26.7184 135.142 26.7027C135.126 26.6875 135.103 26.6797 135.073 26.6797H121.476V25.2683C121.476 25.0985 121.537 24.9522 121.661 24.8285C121.784 24.7053 121.935 24.6433 122.112 24.6433H135.081C135.093 24.6431 135.105 24.6404 135.116 24.6354C135.127 24.6304 135.137 24.6232 135.145 24.6144C135.154 24.6063 135.161 24.5965 135.166 24.5856C135.171 24.5747 135.173 24.5629 135.174 24.5509V22.2372C135.173 22.2252 135.171 22.2134 135.166 22.2025C135.161 22.1916 135.154 22.1818 135.145 22.1738C135.137 22.1649 135.127 22.1578 135.116 22.1529C135.105 22.1479 135.093 22.1451 135.081 22.1448ZM154.838 22.1448H138.468C138.437 22.1448 138.413 22.1545 138.398 22.1738C138.383 22.1915 138.375 22.214 138.375 22.2372V24.5512C138.375 24.5742 138.383 24.5955 138.398 24.6146C138.413 24.634 138.437 24.6435 138.468 24.6435H145.224V33.6211C145.224 33.6444 145.231 33.6655 145.247 33.6846C145.262 33.704 145.285 33.7137 145.316 33.7137H147.989C148.02 33.7137 148.043 33.704 148.058 33.6848C148.073 33.667 148.081 33.6446 148.081 33.6213V24.6433H154.837C154.851 24.6439 154.865 24.6416 154.878 24.6366C154.891 24.6316 154.903 24.6241 154.913 24.6144C154.921 24.6063 154.929 24.5965 154.934 24.5856C154.938 24.5747 154.941 24.5629 154.942 24.5509V22.2372C154.941 22.2252 154.938 22.2134 154.934 22.2025C154.929 22.1916 154.921 22.1818 154.913 22.1738C154.903 22.1641 154.891 22.1565 154.878 22.1515C154.865 22.1466 154.852 22.1443 154.838 22.1448ZM161.06 22.1679C161.044 22.1526 161.021 22.1448 160.991 22.1448H158.318C158.287 22.1448 158.264 22.1526 158.249 22.1679C158.233 22.1835 158.226 22.2065 158.226 22.2372V33.6211C158.226 33.6444 158.233 33.6655 158.249 33.6846C158.264 33.704 158.287 33.7137 158.318 33.7137H160.991C161.021 33.7137 161.044 33.704 161.06 33.6848C161.075 33.6669 161.083 33.6445 161.083 33.6213V22.237C161.083 22.2065 161.075 22.1835 161.06 22.1679ZM168.439 24.9562C168.323 24.8251 168.18 24.7596 168.01 24.7596H164.54C164.526 24.7602 164.512 24.7579 164.499 24.7528C164.486 24.7478 164.475 24.7402 164.465 24.7304C164.456 24.7224 164.449 24.7126 164.444 24.7017C164.439 24.6908 164.436 24.679 164.436 24.667V22.3533C164.436 22.33 164.445 22.3089 164.465 22.2898C164.475 22.2801 164.486 22.2726 164.499 22.2675C164.512 22.2625 164.526 22.2602 164.54 22.2607H168.207C169.132 22.2607 169.931 22.6349 170.602 23.3829L171.493 24.4588L169.757 26.5526L168.439 24.9562ZM174.847 23.3714C175.518 22.6309 176.321 22.2607 177.254 22.2607H180.91C180.94 22.2607 180.964 22.2685 180.979 22.2839C180.994 22.2994 181.002 22.3224 181.002 22.3533V24.667C181.002 24.6901 180.994 24.7114 180.979 24.7304C180.964 24.7499 180.94 24.7594 180.91 24.7594H177.439C177.269 24.7594 177.127 24.8251 177.011 24.9562L174.454 28.0336L177.022 31.134C177.138 31.2575 177.277 31.3192 177.439 31.3192H180.91C180.94 31.3192 180.964 31.329 180.979 31.3482C180.994 31.3674 181.002 31.3926 181.002 31.4232V33.7368C181.002 33.76 180.994 33.7824 180.979 33.8002C180.964 33.8197 180.94 33.8294 180.91 33.8294H177.254C176.321 33.8294 175.522 33.4552 174.859 32.7072L172.731 30.1389L170.602 32.7072C169.931 33.4554 169.129 33.8294 168.196 33.8294H164.54C164.509 33.8294 164.485 33.8197 164.47 33.8004C164.454 33.7787 164.446 33.752 164.447 33.7249V31.4114C164.447 31.3882 164.455 31.3658 164.47 31.348C164.485 31.3285 164.509 31.319 164.54 31.319H168.01C168.172 31.319 168.315 31.2535 168.439 31.1222L170.949 28.0911L174.847 23.3714Z" fill="#9DAAB3"/>
</g>
</svg>
