<svg width="200" height="56" viewBox="0 0 200 56" fill="none" xmlns="http://www.w3.org/2000/svg">
<g clip-path="url(#clip0_1253_27306)">
<path fill-rule="evenodd" clip-rule="evenodd" d="M144.254 33.6987C144.721 33.6987 145.075 33.3469 145.075 32.9102C145.075 32.4735 144.721 32.1217 144.254 32.1217C143.8 32.1217 143.434 32.4735 143.434 32.9102C143.434 33.3469 143.8 33.6987 144.254 33.6987ZM152.55 33.5652L150.138 30.4356L152.411 27.5H151.123L149.494 29.6107L147.865 27.5H146.565L148.85 30.4477L146.426 33.5652H147.714L149.494 31.2726L151.262 33.5652H152.55ZM158.421 27.5L156.603 32.2551L154.456 27.5H153.282L156.034 33.541L155.921 33.7714C155.593 34.572 155.062 35.0694 154.216 35.0087V35.9913C155.504 36.0762 156.489 35.2999 157.019 33.9413L159.595 27.5H158.421ZM162.095 32.5584L165.327 28.2036V27.5H160.719V28.5068H163.812L160.592 32.8617V33.5652H165.453V32.5584H162.095Z" fill="#9DAAB3"/>
<path fill-rule="evenodd" clip-rule="evenodd" d="M137.211 27.9829C137.211 26.2619 135.918 25.0898 134.082 25.0898C132.245 25.0898 130.952 26.2619 130.952 27.9829C130.952 29.7039 132.245 30.876 134.082 30.876C135.918 30.876 137.211 29.7039 137.211 27.9829ZM140.987 21.9967V33.8444C140.987 38.0349 137.598 39.8057 134.159 39.8057C131.469 39.8057 129.219 38.8326 128.03 36.7873L131.34 34.9418C131.832 35.8148 132.582 36.5133 134.288 36.5133C136.099 36.5133 137.211 35.6154 137.211 33.8444V32.6968C136.357 33.72 135.116 34.318 133.435 34.318C129.763 34.318 127.073 31.4249 127.073 27.9829C127.073 24.5409 129.763 21.6477 133.435 21.6477C135.116 21.6477 136.357 22.2461 137.211 23.2686V21.9967H140.987ZM125.057 26.8105V34.4679H121.178V27.3594C121.178 25.8128 120.169 25.0898 118.928 25.0898C117.506 25.0898 116.523 25.8875 116.523 27.6585V34.4679H112.644V21.9967H116.523V23.1691C117.221 22.2461 118.514 21.6477 120.221 21.6477C122.833 21.6477 125.057 23.4434 125.057 26.8105ZM105.921 34.4681H109.8V21.9966H105.921V34.4681ZM105.533 18.6544C105.533 17.4319 106.593 16.4097 107.861 16.4097C109.128 16.4097 110.188 17.4319 110.188 18.6544C110.188 19.8766 109.128 20.8991 107.861 20.8991C106.593 20.8991 105.533 19.8766 105.533 18.6544ZM84.4589 30.7266C84.4589 33.5948 81.8729 34.817 79.0796 34.817C76.4934 34.817 74.5281 33.8691 73.5195 31.849L76.8813 30.0032C77.2176 30.9511 77.9415 31.4751 79.0796 31.4751C80.0108 31.4751 80.4761 31.2005 80.4761 30.7017C80.4761 29.3297 74.1147 30.0533 74.1147 25.7381C74.1147 23.0194 76.4934 21.6476 79.1831 21.6476C81.2777 21.6476 83.1398 22.5455 84.2261 24.3162L80.9159 26.0372C80.5538 25.3885 80.0363 24.9398 79.1831 24.9398C78.5106 24.9398 78.0972 25.1892 78.0972 25.6379C78.0972 27.0601 84.4589 26.1122 84.4589 30.7266ZM104.371 21.9965L100.233 34.468H96.6123L94.5436 27.8085L92.4745 34.468H88.8542L84.7163 21.9965H88.8542L90.7162 28.6812L92.7334 21.9965H96.3535L98.3709 28.6812L100.233 21.9965H104.371Z" fill="#9DAAB3"/>
<path d="M50.1333 43C59.0435 43 66.2667 36.0604 66.2667 27.5C66.2667 18.9396 59.0435 12 50.1333 12C41.2231 12 34 18.9396 34 27.5C34 36.0604 41.2231 43 50.1333 43Z" fill="#9DAAB3"/>
<mask id="mask0_1253_27306" style="mask-type:luminance" maskUnits="userSpaceOnUse" x="39" y="17" width="22" height="21">
<path d="M42.5676 20.1495C42.0392 20.6562 41.5778 21.2037 41.1825 21.7808C40.8671 22.2402 40.5935 22.7199 40.363 23.2123C38.5715 27.0304 39.3062 31.6837 42.5676 34.8162C46.7768 38.8614 53.6247 38.8614 57.8336 34.8162C62.0424 30.7729 62.0424 24.1934 57.8336 20.1495C55.729 18.1279 52.9649 17.1172 50.2008 17.1172C47.4363 17.1172 44.6722 18.1279 42.5676 20.1495ZM49.1951 30.036C46.6382 29.039 44.1182 27.9702 41.7595 26.5837L41.7546 26.5809C41.4561 26.407 41.3068 26.0698 41.3767 25.741C41.4687 25.3071 41.5953 24.8787 41.7572 24.4591C42.0884 23.6002 42.5663 22.7821 43.1919 22.0411C43.389 21.8063 43.6008 21.5795 43.8281 21.3611C47.3414 17.9854 53.0585 17.9854 56.5731 21.3611C57.3544 22.1114 57.9615 22.9669 58.3953 23.8805C58.6906 24.5036 58.0894 25.1714 57.4062 24.9767C56.8189 24.8103 56.2305 24.6485 55.6387 24.4989C54.2736 24.1527 52.8911 23.8625 51.5124 23.5582C51.2793 23.5072 51.1902 23.417 51.2605 23.1881C51.3835 22.7902 51.4936 22.3886 51.6105 21.9895C51.731 21.5739 51.5137 21.3568 51.0698 21.4585C50.7635 21.5291 50.4604 21.6128 50.1538 21.6856C48.9487 21.9721 47.7439 22.2517 46.5433 22.5466C46.1198 22.649 46.0531 22.8624 46.3361 23.1728C46.6126 23.477 46.9115 23.762 47.2013 24.0541C48.0327 24.8896 48.8584 25.7289 49.6966 26.5576C50.0088 26.8652 50.2127 26.8263 50.3588 26.4238C50.5071 26.0129 50.6239 25.588 50.7269 25.1627C50.7955 24.8744 50.9406 24.8265 51.2058 24.9304C53.7627 25.927 56.283 26.9962 58.6417 28.3826C58.6437 28.3836 58.6453 28.3845 58.6469 28.3857C58.9438 28.559 59.095 28.8943 59.0254 29.2216C58.9885 29.3977 58.9458 29.5734 58.8969 29.7479C58.7321 30.3349 58.5022 30.9088 58.2069 31.4582C57.7921 32.2312 57.2472 32.9572 56.5731 33.6052C55.9097 34.2423 55.1663 34.7596 54.375 35.1571C50.9775 36.8606 46.6783 36.3433 43.8281 33.6052C43.0468 32.8546 42.4394 31.9995 42.0059 31.0858C41.7099 30.4631 42.3112 29.7949 42.995 29.9893C43.582 30.1557 44.1707 30.3175 44.7625 30.4677C46.1276 30.8137 47.5098 31.1036 48.8885 31.4078C49.1216 31.4594 49.2106 31.549 49.1407 31.7774C49.018 32.1758 48.9076 32.5771 48.7894 32.9759C48.6693 33.3921 48.8875 33.6096 49.3298 33.5078C49.6364 33.4369 49.9408 33.3536 50.2471 33.2808C51.4512 32.9936 52.656 32.714 53.8575 32.4197C54.2804 32.3171 54.3481 32.1043 54.0651 31.7932C53.7883 31.489 53.4897 31.2044 53.1999 30.911C52.3682 30.0767 51.5415 29.2359 50.7042 28.4081C50.3928 28.0999 50.1885 28.1394 50.0421 28.5419C49.8945 28.9535 49.7769 29.3784 49.6743 29.8033C49.627 30.0011 49.5438 30.0864 49.4104 30.0864C49.3495 30.0864 49.278 30.0686 49.1951 30.036Z" fill="white"/>
</mask>
<g mask="url(#mask0_1253_27306)">
<path fill-rule="evenodd" clip-rule="evenodd" d="M38.5391 38.853H62.2075V15.7793H38.5391V38.853Z" fill="#2D2E33"/>
</g>
</g>
<defs>
<clipPath id="clip0_1253_27306">
<rect width="132" height="31" fill="white" transform="translate(34 12)"/>
</clipPath>
</defs>
</svg>
