<svg width="200" height="56" viewBox="0 0 200 56" fill="none" xmlns="http://www.w3.org/2000/svg">
<path d="M62.498 40.8531H74.456V39.8273C71.4939 39.6075 70.6528 39.1312 70.6528 37.7391V21.8392C70.6528 19.9707 70.9819 19.5677 73.432 19.5677C76.0284 19.5677 76.8329 20.447 77.8935 23.3412H78.9539L78.3322 18.5053C78.2957 18.1756 78.0762 17.9924 77.7472 18.029C77.2351 18.0657 76.3576 18.1023 75.4799 18.1023H61.5106C60.633 18.1023 59.7187 18.0657 59.2068 18.029C58.8777 17.9924 58.6582 18.1756 58.6217 18.5053L58 23.3412H59.0605C60.121 20.447 60.9255 19.5677 63.5219 19.5677C65.972 19.5677 66.3011 19.9707 66.3011 21.8392V37.7391C66.3011 39.1312 65.46 39.6075 62.498 39.8273V40.8531Z" fill="#9DAAB3"/>
<path d="M81.5093 41.0727C83.996 41.0727 86.0439 39.8271 87.214 38.435C87.5066 38.0319 87.7991 38.1053 87.7991 38.5082C87.9088 40.0103 88.8962 41.0727 90.6881 41.0727C91.7851 41.0727 92.9188 40.7063 93.3576 39.8638V39.3142C92.2971 39.5707 91.6022 39.2043 91.6022 37.922V30.4117C91.6022 25.7224 89.8104 24.0005 85.5318 24.0005C81.7287 24.0005 77.7793 25.2461 77.7793 28.067C77.7793 29.1295 78.4375 29.9354 79.6443 29.9354C80.7779 29.9354 81.7287 29.276 81.7287 27.8472C81.7287 26.2353 82.4601 25.2095 84.4714 25.2095C86.7752 25.2095 87.7625 26.6749 87.7625 29.3127V29.9721C87.7625 30.8514 87.47 31.1078 86.6289 31.2178C79.0957 32.2069 76.7188 34.112 76.7188 37.0428C76.7188 39.9004 79.0227 41.0727 81.5093 41.0727ZM83.5572 38.9112C81.5824 38.9112 80.7047 37.6656 80.7047 36.2369C80.7047 34.6981 81.7287 32.8297 86.2998 32.3535C87.5066 32.2436 87.7625 32.6832 87.7625 33.5258V34.7347C87.7625 37.1527 85.9341 38.9112 83.5572 38.9112Z" fill="#9DAAB3"/>
<path d="M111.277 41.073C112.338 41.073 113.471 40.7066 113.947 39.864V39.3145C112.886 39.571 112.192 39.2046 112.192 37.9223V30.1555C112.192 25.4295 109.559 23.9641 106.889 23.9641C103.89 23.9641 102.354 25.6494 101.66 26.382C101.184 26.9316 100.672 26.5286 100.672 25.2097V18.0658C100.672 17.1499 100.16 16.7102 99.2096 16.8934L94.4922 17.8093V18.7985C96.2841 18.6153 96.8326 19.1648 96.8326 20.8134V37.6659C96.8326 39.2046 96.211 39.6809 94.4922 39.864V40.8532H103.013V39.864C101.294 39.6809 100.672 39.2046 100.672 37.6659V30.9982C100.672 28.2871 102.172 26.2722 104.585 26.2722C107.035 26.2722 108.352 28.2871 108.352 30.9982V37.959C108.352 40.1205 109.595 41.073 111.277 41.073Z" fill="#9DAAB3"/>
<path d="M124.169 41.0727C128.667 41.0727 132.8 38.0319 132.8 32.5366C132.8 27.0412 128.667 24.0005 124.169 24.0005C119.671 24.0005 115.539 27.0412 115.539 32.5366C115.539 38.0319 119.671 41.0727 124.169 41.0727ZM124.937 39.8271C121.829 39.8271 119.671 35.7606 119.671 31.0712C119.671 27.0779 121.207 25.2461 123.401 25.2461C126.51 25.2461 128.667 29.3127 128.667 34.0021C128.667 37.9954 127.095 39.8271 124.937 39.8271Z" fill="#9DAAB3"/>
<path d="M141.273 19.3593L138.35 19.187C138.141 19.1734 137.945 19.0854 137.795 18.9388C137.645 18.7922 137.552 18.5966 137.532 18.3871L137.276 15.3761C137.268 15.3306 137.244 15.2894 137.209 15.2598C137.174 15.2301 137.129 15.2139 137.083 15.2139C137.038 15.2139 136.993 15.2301 136.958 15.2598C136.923 15.2894 136.899 15.3306 136.891 15.3761L136.629 18.3871C136.611 18.5975 136.519 18.7945 136.369 18.9416C136.218 19.0887 136.02 19.1758 135.811 19.187L132.887 19.3716C132.842 19.3798 132.801 19.4036 132.772 19.4391C132.743 19.4745 132.727 19.5193 132.727 19.5655C132.727 19.6117 132.743 19.6564 132.772 19.6919C132.801 19.7273 132.842 19.7512 132.887 19.7593L135.811 19.9316C136.019 19.9465 136.215 20.0349 136.365 20.1812C136.514 20.3276 136.608 20.5225 136.629 20.7316L136.885 23.7425C136.893 23.788 136.917 23.8292 136.952 23.8588C136.987 23.8885 137.031 23.9047 137.077 23.9047C137.123 23.9047 137.168 23.8885 137.203 23.8588C137.238 23.8292 137.261 23.788 137.27 23.7425L137.526 20.7316C137.546 20.522 137.639 20.3264 137.789 20.1798C137.939 20.0333 138.135 19.9453 138.344 19.9316L141.273 19.747C141.318 19.7389 141.359 19.715 141.389 19.6795C141.418 19.6441 141.434 19.5994 141.434 19.5531C141.434 19.5069 141.418 19.4622 141.389 19.4268C141.359 19.3913 141.318 19.3675 141.273 19.3593Z" fill="#9DAAB3"/>
<path fill-rule="evenodd" clip-rule="evenodd" d="M141.302 19.1466L141.314 19.1489C141.41 19.166 141.495 19.2163 141.557 19.2903C141.618 19.3642 141.651 19.4572 141.651 19.553C141.651 19.6488 141.618 19.7418 141.557 19.8157C141.495 19.8897 141.41 19.94 141.314 19.9571L141.302 19.9593L138.361 20.1447L138.361 20.1447C138.204 20.1551 138.055 20.2214 137.942 20.3323C137.829 20.4431 137.758 20.5913 137.742 20.7506L137.485 23.7701L137.483 23.7796C137.467 23.8739 137.418 23.9598 137.344 24.0219C137.27 24.084 137.177 24.1183 137.08 24.1183C136.984 24.1183 136.89 24.084 136.817 24.0219C136.743 23.9598 136.694 23.8739 136.677 23.7796L136.676 23.7701L136.419 20.7512C136.402 20.5922 136.331 20.4445 136.218 20.3337C136.105 20.2229 135.957 20.1562 135.8 20.1447L132.865 19.9717L132.853 19.9694C132.758 19.9523 132.672 19.9021 132.61 19.828C132.549 19.7541 132.516 19.6611 132.516 19.5653C132.516 19.4696 132.549 19.3765 132.61 19.3026C132.672 19.2285 132.758 19.1783 132.853 19.1612L132.865 19.159L135.802 18.9735L135.803 18.9735C135.959 18.9651 136.109 18.8997 136.222 18.7888C136.335 18.6779 136.405 18.5289 136.418 18.3693L136.419 18.3684L136.682 15.348L136.683 15.3387C136.7 15.2444 136.749 15.1585 136.823 15.0964C136.897 15.0343 136.99 15 137.087 15C137.183 15 137.277 15.0343 137.35 15.0964C137.424 15.1585 137.473 15.2444 137.49 15.3387L137.491 15.3482L137.748 18.3677C137.764 18.527 137.835 18.6751 137.948 18.786C138.061 18.8968 138.21 18.9631 138.366 18.9736C138.367 18.9736 138.367 18.9736 138.367 18.9736L141.302 19.1466ZM138.353 19.1869C138.145 19.1732 137.948 19.0852 137.798 18.9386C137.648 18.792 137.555 18.5965 137.535 18.3869L137.279 15.376C137.271 15.3305 137.247 15.2893 137.212 15.2596C137.177 15.23 137.132 15.2137 137.087 15.2137C137.041 15.2137 136.996 15.23 136.961 15.2596C136.926 15.2893 136.902 15.3305 136.894 15.376L136.632 18.3869C136.614 18.5974 136.522 18.7944 136.372 18.9414C136.221 19.0885 136.023 19.1757 135.814 19.1869L132.891 19.3715C132.846 19.3796 132.805 19.4035 132.775 19.4389C132.746 19.4744 132.73 19.5191 132.73 19.5653C132.73 19.6115 132.746 19.6563 132.775 19.6917C132.805 19.7271 132.846 19.751 132.891 19.7591L135.814 19.9314C136.022 19.9463 136.218 20.0347 136.368 20.1811C136.517 20.3274 136.611 20.5223 136.632 20.7314L136.888 23.7424C136.896 23.7878 136.92 23.829 136.955 23.8587C136.99 23.8883 137.035 23.9046 137.08 23.9046C137.126 23.9046 137.171 23.8883 137.206 23.8587C137.241 23.829 137.265 23.7878 137.273 23.7424L137.529 20.7314C137.549 20.5218 137.642 20.3263 137.792 20.1797C137.942 20.0331 138.139 19.9451 138.347 19.9314L141.276 19.7468C141.321 19.7387 141.362 19.7148 141.392 19.6794C141.421 19.6439 141.437 19.5992 141.437 19.553C141.437 19.5068 141.421 19.462 141.392 19.4266C141.362 19.3912 141.321 19.3673 141.276 19.3592L138.353 19.1869Z" fill="#9DAAB3"/>
</svg>
