<svg xmlns="http://www.w3.org/2000/svg" fill="none" viewBox="0 0 1010 244">
  <path
    fill="#9DAAB3"
    d="M244 119.679c-66.128 0-119.679-53.605-119.679-119.679h-4.642v119.679H0v4.642c66.128 0 119.679 53.605 119.679 119.679h4.642V124.321H244v-4.642ZM371.368 191.342c-32.013 0-51.533-18.153-51.533-51.532V54.702h20.301v83.936c0 21.668 10.15 35.722 31.232 35.722 22.838 0 31.232-14.054 31.232-35.722V54.702h20.301v85.108c0 33.379-19.52 51.532-51.533 51.532ZM440.663 189V92.571h19.129v13.664h.195c5.466-8.393 16.202-16.006 30.842-16.006 21.472 0 34.16 12.883 34.16 36.307V189h-19.325v-54.07c0-17.373-3.904-28.5-20.105-28.5-16.202 0-25.572 13.079-25.572 28.695V189h-19.324Zm102.182 0V92.571h19.325V189h-19.325Zm0-111.46V54.703h19.325v22.839h-19.325Zm79.515 113.802c-28.304 0-47.433-20.496-47.433-50.752 0-29.67 19.129-50.361 47.628-50.361 24.986 0 38.845 14.64 43.92 32.793l-19.52 4.685c-2.537-12.102-9.955-22.057-24.4-22.057-15.42 0-27.328 12.297-27.328 34.94 0 23.034 11.517 35.332 27.719 35.332 13.469 0 21.862-8.394 24.985-22.058l19.325 4.685c-5.856 18.153-19.325 32.793-44.896 32.793ZM677.632 189V54.702h19.325v51.338h.195c6.051-9.37 16.007-15.811 30.647-15.811 21.472 0 34.16 12.883 34.16 36.307V189h-19.325v-54.07c0-17.373-3.904-28.5-20.106-28.5-16.201 0-25.571 13.079-25.571 28.695V189h-19.325Zm130.292 2.342c-17.373 0-32.989-10.54-32.989-28.499 0-17.568 12.298-25.571 33.184-29.67l13.274-2.733c10.345-2.147 15.225-4.294 15.225-12.298 0-8.003-6.637-13.664-18.349-13.664-12.688 0-20.886 7.808-21.667 20.692l-19.91-1.757c1.366-20.691 17.958-33.184 41.773-33.184 24.595 0 37.673 11.907 37.673 32.208V189h-18.544v-11.322h-.195c-4.49 7.418-14.445 13.664-29.475 13.664Zm5.075-13.859c13.664 0 24.4-8.979 24.4-24.985v-11.712c-20.301 3.318-29.866 6.051-35.722 9.76-4.489 2.732-7.027 6.636-7.027 11.907 0 8.979 7.418 15.03 18.349 15.03ZM874.182 189V92.571h19.325V189h-19.325Zm0-111.46V54.703h19.325v22.839h-19.325ZM912.315 189V92.571h19.129v13.664h.195c5.466-8.393 16.202-16.006 30.842-16.006 21.472 0 34.16 12.883 34.16 36.307V189h-19.325v-54.07c0-17.373-3.904-28.5-20.105-28.5-16.202 0-25.572 13.079-25.572 28.695V189h-19.324Z"
  />
</svg>
