<svg width="1001" height="251" viewBox="0 0 1001 251" fill="none" xmlns="http://www.w3.org/2000/svg">
    <path d="M128.342 35.2854C125.609 34.8639 125.494 34.8144 126.78 34.6179C129.244 34.2411 135.064 34.7547 139.074 35.7028C148.437 37.9154 156.956 43.5836 166.049 53.6504L168.465 56.3248L171.921 55.7724C186.48 53.446 201.292 55.2949 213.681 60.9851C217.088 62.5505 222.462 65.6667 223.133 66.4675C223.347 66.7228 223.74 68.3655 224.006 70.1186C224.926 76.1832 224.465 80.8318 222.6 84.3038C221.585 86.1933 221.528 86.7921 222.21 88.409C222.755 89.6993 224.275 90.6543 225.779 90.6522C228.857 90.6482 232.171 85.6999 233.706 78.8149L234.316 76.0802L235.524 77.4408C242.152 84.906 247.356 95.0869 248.251 102.333L248.484 104.223L247.369 102.505C245.452 99.5497 243.526 97.5376 241.059 95.9148C236.613 92.9897 231.912 91.9941 219.461 91.3417C208.216 90.7526 201.851 89.7976 195.541 87.7515C184.804 84.2709 179.391 79.6353 166.637 62.9975C160.972 55.6075 157.471 51.5188 153.988 48.2261C146.073 40.7444 138.297 36.8207 128.342 35.2854Z" fill="#9DAAB3"/>
    <path d="M225.67 51.7855C225.952 46.8334 226.628 43.5672 227.986 40.5843C228.524 39.4036 229.027 38.4373 229.105 38.4373C229.183 38.4373 228.948 39.3088 228.585 40.3738C227.598 43.2687 227.436 47.2281 228.116 51.8349C228.979 57.68 229.47 58.5234 235.684 64.8374C238.598 67.799 241.988 71.5342 243.217 73.1378L245.451 76.0537L243.217 73.9698C240.485 71.4215 234.2 66.4517 232.812 65.7413C231.881 65.2648 231.743 65.273 231.169 65.8412C230.64 66.3648 230.529 67.1514 230.455 70.8705C230.341 76.6668 229.546 80.3872 227.628 84.1074C226.591 86.1194 226.428 85.69 227.366 83.4189C228.067 81.7233 228.138 80.9778 228.132 75.3666C228.122 64.0923 226.776 61.3819 218.881 56.7388C216.881 55.5625 213.586 53.8662 211.558 52.9689C209.531 52.0716 207.92 51.29 207.979 51.2317C208.203 51.0104 215.901 53.2447 219 54.4299C223.61 56.1929 224.37 56.4214 224.931 56.2087C225.306 56.0661 225.487 54.9795 225.67 51.7855Z" fill="#9DAAB3"/>
    <path d="M133.65 71.0725C128.102 63.4781 124.669 51.8342 125.413 43.1299L125.642 40.4362L126.905 40.6654C129.277 41.0955 133.366 42.6087 135.281 43.7651C140.535 46.9379 142.809 51.1152 145.124 61.8419C145.802 64.9838 146.692 68.5393 147.1 69.7431C147.759 71.6805 150.249 76.2062 152.273 79.1454C153.731 81.2622 152.762 82.2654 149.539 81.9761C144.618 81.5343 137.951 76.9595 133.65 71.0725Z" fill="#9DAAB3"/>
    <path d="M218.941 127.594C193.013 117.214 183.881 108.205 183.881 93.0034C183.881 90.7663 183.959 88.9361 184.053 88.9361C184.147 88.9361 185.15 89.6743 186.282 90.5767C191.54 94.7695 197.427 96.5602 213.726 98.9244C223.317 100.316 228.714 101.439 233.693 103.081C249.518 108.299 259.309 118.889 261.644 133.313C262.322 137.504 261.925 145.363 260.824 149.506C259.956 152.777 257.306 158.675 256.603 158.901C256.409 158.964 256.217 158.221 256.167 157.211C255.901 151.795 253.148 146.522 248.525 142.572C243.269 138.081 236.207 134.506 218.941 127.594Z" fill="#9DAAB3"/>
    <path d="M200.738 131.905C200.413 129.984 199.85 127.529 199.486 126.451L198.825 124.491L200.054 125.863C201.754 127.76 203.098 130.188 204.237 133.423C205.106 135.892 205.204 136.625 205.197 140.637C205.191 144.575 205.082 145.401 204.279 147.623C203.014 151.126 201.443 153.611 198.807 156.277C194.071 161.07 187.982 163.723 179.195 164.824C177.667 165.016 173.216 165.338 169.302 165.539C159.439 166.05 152.947 167.104 147.114 169.14C146.276 169.433 145.527 169.611 145.451 169.536C145.215 169.301 149.187 166.948 152.466 165.377C157.092 163.162 161.696 161.953 172.013 160.245C177.108 159.401 182.371 158.377 183.708 157.97C196.328 154.122 202.815 144.194 200.738 131.905Z" fill="#9DAAB3"/>
    <path d="M212.624 152.892C209.179 145.53 208.388 138.421 210.275 131.791C210.478 131.083 210.801 130.503 210.997 130.503C211.193 130.503 212.005 130.94 212.803 131.474C214.391 132.536 217.574 134.326 226.057 138.924C236.641 144.661 242.675 149.104 246.779 154.18C250.373 158.626 252.597 163.688 253.668 169.862C254.274 173.359 253.919 181.774 253.016 185.296C250.171 196.399 243.556 205.121 234.123 210.211C232.741 210.956 231.5 211.568 231.366 211.571C231.231 211.574 231.735 210.301 232.485 208.742C235.658 202.146 236.02 195.73 233.62 188.589C232.152 184.216 229.156 178.881 223.109 169.864C216.078 159.38 214.354 156.59 212.624 152.892Z" fill="#9DAAB3"/>
    <path d="M115.238 192.62C124.859 184.542 136.831 178.804 147.736 177.042C152.435 176.283 160.264 176.584 164.616 177.692C171.592 179.467 177.832 183.443 181.077 188.179C184.249 192.809 185.609 196.843 187.026 205.819C187.585 209.36 188.193 212.915 188.376 213.72C189.44 218.372 191.511 222.09 194.076 223.957C198.152 226.922 205.168 227.107 212.071 224.43C213.242 223.975 214.259 223.661 214.331 223.732C214.581 223.98 211.105 226.293 208.653 227.511C205.354 229.149 202.731 229.783 199.244 229.783C192.922 229.783 187.673 226.585 183.294 220.065C182.432 218.782 180.495 214.939 178.989 211.525C174.366 201.039 172.082 197.844 166.714 194.348C162.041 191.306 156.015 190.761 151.482 192.972C145.527 195.874 143.867 203.44 148.131 208.235C149.826 210.14 152.987 211.784 155.571 212.103C160.407 212.701 164.562 209.044 164.562 204.19C164.562 201.039 163.344 199.239 160.276 197.864C156.088 195.984 151.585 198.181 151.607 202.093C151.616 203.762 152.346 204.81 154.029 205.567C155.108 206.052 155.133 206.091 154.253 205.909C150.409 205.117 149.509 200.51 152.6 197.45C156.31 193.779 163.982 195.399 166.617 200.411C167.723 202.516 167.852 206.709 166.887 209.24C164.727 214.907 158.43 217.887 152.042 216.265C147.692 215.161 145.921 213.966 140.677 208.595C131.565 199.262 128.027 197.454 114.89 195.415L112.373 195.025L115.238 192.62Z" fill="#9DAAB3"/>
    <path fillRule="evenodd" clipRule="evenodd" d="M72.4816 25.5823C102.912 62.3049 123.872 77.4559 126.201 80.6569C128.124 83.3 127.4 85.6763 124.105 87.5385C122.273 88.574 118.507 89.623 116.621 89.623C114.488 89.623 113.755 88.8049 113.755 88.8049C112.519 87.6386 111.822 87.8426 105.471 76.6333C96.6532 63.0296 89.2741 51.7447 89.0728 51.5557C88.6073 51.1188 88.6153 51.1335 104.572 79.5203C107.15 85.4368 105.085 87.6086 105.085 88.4513C105.085 90.1655 104.614 91.0666 102.487 93.4253C98.9419 97.3579 97.357 101.777 96.2129 110.922C94.9302 121.174 91.3236 128.415 81.3287 140.809C75.4779 148.063 74.5206 149.394 73.0443 152.318C71.1847 156 70.6734 158.063 70.4662 162.713C70.2471 167.628 70.6738 170.804 72.1844 175.505C73.5069 179.62 74.8874 182.338 78.4167 187.772C81.4623 192.463 83.2159 195.948 83.2159 197.312C83.2159 198.397 83.4242 198.398 88.1437 197.339C99.438 194.803 108.609 190.343 113.767 184.877C116.959 181.494 117.708 179.626 117.733 174.99C117.749 171.957 117.641 171.323 116.817 169.579C115.475 166.739 113.032 164.379 107.647 160.718C100.592 155.923 97.5788 152.062 96.7464 146.754C96.0636 142.397 96.8557 139.323 100.759 131.19C104.799 122.771 105.8 119.184 106.477 110.698C106.914 105.215 107.52 103.054 109.104 101.318C110.757 99.5081 112.244 98.8952 116.333 98.3397C123 97.4342 127.244 95.7193 130.734 92.5225C133.761 89.7492 135.027 87.0769 135.222 83.0541L135.369 80.005L133.678 78.0441C127.552 70.9426 68.3793 20 68.0023 20C67.9218 20 69.9376 22.5122 72.4816 25.5823ZM86.6545 168.275C88.0395 165.837 87.3037 162.701 84.9869 161.17C82.798 159.723 79.3976 160.404 79.3976 162.29C79.3976 162.865 79.7177 163.285 80.4389 163.653C81.6535 164.275 81.7417 164.974 80.7861 166.402C79.8183 167.848 79.8964 169.12 81.0065 169.984C82.7956 171.376 85.3281 170.61 86.6545 168.275Z" fill="#9DAAB3"/>
    <path fillRule="evenodd" clipRule="evenodd" d="M139.576 99.9392C136.447 100.895 133.404 104.192 132.463 107.651C131.888 109.76 132.214 113.461 133.075 114.604C134.465 116.45 135.809 116.936 139.45 116.911C146.577 116.861 152.773 113.822 153.493 110.022C154.083 106.908 151.362 102.592 147.614 100.697C145.68 99.7197 141.566 99.3319 139.576 99.9392ZM147.908 106.417C149.007 104.864 148.526 103.186 146.657 102.051C143.097 99.8898 137.714 101.678 137.714 105.022C137.714 106.686 140.521 108.502 143.094 108.502C144.807 108.502 147.15 107.487 147.908 106.417Z" fill="#9DAAB3"/>
    <path d="M852.993 221.199V110.405H868.984V122.97C873.39 115.79 881.875 108.447 896.07 108.447C917.283 108.447 932.62 125.254 932.62 150.709C932.62 176.163 917.283 192.971 896.07 192.971C881.549 192.971 873.227 185.301 869.147 178.774V221.199H852.993ZM892.318 180.08C908.145 180.08 915.814 166.862 915.814 150.709C915.814 134.555 908.145 121.338 892.318 121.338C876.49 121.338 868.495 134.881 868.495 150.709C868.495 166.536 876.49 180.08 892.318 180.08Z" fill="#9DAAB3"/>
    <path d="M792.712 192.971C778.189 192.971 765.135 184.159 765.135 169.147C765.135 154.462 775.415 147.771 792.875 144.345L803.97 142.061C812.618 140.266 816.697 138.471 816.697 131.781C816.697 125.091 811.15 120.359 801.36 120.359C790.753 120.359 783.9 126.885 783.248 137.655L766.603 136.186C767.746 118.89 781.616 108.447 801.523 108.447C822.082 108.447 833.014 118.4 833.014 135.371V191.012H817.513V181.548H817.35C813.597 187.749 805.275 192.971 792.712 192.971ZM796.954 181.385C808.376 181.385 817.35 173.88 817.35 160.499V150.709C800.381 153.483 792.385 155.767 787.49 158.867C783.736 161.152 781.616 164.415 781.616 168.821C781.616 176.326 787.816 181.385 796.954 181.385Z" fill="#9DAAB3"/>
    <path d="M661.298 191.014L635.679 110.408H652.813L670.435 171.27H670.599L688.874 110.408H705.027L723.466 171.107H723.629L741.252 110.408H758.059L732.44 191.014H715.471L697.195 128.846H697.032L678.431 191.014H661.298Z" fill="#9DAAB3"/>
    <path d="M596.142 192.971C576.072 192.971 561.386 183.67 559.591 164.415L575.582 162.457C576.398 175.184 585.373 181.059 596.469 181.059C607.401 181.059 614.744 176.163 614.744 168.331C614.744 160.499 607.238 158.867 597.121 156.583L585.21 153.809C572.155 150.709 563.181 144.508 563.181 132.107C563.181 118.4 576.725 108.447 595.816 108.447C614.254 108.447 626.818 117.748 628.939 132.76L612.786 135.044C611.643 125.417 604.627 120.359 595.163 120.359C585.536 120.359 579.335 125.091 579.335 131.291C579.335 137.165 582.925 139.286 593.042 141.571L604.953 144.345C621.923 148.261 630.898 153.809 630.898 166.699C630.898 182.854 615.886 192.971 596.142 192.971Z" fill="#9DAAB3"/>
    <path d="M529.51 191.014V110.407H545.665V191.014H529.51ZM529.51 97.8427V78.7516H545.665V97.8427H529.51Z" fill="#9DAAB3"/>
    <path d="M439.198 191.012V110.405H455.189V121.827H455.352C459.921 114.811 468.896 108.447 481.134 108.447C499.083 108.447 509.689 119.216 509.689 138.797V191.012H493.534V145.813C493.534 131.291 490.272 121.99 476.728 121.99C463.184 121.99 455.352 132.923 455.352 145.976V191.012H439.198Z" fill="#9DAAB3"/>
    <path d="M376.378 192.972C349.618 192.972 333.3 177.797 333.3 149.895V78.7516H350.271V148.915C350.271 167.027 358.756 178.776 376.378 178.776C395.469 178.776 402.486 167.027 402.486 148.915V78.7516H419.456V149.895C419.456 177.797 403.138 192.972 376.378 192.972Z" fill="#9DAAB3"/>
    </svg>
    