<svg xmlns="http://www.w3.org/2000/svg" fill="none" viewBox="0 0 3007 512">
  <g fill="#9DAAB3" clip-path="url(#world-chain-a)">
    <path
      d="M1099.65 158.604c53.62 0 97.41 43.783 97.41 97.396s-43.79 97.396-97.41 97.396-97.41-43.783-97.41-97.396 43.34-97.396 97.41-97.396Zm0-46.911c-79.54 0-144.328 64.782-144.328 144.307 0 79.525 64.788 144.307 144.328 144.307 79.53 0 144.32-64.782 144.32-144.307 0-79.972-64.79-144.307-144.32-144.307ZM2497.78 158.604c53.62 0 97.41 43.783 97.41 97.396s-43.79 97.396-97.41 97.396-97.41-43.783-97.41-97.396 43.79-97.396 97.41-97.396Zm0-46.911c-79.54 0-144.33 64.782-144.33 144.307 0 79.525 64.79 144.307 144.33 144.307 79.53 0 144.32-64.782 144.32-144.307 0-79.972-64.34-144.307-144.32-144.307ZM2280.17 289.508c-13.85 37.529-49.6 63.888-91.6 63.888-53.62 0-97.41-43.783-97.41-97.396s43.79-97.396 97.41-97.396c42 0 77.75 26.806 91.6 63.888h48.71c-14.75-63.441-71.94-110.799-140.31-110.799-79.53 0-144.32 64.782-144.32 144.307 0 79.525 64.79 144.307 144.32 144.307 68.37 0 125.56-47.358 140.31-110.799h-48.71ZM1875.34 163.072c52.28 0 94.73 43.783 92.95 96.502-1.79 50.485-44.69 89.354-95.18 89.354h-51.39V163.072h53.62Zm0-46.911h-100.53V395.84h100.53c77.31 0 139.86-62.548 139.86-139.84 0-77.291-62.55-139.839-139.86-139.839ZM2723.43 116.607h-46.92v278.786h46.92V116.607ZM705.098 396.733l53.172-205.068 53.173 205.068h64.343l72.834-281.466h-48.258l-56.747 218.471-56.748-218.471h-57.194l-56.747 218.471-56.748-218.471h-48.257l72.833 281.466h64.344ZM2817.26 197.026l142.09 198.367H3006.27V116.607h-46.92v198.367l-142.09-198.813h-3.57l-.45.446h-42.9v278.786h46.92V197.026ZM1591.61 116.607h-46.92v278.786h195.71v-46.911h-148.79V116.607ZM1454.43 280.572c28.6-14.296 48.26-43.336 48.26-77.291 0-47.804-38.88-86.227-86.24-86.227h-136.73V395.84h48.26V289.508h26.81c57.19 1.787 102.77 48.251 102.77 105.885h48.26c.44-45.571-19.66-86.674-51.39-114.821Zm-126.45-39.315v-76.398h88.47c21 0 37.98 16.977 37.98 37.975 0 20.999-16.98 38.423-37.98 38.423h-88.47ZM491.513 156.37c-12.958-30.38-31.278-57.633-54.96-81.312-23.682-23.68-50.492-41.997-80.877-54.953C323.952 6.702 290.439 0 256.033 0c-34.852 0-68.365 6.702-99.643 20.105-30.384 12.956-57.64 31.274-81.323 54.953-23.682 23.678-42.002 50.932-54.96 81.312C6.702 187.644 0 221.152 0 256c0 34.401 6.702 67.909 20.107 99.63 12.958 30.38 31.278 57.634 54.96 81.312 23.682 23.679 50.939 41.997 81.323 54.506 31.725 13.404 65.238 20.105 99.643 20.105 34.406 0 67.919-6.701 99.643-20.105 30.385-12.956 57.642-31.274 81.323-54.952 23.682-23.679 42.002-50.932 54.961-81.313 13.404-31.721 20.107-65.228 20.107-99.63 0-34.401-7.149-67.909-20.554-99.183Zm-320.377 75.504c10.277-41.103 47.811-71.036 92.047-71.036h177.838c11.618 21.891 18.767 46.017 21.448 71.036H171.136Zm291.333 48.252c-2.681 25.019-10.277 49.145-21.448 71.036H263.183c-44.236 0-81.323-30.38-92.047-71.036h291.333ZM109.026 109.012c39.321-39.316 91.601-60.76 147.007-60.76 55.407 0 107.686 21.444 147.007 60.76l3.575 3.574H263.183c-38.428 0-74.174 14.744-101.431 41.997-21.447 21.445-35.299 48.251-39.767 77.291H49.598c5.362-46.464 25.916-89.354 59.428-122.862Zm147.007 354.737c-55.406 0-107.686-21.445-147.007-60.761-33.512-33.508-54.066-76.845-59.428-122.862h72.387c4.915 29.04 18.766 55.846 39.767 77.291 27.257 27.253 63.003 41.997 101.431 41.997h143.432l-3.575 3.574c-39.321 39.316-91.6 60.761-147.007 60.761Z"
    />
  </g>
  <defs>
    <clipPath id="world-chain-a"><path fill="#fff" d="M0 0h3006.27v512H0z" /></clipPath>
  </defs>
</svg>
