<svg width="200" height="56" viewBox="0 0 200 56" fill="none" xmlns="http://www.w3.org/2000/svg">
<path d="M89.9922 35.5209H91.5299V29.1138H97.8845V27.611H91.5299V22.6834H98.5369V21.1807H89.9922V35.5209Z" fill="#9DAAB3"/>
<path d="M119.073 32.5154L110.552 21.402L110.389 21.1865H109.125V35.5034H110.669V23.9707L119.19 35.2821L119.353 35.5034H120.617V21.1865H119.073V32.5154Z" fill="#9DAAB3"/>
<path d="M103.952 21.1807H102.414V35.5209H103.952V21.1807Z" fill="#9DAAB3"/>
<path d="M157.637 23.155C158.353 22.7182 159.139 22.4969 159.972 22.4969C160.601 22.4969 161.166 22.6017 161.65 22.8114C162.145 23.0211 162.582 23.3007 162.943 23.6385C163.31 23.9938 163.607 24.3724 163.822 24.7685C164.044 25.182 164.195 25.5781 164.271 25.9625L164.364 26.3994H165.937L165.826 25.7645C165.739 25.2519 165.546 24.7102 165.267 24.151C164.987 23.6094 164.603 23.0851 164.119 22.6017C163.624 22.1183 163.03 21.728 162.355 21.4368C161.656 21.1397 160.858 20.9883 159.972 20.9883C158.732 20.9883 157.619 21.3086 156.664 21.9319C155.726 22.5493 154.981 23.4288 154.456 24.5355C153.944 25.6305 153.688 26.9061 153.688 28.3273C153.688 29.7427 153.95 31.0183 154.456 32.1191C154.981 33.2316 155.726 34.1053 156.664 34.7227C157.613 35.3518 158.726 35.6663 159.966 35.6663C160.852 35.6663 161.65 35.5149 162.349 35.2178C163.019 34.9324 163.613 34.5363 164.114 34.0471C164.585 33.5753 164.976 33.0569 165.261 32.5094C165.546 31.9502 165.733 31.4085 165.82 30.9076L165.931 30.2727H164.358L164.265 30.7212C164.195 31.0998 164.044 31.5017 163.822 31.9211C163.601 32.3288 163.304 32.7074 162.943 33.0511C162.593 33.3831 162.156 33.6568 161.661 33.8723C161.166 34.0762 160.595 34.181 159.978 34.181C159.139 34.181 158.353 33.9655 157.642 33.5345C156.926 33.1035 156.344 32.4453 155.907 31.5949C155.464 30.727 155.237 29.632 155.237 28.3331C155.237 27.0575 155.464 25.9683 155.907 25.1005C156.344 24.2442 156.932 23.5919 157.637 23.155Z" fill="#9DAAB3"/>
<path d="M170.911 34.0065V29.0905H176.933V27.5936H170.911V22.6834H176.933V21.1807H169.367V35.4976H176.992V34.0065H170.911Z" fill="#9DAAB3"/>
<path d="M148.78 32.6202L140.23 21.3729L140.131 21.1807H138.82V35.4976H140.358V24.0697L148.955 35.3694L149.054 35.4976H150.306V21.1807H148.78V32.6202Z" fill="#9DAAB3"/>
<path d="M130.415 21.1807H129.046L123.892 34.9559L123.734 35.4976H125.33L127.002 31.0301H132.454L134.125 35.4976H135.762L130.503 21.4311L130.415 21.1807ZM131.895 29.5332H127.561L129.728 23.7435L131.895 29.5332Z" fill="#9DAAB3"/>
<path d="M81.2066 21.2144L77.7701 26.4682L74.3394 21.2144H68.3284L64.956 26.0313L61.4204 21.2144H57.3607L62.5795 28.134L57.25 35.3798H61.2865L64.6997 30.5046L68.276 35.3798H72.3416L67.0587 28.3845L71.3223 22.5831L76.0402 29.829V35.3798H79.4884V29.8464L85.1266 21.2144H81.2066Z" fill="#9DAAB3"/>
<path d="M23 28.0588V28.2801C23 31.2682 23.9844 34.0232 25.6502 36.2424L25.7026 36.3123L32.8494 29.247L27.5199 23.9058H34.6492L36.449 25.694L40.5146 21.7682H45.85L28.4052 38.9741C30.5837 40.5817 33.2746 41.537 36.1869 41.5603H36.2743C43.5376 41.5603 49.4379 35.7356 49.5544 28.5015V28.2801C49.5544 20.9469 43.6075 15 36.2743 15C29.0168 15 23.1165 20.8246 23 28.0588ZM38.342 34.5998L36.5597 32.8292L40.1477 29.346L45.483 34.5998H38.342Z" fill="#9DAAB3"/>
</svg>
