<svg width="200" height="56" viewBox="0 0 200 56" fill="none" xmlns="http://www.w3.org/2000/svg">
<path fill-rule="evenodd" clip-rule="evenodd" d="M79.5417 27.9835L66.6242 15.0059V24.5152L53.7969 34.0305L66.6242 34.0365V40.9671L79.5417 27.9835Z" fill="#9DAAB3"/>
<path fill-rule="evenodd" clip-rule="evenodd" d="M34 27.9836L46.9175 40.9672V31.5541L59.6546 22.0328L46.9235 22.0268V15L34 27.9836Z" fill="#9DAAB3"/>
<path d="M99.4276 35.6297H89.5156V32.7685L95.1899 26.403H89.6599V23.5898H99.3255V26.3068L93.4828 32.7926H99.4276V35.6297Z" fill="#9DAAB3"/>
<path d="M112.951 23.5894L108.154 28.6566L113.047 35.6292H109.08L105.912 31.0309L104.572 32.4495V35.6292H101.332V17.915H104.572V28.0735L108.713 23.5954H112.951V23.5894Z" fill="#9DAAB3"/>
<path d="M127.041 22.4174L124.023 23.3491C123.909 22.73 123.603 22.165 123.098 21.66C122.593 21.1551 121.854 20.9027 120.88 20.9027C120.086 20.9027 119.437 21.1251 118.932 21.5639C118.427 21.9906 118.175 22.5016 118.175 23.1027C118.175 24.1606 118.8 24.8158 120.05 25.0622L122.461 25.5251C123.987 25.8196 125.172 26.4327 126.019 27.3584C126.867 28.2901 127.287 29.3841 127.287 30.6404C127.287 32.077 126.722 33.3333 125.58 34.4092C124.462 35.4671 122.948 36.0021 121.048 36.0021C119.96 36.0021 118.98 35.8398 118.103 35.5152C117.225 35.1906 116.522 34.7578 115.987 34.2169C115.452 33.6639 115.031 33.0808 114.719 32.4797C114.424 31.8606 114.25 31.2234 114.184 30.5682L117.303 29.7387C117.381 30.6704 117.742 31.4458 118.373 32.0649C119.022 32.6841 119.924 32.9966 121.078 32.9966C121.956 32.9966 122.635 32.7983 123.122 32.4076C123.627 32.0169 123.879 31.4999 123.879 30.8688C123.879 30.3639 123.693 29.9311 123.32 29.5704C122.966 29.1977 122.449 28.9453 121.787 28.813L119.377 28.3262C117.983 28.0316 116.876 27.4546 116.065 26.589C115.254 25.7234 114.851 24.6475 114.851 23.3611C114.851 21.8283 115.434 20.536 116.606 19.4961C117.79 18.4502 119.209 17.9272 120.868 17.9272C121.86 17.9272 122.743 18.0655 123.525 18.342C124.306 18.6185 124.931 18.9972 125.4 19.466C125.869 19.9229 126.236 20.3977 126.494 20.8846C126.74 21.3655 126.927 21.8764 127.041 22.4174Z" fill="#9DAAB3"/>
<path d="M132.741 40.3784H129.309L132.134 34.115L127.043 23.5898H130.674L133.865 30.6347L136.811 23.5898H140.267L132.741 40.3784Z" fill="#9DAAB3"/>
<path d="M144.74 28.7049V35.6295H141.5V23.5896H144.644V25.0803C144.986 24.4912 145.473 24.0464 146.104 23.7338C146.736 23.4213 147.403 23.271 148.1 23.271C149.513 23.271 150.583 23.7218 151.316 24.6174C152.061 25.5011 152.434 26.6431 152.434 28.0437V35.6295H149.194V28.6087C149.194 27.8934 149.008 27.3103 148.635 26.8715C148.28 26.4327 147.727 26.2103 146.976 26.2103C146.297 26.2103 145.75 26.4448 145.347 26.9196C144.944 27.3945 144.74 27.9896 144.74 28.7049Z" fill="#9DAAB3"/>
<path d="M160.373 26.2345C159.514 26.2345 158.792 26.535 158.203 27.1421C157.62 27.7432 157.326 28.5667 157.326 29.6126C157.326 30.6585 157.62 31.488 158.203 32.1071C158.805 32.7082 159.532 33.0148 160.397 33.0148C161.161 33.0148 161.768 32.8164 162.225 32.4257C162.682 32.017 162.988 31.5361 163.15 30.9831L166 31.9388C165.705 33.0509 165.074 34.0006 164.1 34.8C163.126 35.5995 161.894 35.9962 160.397 35.9962C158.612 35.9962 157.109 35.3951 155.889 34.1869C154.687 32.9607 154.086 31.4399 154.086 29.6126C154.086 27.7673 154.681 26.2465 155.865 25.0383C157.067 23.8301 158.546 23.229 160.295 23.229C161.822 23.229 163.072 23.6257 164.046 24.4252C165.02 25.2066 165.645 26.1623 165.921 27.2864L163.024 28.2662C162.639 26.9077 161.756 26.2345 160.373 26.2345Z" fill="#9DAAB3"/>
</svg>
