<svg
  xmlns="http://www.w3.org/2000/svg"
  xml:space="preserve"
  id="Layer_1"
  x="0"
  y="0"
  style="enable-background: new 0 0 3487 1200"
  version="1.1"
  width="200"
  height="30"
  viewBox="0 0 3487 1200"
>
  <path
    d="M0 1180.1v-212l499.8-752H56.2V19.8h696.6v182.1l-520.7 782h541.2v196.3H0v-.1z"
    fill="#9DAAB3"
  />
  <path
    d="M758.4 607.1c0-138.2 20.5-252.1 61.3-341.5C860.6 176.2 914 109.5 980 65.8 1046 21.9 1125.9 0 1219.9 0c136.2 0 247.1 52 332.8 155.9 85.7 104 128.6 252 128.6 444.1s-45.4 345.9-136.2 455.1c-79.7 96.6-187.9 144.8-324.6 144.8s-246.4-47.7-326.1-143.2c-90.7-109.2-136.1-259.1-136-449.6zm197.9-7.9c0 133.5 25.4 233.6 76.1 300.4 50.7 66.8 113.6 100.2 188.7 100.2 75 0 138.2-33.1 187.9-99.3s74.5-167.9 74.5-305.2c0-137.2-24.2-234-72.6-298.4-48.3-64.3-111.7-96.6-189.9-96.6s-141.9 32.4-191 97.4c-49.2 64.8-73.7 165.3-73.7 301.5zM1735.2 1180.1V19.8h404.4c103.4 0 177.3 10.4 221.6 31.2 44.4 20.9 80.8 57 109.2 108.4 28.5 51.4 42.7 113.1 42.7 184.8 0 90.8-21.7 163.8-65.3 219.3-43.4 55.5-105.2 90.3-185.5 104.5 41.2 29.5 75.2 61.9 102.1 97 26.9 35.1 63.6 98 110 188.8l115.6 226.4h-229.2l-139.1-252.5c-50-91.3-84-148.4-102-171.4s-37-38.8-57-47.5c-20.1-8.7-52.2-13.1-96.6-13.1h-39.6v484.4h-191.3zm191.6-669.6h142.5c87.1 0 142.5-3.8 166.2-11.5 23.8-7.7 43-23.1 57.8-46.3 14.7-23.2 22.1-54 22.1-92.6s-7.4-66.6-22.1-89c-14.8-22.4-34.8-37.8-60.2-46.3-18-5.8-69.9-8.7-155.9-8.7h-150.4v294.4z"
    fill="#9DAAB3"
  />
  <path
    d="M3487 1180.1h-208.2l-83.3-262.8h-380.9l-78.7 262.8h-204.2L2902.2 19.8h203.5L3487 1180.1zM3133.6 721l-131.4-430.6L2873.3 721h260.3z"
    fill="#9DAAB3"
  />
</svg>
